{
copyright = "Copyright (c) 2015, Cadson Demak (info@cadsondemak.com)";
customParameters = (
{
name = vendorID;
value = CDK;
},
{
name = description;
value = "Copyright (c) 2015, Cadson Demak (info@cadsondemak.com)";
},
{
name = license;

glyphs = (
{
glyphname = A;
lastChange = "2015-11-26 10:59:34 +0000";
layers = (
{
layerId = "098F4D9A-293F-4750-B0F4-D0E702B92EEF";
name = "Bold Italic";
paths = (
{
closed = 1;
nodes = (
"218 0 LINE",
"289 120 LINE",
"445 120 LINE",
"466 0 LINE",
"706 0 LINE",
"594 644 LINE",
"343 644 LINE",
"-41 0 LINE"
);
},
{
closed = 1;
nodes = (
"425 408 LINE",
"448 285 LINE",
"350 285 LINE"
);
}
);
width = 777;
}
);
leftKerningGroup = A;
note = A;
rightKerningGroup = A;
unicode = 0041;
},
{
glyphname = Aacute;
lastChange = "2015-11-26 10:59:35 +0000";
layers = (
{
layerId = "098F4D9A-293F-4750-B0F4-D0E702B92EEF";
name = "Bold Italic";
paths = (
{
closed = 1;
nodes = (
"218 0 LINE",
"289 120 LINE",
"445 120 LINE",
"466 0 LINE",
"706 0 LINE",
"594 644 LINE",
"343 644 LINE",
"-41 0 LINE"
);
},
{
closed = 1;
nodes = (
"425 408 LINE",
"448 285 LINE",
"350 285 LINE"
);
},
{
closed = 1;
nodes = (
"563 688 LINE",
"716 914 LINE",
"530 914 LINE",
"386 688 LINE"
);
}
);
width = 777;
}
);
leftKerningGroup = A;
note = Aacute;
rightKerningGroup = A;
unicode = 00C1;
},
{
glyphname = Abreve;
lastChange = "2015-11-26 10:59:35 +0000";
layers = (
{
layerId = "098F4D9A-293F-4750-B0F4-D0E702B92EEF";
name = "Bold Italic";
paths = (
{
closed = 1;
nodes = (
"218 0 LINE",
"289 120 LINE",
"445 120 LINE",
"466 0 LINE",
"706 0 LINE",
"594 644 LINE",
"343 644 LINE",
"-41 0 LINE"
);
},
{
closed = 1;
nodes = (
"425 408 LINE",
"448 285 LINE",
"350 285 LINE"
);
},
{
closed = 1;
nodes = (
"611 688 OFFCURVE",
"714 765 OFFCURVE",
"745 908 CURVE",
"583 908 LINE",
"573 863 OFFCURVE",
"549 820 OFFCURVE",
"498 820 CURVE SMOOTH",
"461 820 OFFCURVE",
"448 844 OFFCURVE",
"448 875 CURVE SMOOTH",
"448 885 OFFCURVE",
"449 897 OFFCURVE",
"452 908 CURVE",
"305 908 LINE",
"300 886 OFFCURVE",
"298 865 OFFCURVE",
"298 846 CURVE SMOOTH",
"298 743 OFFCURVE",
"366 688 OFFCURVE",
"477 688 CURVE SMOOTH"
);
}
);
width = 777;
}
);
leftKerningGroup = A;
note = Abreve;
rightKerningGroup = A;
unicode = 0102;
},
{
glyphname = Abreveacute;
lastChange = "2015-11-26 10:59:35 +0000";
layers = (
{
layerId = "098F4D9A-293F-4750-B0F4-D0E702B92EEF";
name = "Bold Italic";
paths = (
{
closed = 1;
nodes = (
"218 0 LINE",
"289 120 LINE",
"445 120 LINE",
"466 0 LINE",
"706 0 LINE",
"594 644 LINE",
"343 644 LINE",
"-41 0 LINE"
);
},
{
closed = 1;
nodes = (
"425 408 LINE",
"448 285 LINE",
"350 285 LINE"
);
},
{
closed = 1;
nodes = (
"600 688 OFFCURVE",
"690 747 OFFCURVE",
"718 876 CURVE",
"577 876 LINE",
"568 836 OFFCURVE",
"548 805 OFFCURVE",
"496 805 CURVE SMOOTH",
"460 805 OFFCURVE",
"444 821 OFFCURVE",
"444 850 CURVE SMOOTH",
"444 857 OFFCURVE",
"446 866 OFFCURVE",
"448 876 CURVE",
"321 876 LINE",
"317 858 OFFCURVE",
"315 841 OFFCURVE",
"315 825 CURVE SMOOTH",
"315 732 OFFCURVE",
"385 688 OFFCURVE",
"479 688 CURVE SMOOTH"
);
},
{
closed = 1;
nodes = (
"603 895 LINE",
"721 1067 LINE",
"566 1067 LINE",
"455 895 LINE"
);
}
);
width = 777;
}
);
leftKerningGroup = A;
note = Abreveacute;
rightKerningGroup = A;
unicode = 1EAE;
},
{
glyphname = Abrevedotbelow;
lastChange = "2015-11-26 10:59:36 +0000";
layers = (
{
layerId = "098F4D9A-293F-4750-B0F4-D0E702B92EEF";
name = "Bold Italic";
paths = (
{
closed = 1;
nodes = (
"218 0 LINE",
"289 120 LINE",
"445 120 LINE",
"466 0 LINE",
"706 0 LINE",
"594 644 LINE",
"343 644 LINE",
"-41 0 LINE"
);
},
{
closed = 1;
nodes = (
"365 -213 LINE",
"395 -72 LINE",
"239 -72 LINE",
"209 -213 LINE"
);
},
{
closed = 1;
nodes = (
"425 408 LINE",
"448 285 LINE",
"350 285 LINE"
);
},
{
closed = 1;
nodes = (
"611 688 OFFCURVE",
"714 765 OFFCURVE",
"745 908 CURVE",
"583 908 LINE",
"573 863 OFFCURVE",
"549 820 OFFCURVE",
"498 820 CURVE SMOOTH",
"461 820 OFFCURVE",
"448 844 OFFCURVE",
"448 875 CURVE SMOOTH",
"448 885 OFFCURVE",
"449 897 OFFCURVE",
"452 908 CURVE",
"305 908 LINE",
"300 886 OFFCURVE",
"298 865 OFFCURVE",
"298 846 CURVE SMOOTH",
"298 743 OFFCURVE",
"366 688 OFFCURVE",
"477 688 CURVE SMOOTH"
);
}
);
width = 777;
}
);
leftKerningGroup = A;
note = Abrevedotbelow;
rightKerningGroup = A;
unicode = 1EB6;
},
{
glyphname = Abrevegrave;
lastChange = "2015-11-26 10:59:36 +0000";
layers = (
{
layerId = "098F4D9A-293F-4750-B0F4-D0E702B92EEF";
name = "Bold Italic";
paths = (
{
closed = 1;
nodes = (
"218 0 LINE",
"289 120 LINE",
"445 120 LINE",
"466 0 LINE",
"706 0 LINE",
"594 644 LINE",
"343 644 LINE",
"-41 0 LINE"
);
},
{
closed = 1;
nodes = (
"425 408 LINE",
"448 285 LINE",
"350 285 LINE"
);
},
{
closed = 1;
nodes = (
"600 688 OFFCURVE",
"690 747 OFFCURVE",
"718 876 CURVE",
"577 876 LINE",
"568 836 OFFCURVE",
"548 805 OFFCURVE",
"496 805 CURVE SMOOTH",
"460 805 OFFCURVE",
"444 821 OFFCURVE",
"444 850 CURVE SMOOTH",
"444 857 OFFCURVE",
"446 866 OFFCURVE",
"448 876 CURVE",
"321 876 LINE",
"317 858 OFFCURVE",
"315 841 OFFCURVE",
"315 825 CURVE SMOOTH",
"315 732 OFFCURVE",
"385 688 OFFCURVE",
"479 688 CURVE SMOOTH"
);
},
{
closed = 1;
nodes = (
"592 895 LINE",
"553 1067 LINE",
"397 1067 LINE",
"444 895 LINE"
);
}
);
width = 777;
}
);
leftKerningGroup = A;
note = Abrevegrave;
rightKerningGroup = A;
unicode = 1EB0;
},
{
glyphname = Abrevehookabove;
lastChange = "2015-11-26 10:59:35 +0000";
layers = (
{
layerId = "098F4D9A-293F-4750-B0F4-D0E702B92EEF";
name = "Bold Italic";
paths = (
{
closed = 1;
nodes = (
"218 0 LINE",
"289 120 LINE",
"445 120 LINE",
"466 0 LINE",
"706 0 LINE",
"594 644 LINE",
"343 644 LINE",
"-41 0 LINE"
);
},
{
closed = 1;
nodes = (
"425 408 LINE",
"448 285 LINE",
"350 285 LINE"
);
},
{
closed = 1;
nodes = (
"600 688 OFFCURVE",
"690 747 OFFCURVE",
"718 876 CURVE",
"577 876 LINE",
"568 836 OFFCURVE",
"548 805 OFFCURVE",
"496 805 CURVE SMOOTH",
"460 805 OFFCURVE",
"444 821 OFFCURVE",
"444 850 CURVE SMOOTH",
"444 857 OFFCURVE",
"446 866 OFFCURVE",
"448 876 CURVE",
"321 876 LINE",
"317 858 OFFCURVE",
"315 841 OFFCURVE",
"315 825 CURVE SMOOTH",
"315 732 OFFCURVE",
"385 688 OFFCURVE",
"479 688 CURVE SMOOTH"
);
},
{
closed = 1;
nodes = (
"601 896 LINE",
"607 923 LINE",
"661 939 OFFCURVE",
"685 963 OFFCURVE",
"695 1009 CURVE SMOOTH",
"696 1015 OFFCURVE",
"697 1020 OFFCURVE",
"697 1026 CURVE SMOOTH",
"697 1069 OFFCURVE",
"659 1101 OFFCURVE",
"585 1101 CURVE SMOOTH",
"543 1101 OFFCURVE",
"495 1095 OFFCURVE",
"467 1088 CURVE",
"449 1006 LINE",
"463 1011 OFFCURVE",
"483 1017 OFFCURVE",
"500 1017 CURVE SMOOTH",
"526 1017 OFFCURVE",
"539 1013 OFFCURVE",
"539 998 CURVE SMOOTH",
"539 977 OFFCURVE",
"515 961 OFFCURVE",
"457 959 CURVE",
"444 896 LINE"
);
}
);
width = 777;
}
);
leftKerningGroup = A;
note = Abrevehookabove;
rightKerningGroup = A;
unicode = 1EB2;
},
{
glyphname = Abrevetilde;
lastChange = "2015-11-26 10:59:35 +0000";
layers = (
{
layerId = "098F4D9A-293F-4750-B0F4-D0E702B92EEF";
name = "Bold Italic";
paths = (
{
closed = 1;
nodes = (
"218 0 LINE",
"289 120 LINE",
"445 120 LINE",
"466 0 LINE",
"706 0 LINE",
"594 644 LINE",
"343 644 LINE",
"-41 0 LINE"
);
},
{
closed = 1;
nodes = (
"425 408 LINE",
"448 285 LINE",
"350 285 LINE"
);
},
{
closed = 1;
nodes = (
"600 688 OFFCURVE",
"690 747 OFFCURVE",
"718 876 CURVE",
"577 876 LINE",
"568 836 OFFCURVE",
"548 805 OFFCURVE",
"496 805 CURVE SMOOTH",
"460 805 OFFCURVE",
"444 821 OFFCURVE",
"444 850 CURVE SMOOTH",
"444 857 OFFCURVE",
"446 866 OFFCURVE",
"448 876 CURVE",
"321 876 LINE",
"317 858 OFFCURVE",
"315 841 OFFCURVE",
"315 825 CURVE SMOOTH",
"315 732 OFFCURVE",
"385 688 OFFCURVE",
"479 688 CURVE SMOOTH"
);
},
{
closed = 1;
nodes = (
"667 901 OFFCURVE",
"709 917 OFFCURVE",
"724 934 CURVE",
"750 1059 LINE",
"731 1038 OFFCURVE",
"693 1020 OFFCURVE",
"649 1020 CURVE SMOOTH",
"584 1020 OFFCURVE",
"536 1062 OFFCURVE",
"466 1062 CURVE SMOOTH",
"426 1062 OFFCURVE",
"385 1046 OFFCURVE",
"362 1029 CURVE",
"336 904 LINE",
"363 927 OFFCURVE",
"400 943 OFFCURVE",
"444 943 CURVE SMOOTH",
"503 943 OFFCURVE",
"559 901 OFFCURVE",
"627 901 CURVE SMOOTH"
);
}
);
width = 777;
}
);
leftKerningGroup = A;
note = Abrevetilde;
rightKerningGroup = A;
unicode = 1EB4;
},
{
glyphname = Acaron;
lastChange = "2015-11-26 10:59:35 +0000";
layers = (
{
layerId = "098F4D9A-293F-4750-B0F4-D0E702B92EEF";
name = "Bold Italic";
paths = (
{
closed = 1;
nodes = (
"218 0 LINE",
"289 120 LINE",
"445 120 LINE",
"466 0 LINE",
"706 0 LINE",
"594 644 LINE",
"343 644 LINE",
"-41 0 LINE"
);
},
{
closed = 1;
nodes = (
"425 408 LINE",
"448 285 LINE",
"350 285 LINE"
);
},
{
closed = 1;
nodes = (
"548 688 LINE",
"769 904 LINE",
"594 904 LINE",
"495 797 LINE",
"444 904 LINE",
"279 904 LINE",
"408 688 LINE"
);
}
);
width = 777;
}
);
leftKerningGroup = A;
note = Acaron;
rightKerningGroup = A;
unicode = 01CD;
},
{
glyphname = Acircumflex;
lastChange = "2015-11-26 10:59:34 +0000";
layers = (
{
layerId = "098F4D9A-293F-4750-B0F4-D0E702B92EEF";
name = "Bold Italic";
paths = (
{
closed = 1;
nodes = (
"218 0 LINE",
"289 120 LINE",
"445 120 LINE",
"466 0 LINE",
"706 0 LINE",
"594 644 LINE",
"343 644 LINE",
"-41 0 LINE"
);
},
{
closed = 1;
nodes = (
"425 408 LINE",
"448 285 LINE",
"350 285 LINE"
);
},
{
closed = 1;
nodes = (
"413 688 LINE",
"508 795 LINE",
"562 688 LINE",
"723 688 LINE",
"594 904 LINE",
"453 904 LINE",
"233 688 LINE"
);
}
);
width = 777;
}
);
leftKerningGroup = A;
note = Acircumflex;
rightKerningGroup = A;
unicode = 00C2;
},
{
glyphname = Acircumflexacute;
lastChange = "2015-11-26 10:59:36 +0000";
layers = (
{
layerId = "098F4D9A-293F-4750-B0F4-D0E702B92EEF";
name = "Bold Italic";
paths = (
{
closed = 1;
nodes = (
"218 0 LINE",
"289 120 LINE",
"445 120 LINE",
"466 0 LINE",
"706 0 LINE",
"594 644 LINE",
"343 644 LINE",
"-41 0 LINE"
);
},
{
closed = 1;
nodes = (
"425 408 LINE",
"448 285 LINE",
"350 285 LINE"
);
},
{
closed = 1;
nodes = (
"426 688 LINE",
"495 764 LINE",
"535 688 LINE",
"716 688 LINE",
"595 856 LINE",
"420 856 LINE",
"226 688 LINE"
);
},
{
closed = 1;
nodes = (
"810 820 LINE",
"930 992 LINE",
"754 992 LINE",
"643 820 LINE"
);
}
);
width = 777;
}
);
leftKerningGroup = A;
note = Acircumflexacute;
rightKerningGroup = A;
unicode = 1EA4;
},
{
glyphname = Acircumflexdotbelow;
lastChange = "2015-11-26 10:59:34 +0000";
layers = (
{
layerId = "098F4D9A-293F-4750-B0F4-D0E702B92EEF";
name = "Bold Italic";
paths = (
{
closed = 1;
nodes = (
"225 0 LINE",
"296 120 LINE",
"452 120 LINE",
"473 0 LINE",
"713 0 LINE",
"601 644 LINE",
"350 644 LINE",
"-34 0 LINE"
);
},
{
closed = 1;
nodes = (
"372 -213 LINE",
"402 -72 LINE",
"246 -72 LINE",
"216 -213 LINE"
);
},
{
closed = 1;
nodes = (
"432 408 LINE",
"455 285 LINE",
"357 285 LINE"
);
},
{
closed = 1;
nodes = (
"421 688 LINE",
"516 795 LINE",
"570 688 LINE",
"731 688 LINE",
"602 904 LINE",
"461 904 LINE",
"241 688 LINE"
);
}
);
width = 784;
}
);
leftKerningGroup = A;
note = Acircumflexdotbelow;
rightKerningGroup = A;
unicode = 1EAC;
},
{
glyphname = Acircumflexgrave;
lastChange = "2015-11-26 10:59:34 +0000";
layers = (
{
layerId = "098F4D9A-293F-4750-B0F4-D0E702B92EEF";
name = "Bold Italic";
paths = (
{
closed = 1;
nodes = (
"218 0 LINE",
"289 120 LINE",
"445 120 LINE",
"466 0 LINE",
"706 0 LINE",
"594 644 LINE",
"343 644 LINE",
"-41 0 LINE"
);
},
{
closed = 1;
nodes = (
"425 408 LINE",
"448 285 LINE",
"350 285 LINE"
);
},
{
closed = 1;
nodes = (
"364 820 LINE",
"326 992 LINE",
"150 992 LINE",
"196 820 LINE"
);
},
{
closed = 1;
nodes = (
"430 688 LINE",
"502 764 LINE",
"539 688 LINE",
"724 688 LINE",
"603 856 LINE",
"428 856 LINE",
"234 688 LINE"
);
}
);
width = 777;
}
);
leftKerningGroup = A;
note = Acircumflexgrave;
rightKerningGroup = A;
unicode = 1EA6;
},
{
glyphname = Acircumflexhookabove;
lastChange = "2015-11-26 10:59:35 +0000";
layers = (
{
layerId = "098F4D9A-293F-4750-B0F4-D0E702B92EEF";
name = "Bold Italic";
paths = (
{
closed = 1;
nodes = (
"218 0 LINE",
"289 120 LINE",
"445 120 LINE",
"466 0 LINE",
"706 0 LINE",
"594 644 LINE",
"343 644 LINE",
"-41 0 LINE"
);
},
{
closed = 1;
nodes = (
"425 408 LINE",
"448 285 LINE",
"350 285 LINE"
);
},
{
closed = 1;
nodes = (
"430 688 LINE",
"499 764 LINE",
"539 688 LINE",
"720 688 LINE",
"599 856 LINE",
"424 856 LINE",
"230 688 LINE"
);
},
{
closed = 1;
nodes = (
"809 797 LINE",
"816 828 LINE",
"866 837 OFFCURVE",
"895 871 OFFCURVE",
"905 917 CURVE SMOOTH",
"906 922 OFFCURVE",
"907 928 OFFCURVE",
"907 933 CURVE SMOOTH",
"907 976 OFFCURVE",
"869 1009 OFFCURVE",
"795 1009 CURVE SMOOTH",
"745 1009 OFFCURVE",
"705 1004 OFFCURVE",
"678 997 CURVE",
"658 905 LINE",
"672 910 OFFCURVE",
"691 915 OFFCURVE",
"707 915 CURVE SMOOTH",
"727 915 OFFCURVE",
"738 913 OFFCURVE",
"738 903 CURVE SMOOTH",
"738 890 OFFCURVE",
"726 879 OFFCURVE",
"670 877 CURVE",
"653 797 LINE"
);
}
);
width = 777;
}
);
leftKerningGroup = A;
note = Acircumflexhookabove;
rightKerningGroup = A;
unicode = 1EA8;
},
{
glyphname = Acircumflextilde;
lastChange = "2015-11-26 10:59:34 +0000";
layers = (
{
layerId = "098F4D9A-293F-4750-B0F4-D0E702B92EEF";
name = "Bold Italic";
paths = (
{
closed = 1;
nodes = (
"218 0 LINE",
"289 120 LINE",
"445 120 LINE",
"466 0 LINE",
"706 0 LINE",
"594 644 LINE",
"343 644 LINE",
"-41 0 LINE"
);
},
{
closed = 1;
nodes = (
"425 408 LINE",
"448 285 LINE",
"350 285 LINE"
);
},
{
closed = 1;
nodes = (
"433 688 LINE",
"502 764 LINE",
"542 688 LINE",
"723 688 LINE",
"602 856 LINE",
"427 856 LINE",
"233 688 LINE"
);
},
{
closed = 1;
nodes = (
"665 871 OFFCURVE",
"706 887 OFFCURVE",
"722 904 CURVE",
"751 1039 LINE",
"731 1018 OFFCURVE",
"693 1000 OFFCURVE",
"649 1000 CURVE SMOOTH",
"584 1000 OFFCURVE",
"536 1042 OFFCURVE",
"466 1042 CURVE SMOOTH",
"426 1042 OFFCURVE",
"385 1026 OFFCURVE",
"362 1009 CURVE",
"334 874 LINE",
"361 897 OFFCURVE",
"398 913 OFFCURVE",
"442 913 CURVE SMOOTH",
"501 913 OFFCURVE",
"557 871 OFFCURVE",
"625 871 CURVE SMOOTH"
);
}
);
width = 777;
}
);
leftKerningGroup = A;
note = Acircumflextilde;
rightKerningGroup = A;
unicode = 1EAA;
},
{
glyphname = Adieresis;
lastChange = "2015-11-26 10:59:35 +0000";
layers = (
{
layerId = "098F4D9A-293F-4750-B0F4-D0E702B92EEF";
name = "Bold Italic";
paths = (
{
closed = 1;
nodes = (
"218 0 LINE",
"289 120 LINE",
"445 120 LINE",
"466 0 LINE",
"706 0 LINE",
"594 644 LINE",
"343 644 LINE",
"-41 0 LINE"
);
},
{
closed = 1;
nodes = (
"425 408 LINE",
"448 285 LINE",
"350 285 LINE"
);
},
{
closed = 1;
nodes = (
"444 717 LINE",
"474 858 LINE",
"319 858 LINE",
"289 717 LINE"
);
},
{
closed = 1;
nodes = (
"679 717 LINE",
"709 858 LINE",
"553 858 LINE",
"523 717 LINE"
);
}
);
width = 777;
}
);
leftKerningGroup = A;
note = Adieresis;
rightKerningGroup = A;
unicode = 00C4;
},
{
glyphname = Adotbelow;
lastChange = "2015-11-26 10:59:36 +0000";
layers = (
{
layerId = "098F4D9A-293F-4750-B0F4-D0E702B92EEF";
name = "Bold Italic";
paths = (
{
closed = 1;
nodes = (
"218 0 LINE",
"289 120 LINE",
"445 120 LINE",
"466 0 LINE",
"706 0 LINE",
"594 644 LINE",
"343 644 LINE",
"-41 0 LINE"
);
},
{
closed = 1;
nodes = (
"366 -213 LINE",
"396 -72 LINE",
"240 -72 LINE",
"210 -213 LINE"
);
},
{
closed = 1;
nodes = (
"425 408 LINE",
"448 285 LINE",
"350 285 LINE"
);
}
);
width = 777;
}
);
note = Adotbelow;
unicode = 1EA0;
},
{
glyphname = Agrave;
lastChange = "2015-11-26 10:59:34 +0000";
layers = (
{
layerId = "098F4D9A-293F-4750-B0F4-D0E702B92EEF";
name = "Bold Italic";
paths = (
{
closed = 1;
nodes = (
"218 0 LINE",
"289 120 LINE",
"445 120 LINE",
"466 0 LINE",
"706 0 LINE",
"594 644 LINE",
"343 644 LINE",
"-41 0 LINE"
);
},
{
closed = 1;
nodes = (
"425 408 LINE",
"448 285 LINE",
"350 285 LINE"
);
},
{
closed = 1;
nodes = (
"564 688 LINE",
"516 914 LINE",
"330 914 LINE",
"387 688 LINE"
);
}
);
width = 777;
}
);
leftKerningGroup = A;
note = Agrave;
rightKerningGroup = A;
unicode = 00C0;
},
{
glyphname = Ahookabove;
lastChange = "2015-11-26 10:59:34 +0000";
layers = (
{
layerId = "098F4D9A-293F-4750-B0F4-D0E702B92EEF";
name = "Bold Italic";
paths = (
{
closed = 1;
nodes = (
"218 0 LINE",
"289 120 LINE",
"445 120 LINE",
"466 0 LINE",
"706 0 LINE",
"594 644 LINE",
"343 644 LINE",
"-41 0 LINE"
);
},
{
closed = 1;
nodes = (
"425 408 LINE",
"448 285 LINE",
"350 285 LINE"
);
},
{
closed = 1;
nodes = (
"572 688 LINE",
"580 724 LINE",
"641 742 OFFCURVE",
"671 768 OFFCURVE",
"684 828 CURVE SMOOTH",
"685 835 OFFCURVE",
"686 841 OFFCURVE",
"686 848 CURVE SMOOTH",
"686 898 OFFCURVE",
"641 935 OFFCURVE",
"555 935 CURVE SMOOTH",
"497 935 OFFCURVE",
"456 929 OFFCURVE",
"422 920 CURVE",
"402 826 LINE",
"419 832 OFFCURVE",
"440 836 OFFCURVE",
"460 836 CURVE SMOOTH",
"494 836 OFFCURVE",
"509 828 OFFCURVE",
"504 808 CURVE",
"500 788 OFFCURVE",
"477 773 OFFCURVE",
"411 769 CURVE",
"394 688 LINE"
);
}
);
width = 777;
}
);
leftKerningGroup = A;
note = Ahookabove;
rightKerningGroup = A;
unicode = 1EA2;
},
{
glyphname = Amacron;
lastChange = "2015-11-26 10:59:34 +0000";
layers = (
{
layerId = "098F4D9A-293F-4750-B0F4-D0E702B92EEF";
name = "Bold Italic";
paths = (
{
closed = 1;
nodes = (
"218 0 LINE",
"289 120 LINE",
"445 120 LINE",
"466 0 LINE",
"706 0 LINE",
"594 644 LINE",
"343 644 LINE",
"-41 0 LINE"
);
},
{
closed = 1;
nodes = (
"425 408 LINE",
"448 285 LINE",
"350 285 LINE"
);
},
{
closed = 1;
nodes = (
"654 698 LINE",
"684 838 LINE",
"336 838 LINE",
"306 698 LINE"
);
}
);
width = 777;
}
);
leftKerningGroup = A;
note = Amacron;
rightKerningGroup = A;
unicode = 0100;
},
{
glyphname = Aogonek;
lastChange = "2015-11-26 10:59:34 +0000";
layers = (
{
layerId = "098F4D9A-293F-4750-B0F4-D0E702B92EEF";
name = "Bold Italic";
paths = (
{
closed = 1;
nodes = (
"218 0 LINE",
"289 120 LINE",
"445 120 LINE",
"466 0 LINE",
"706 0 LINE",
"594 644 LINE",
"343 644 LINE",
"-41 0 LINE"
);
},
{
closed = 1;
nodes = (
"579 -220 OFFCURVE",
"627 -210 OFFCURVE",
"652 -202 CURVE",
"674 -96 LINE",
"661 -103 OFFCURVE",
"638 -107 OFFCURVE",
"621 -107 CURVE SMOOTH",
"596 -107 OFFCURVE",
"580 -102 OFFCURVE",
"580 -84 CURVE SMOOTH",
"580 -82 OFFCURVE",
"580 -79 OFFCURVE",
"581 -76 CURVE",
"588 -47 OFFCURVE",
"613 -21 OFFCURVE",
"646 0 CURVE",
"502 0 LINE",
"450 -26 OFFCURVE",
"400 -76 OFFCURVE",
"400 -140 CURVE SMOOTH",
"400 -195 OFFCURVE",
"449 -220 OFFCURVE",
"529 -220 CURVE SMOOTH"
);
},
{
closed = 1;
nodes = (
"425 408 LINE",
"448 285 LINE",
"350 285 LINE"
);
}
);
width = 777;
}
);
leftKerningGroup = A;
note = Aogonek;
rightKerningGroup = A;
unicode = 0104;
},
{
glyphname = Aring;
lastChange = "2015-11-26 10:59:34 +0000";
layers = (
{
layerId = "098F4D9A-293F-4750-B0F4-D0E702B92EEF";
name = "Bold Italic";
paths = (
{
closed = 1;
nodes = (
"218 0 LINE",
"289 120 LINE",
"445 120 LINE",
"466 0 LINE",
"706 0 LINE",
"594 643 LINE",
"617 667 OFFCURVE",
"633 697 OFFCURVE",
"640 731 CURVE SMOOTH",
"642 742 OFFCURVE",
"644 753 OFFCURVE",
"644 764 CURVE SMOOTH",
"644 828 OFFCURVE",
"599 875 OFFCURVE",
"517 875 CURVE SMOOTH",
"416 875 OFFCURVE",
"351 812 OFFCURVE",
"334 731 CURVE SMOOTH",
"332 719 OFFCURVE",
"330 708 OFFCURVE",
"330 698 CURVE SMOOTH",
"330 678 OFFCURVE",
"335 660 OFFCURVE",
"343 644 CURVE",
"-41 0 LINE"
);
},
{
closed = 1;
nodes = (
"425 408 LINE",
"448 285 LINE",
"350 285 LINE"
);
},
{
closed = 1;
nodes = (
"444 680 OFFCURVE",
"431 697 OFFCURVE",
"431 718 CURVE SMOOTH",
"431 750 OFFCURVE",
"454 782 OFFCURVE",
"497 782 CURVE SMOOTH",
"528 782 OFFCURVE",
"541 765 OFFCURVE",
"541 744 CURVE SMOOTH",
"541 712 OFFCURVE",
"518 680 OFFCURVE",
"475 680 CURVE SMOOTH"
);
}
);
width = 777;
}
);
leftKerningGroup = A;
note = Aring;
rightKerningGroup = A;
unicode = 00C5;
},
{
glyphname = Aringacute;
lastChange = "2015-11-26 10:59:34 +0000";
layers = (
{
layerId = "098F4D9A-293F-4750-B0F4-D0E702B92EEF";
name = "Bold Italic";
paths = (
{
closed = 1;
nodes = (
"218 0 LINE",
"289 120 LINE",
"445 120 LINE",
"466 0 LINE",
"706 0 LINE",
"594 644 LINE",
"343 644 LINE",
"-41 0 LINE"
);
},
{
closed = 1;
nodes = (
"425 408 LINE",
"448 285 LINE",
"350 285 LINE"
);
},
{
closed = 1;
nodes = (
"557 588 OFFCURVE",
"623 651 OFFCURVE",
"640 731 CURVE SMOOTH",
"642 742 OFFCURVE",
"644 753 OFFCURVE",
"644 764 CURVE SMOOTH",
"644 828 OFFCURVE",
"599 875 OFFCURVE",
"517 875 CURVE SMOOTH",
"416 875 OFFCURVE",
"351 812 OFFCURVE",
"334 731 CURVE SMOOTH",
"332 720 OFFCURVE",
"331 709 OFFCURVE",
"331 699 CURVE SMOOTH",
"331 635 OFFCURVE",
"376 588 OFFCURVE",
"456 588 CURVE SMOOTH"
);
},
{
closed = 1;
nodes = (
"444 680 OFFCURVE",
"431 697 OFFCURVE",
"431 718 CURVE SMOOTH",
"431 750 OFFCURVE",
"454 782 OFFCURVE",
"497 782 CURVE SMOOTH",
"528 782 OFFCURVE",
"541 765 OFFCURVE",
"541 744 CURVE SMOOTH",
"541 712 OFFCURVE",
"518 680 OFFCURVE",
"475 680 CURVE SMOOTH"
);
},
{
closed = 1;
nodes = (
"629 907 LINE",
"782 1087 LINE",
"596 1087 LINE",
"452 907 LINE"
);
}
);
width = 777;
}
);
leftKerningGroup = A;
note = Aringacute;
rightKerningGroup = A;
unicode = 01FA;
},
{
glyphname = Atilde;
lastChange = "2015-11-26 10:59:35 +0000";
layers = (
{
layerId = "098F4D9A-293F-4750-B0F4-D0E702B92EEF";
name = "Bold Italic";
paths = (
{
closed = 1;
nodes = (
"218 0 LINE",
"289 120 LINE",
"445 120 LINE",
"466 0 LINE",
"706 0 LINE",
"594 644 LINE",
"343 644 LINE",
"-41 0 LINE"
);
},
{
closed = 1;
nodes = (
"425 408 LINE",
"448 285 LINE",
"350 285 LINE"
);
},
{
closed = 1;
nodes = (
"628 693 OFFCURVE",
"671 710 OFFCURVE",
"688 728 CURVE",
"718 869 LINE",
"697 847 OFFCURVE",
"657 828 OFFCURVE",
"611 828 CURVE SMOOTH",
"542 828 OFFCURVE",
"493 872 OFFCURVE",
"420 872 CURVE SMOOTH",
"378 872 OFFCURVE",
"334 855 OFFCURVE",
"310 837 CURVE",
"280 696 LINE",
"309 720 OFFCURVE",
"348 737 OFFCURVE",
"394 737 CURVE SMOOTH",
"455 737 OFFCURVE",
"514 693 OFFCURVE",
"586 693 CURVE SMOOTH"
);
}
);
width = 777;
}
);
leftKerningGroup = A;
note = Atilde;
rightKerningGroup = A;
unicode = 00C3;
},
{
glyphname = AE;
lastChange = "2015-11-26 10:59:35 +0000";
layers = (
{
layerId = "098F4D9A-293F-4750-B0F4-D0E702B92EEF";
name = "Bold Italic";
paths = (
{
closed = 1;
nodes = (
"211 0 LINE",
"282 120 LINE",
"373 120 LINE",
"348 0 LINE",
"803 0 LINE",
"839 174 LINE",
"616 174 LINE",
"629 232 LINE",
"814 232 LINE",
"852 412 LINE",
"667 412 LINE",
"679 470 LINE",
"902 470 LINE",
"939 644 LINE",
"343 644 LINE",
"-41 0 LINE"
);
},
{
closed = 1;
nodes = (
"441 470 LINE",
"447 470 LINE",
"408 285 LINE",
"343 285 LINE"
);
}
);
width = 874;
}
);
leftKerningGroup = A;
note = AE;
rightKerningGroup = E;
unicode = 00C6;
},
{
glyphname = AEacute;
lastChange = "2015-11-26 10:59:35 +0000";
layers = (
{
layerId = "098F4D9A-293F-4750-B0F4-D0E702B92EEF";
name = "Bold Italic";
paths = (
{
closed = 1;
nodes = (
"211 0 LINE",
"282 120 LINE",
"373 120 LINE",
"348 0 LINE",
"803 0 LINE",
"839 174 LINE",
"616 174 LINE",
"629 232 LINE",
"814 232 LINE",
"852 412 LINE",
"667 412 LINE",
"679 470 LINE",
"902 470 LINE",
"939 644 LINE",
"343 644 LINE",
"-41 0 LINE"
);
},
{
closed = 1;
nodes = (
"441 470 LINE",
"447 470 LINE",
"408 285 LINE",
"343 285 LINE"
);
},
{
closed = 1;
nodes = (
"675 688 LINE",
"828 914 LINE",
"642 914 LINE",
"498 688 LINE"
);
}
);
width = 874;
}
);
leftKerningGroup = A;
note = AEacute;
rightKerningGroup = E;
unicode = 01FC;
},
{
glyphname = B;
lastChange = "2015-11-26 10:59:34 +0000";
layers = (
{
layerId = "098F4D9A-293F-4750-B0F4-D0E702B92EEF";
name = "Bold Italic";
paths = (
{
closed = 1;
nodes = (
"365 0 LINE SMOOTH",
"524 0 OFFCURVE",
"606 74 OFFCURVE",
"632 195 CURVE SMOOTH",
"635 210 OFFCURVE",
"637 224 OFFCURVE",
"637 236 CURVE SMOOTH",
"637 283 OFFCURVE",
"614 307 OFFCURVE",
"578 326 CURVE",
"620 353 OFFCURVE",
"653 398 OFFCURVE",
"667 462 CURVE SMOOTH",
"670 475 OFFCURVE",
"671 487 OFFCURVE",
"671 499 CURVE SMOOTH",
"671 586 OFFCURVE",
"599 644 OFFCURVE",
"497 644 CURVE SMOOTH",
"115 644 LINE",
"-21 0 LINE"
);
},
{
closed = 1;
nodes = (
"258 247 LINE",
"348 247 LINE SMOOTH",
"375 247 OFFCURVE",
"388 236 OFFCURVE",
"388 218 CURVE SMOOTH",
"388 215 OFFCURVE",
"388 211 OFFCURVE",
"387 207 CURVE SMOOTH",
"381 178 OFFCURVE",
"362 164 OFFCURVE",
"330 164 CURVE SMOOTH",
"240 164 LINE"
);
},
{
closed = 1;
nodes = (
"308 480 LINE",
"398 480 LINE SMOOTH",
"425 480 OFFCURVE",
"438 469 OFFCURVE",
"438 450 CURVE SMOOTH",
"438 447 OFFCURVE",
"438 444 OFFCURVE",
"437 440 CURVE SMOOTH",
"431 411 OFFCURVE",
"412 397 OFFCURVE",
"380 397 CURVE SMOOTH",
"290 397 LINE"
);
}
);
width = 662;
}
);
note = B;
unicode = 0042;
},
{
glyphname = C;
lastChange = "2015-11-26 10:59:35 +0000";
layers = (
{
layerId = "098F4D9A-293F-4750-B0F4-D0E702B92EEF";
name = "Bold Italic";
paths = (
{
closed = 1;
nodes = (
"424 -10 OFFCURVE",
"486 3 OFFCURVE",
"552 25 CURVE",
"597 236 LINE",
"527 207 OFFCURVE",
"467 194 OFFCURVE",
"401 194 CURVE SMOOTH",
"312 194 OFFCURVE",
"269 215 OFFCURVE",
"269 278 CURVE SMOOTH",
"269 291 OFFCURVE",
"270 306 OFFCURVE",
"274 322 CURVE SMOOTH",
"295 419 OFFCURVE",
"351 450 OFFCURVE",
"453 450 CURVE SMOOTH",
"519 450 OFFCURVE",
"574 437 OFFCURVE",
"631 408 CURVE",
"676 619 LINE",
"620 641 OFFCURVE",
"564 654 OFFCURVE",
"481 654 CURVE SMOOTH",
"242 654 OFFCURVE",
"73 541 OFFCURVE",
"27 322 CURVE SMOOTH",
"21 292 OFFCURVE",
"18 265 OFFCURVE",
"18 239 CURVE SMOOTH",
"18 75 OFFCURVE",
"144 -10 OFFCURVE",
"341 -10 CURVE SMOOTH"
);
}
);
width = 618;
}
);
leftKerningGroup = C;
note = C;
unicode = 0043;
},
{
glyphname = Cacute;
lastChange = "2015-11-26 10:59:35 +0000";
layers = (
{
layerId = "098F4D9A-293F-4750-B0F4-D0E702B92EEF";
name = "Bold Italic";
paths = (
{
closed = 1;
nodes = (
"424 -10 OFFCURVE",
"486 3 OFFCURVE",
"552 25 CURVE",
"597 236 LINE",
"527 207 OFFCURVE",
"467 194 OFFCURVE",
"401 194 CURVE SMOOTH",
"312 194 OFFCURVE",
"269 215 OFFCURVE",
"269 278 CURVE SMOOTH",
"269 291 OFFCURVE",
"270 306 OFFCURVE",
"274 322 CURVE SMOOTH",
"295 419 OFFCURVE",
"351 450 OFFCURVE",
"453 450 CURVE SMOOTH",
"519 450 OFFCURVE",
"574 437 OFFCURVE",
"631 408 CURVE",
"676 619 LINE",
"620 641 OFFCURVE",
"564 654 OFFCURVE",
"481 654 CURVE SMOOTH",
"242 654 OFFCURVE",
"73 541 OFFCURVE",
"27 322 CURVE SMOOTH",
"21 292 OFFCURVE",
"18 265 OFFCURVE",
"18 239 CURVE SMOOTH",
"18 75 OFFCURVE",
"144 -10 OFFCURVE",
"341 -10 CURVE SMOOTH"
);
},
{
closed = 1;
nodes = (
"556 688 LINE",
"709 914 LINE",
"523 914 LINE",
"379 688 LINE"
);
}
);
width = 618;
}
);
leftKerningGroup = C;
note = Cacute;
unicode = 0106;
},
{
glyphname = Ccaron;
lastChange = "2015-11-26 10:59:35 +0000";
layers = (
{
layerId = "098F4D9A-293F-4750-B0F4-D0E702B92EEF";
name = "Bold Italic";
paths = (
{
closed = 1;
nodes = (
"424 -10 OFFCURVE",
"486 3 OFFCURVE",
"552 25 CURVE",
"597 236 LINE",
"527 207 OFFCURVE",
"467 194 OFFCURVE",
"401 194 CURVE SMOOTH",
"312 194 OFFCURVE",
"269 215 OFFCURVE",
"269 278 CURVE SMOOTH",
"269 291 OFFCURVE",
"270 306 OFFCURVE",
"274 322 CURVE SMOOTH",
"295 419 OFFCURVE",
"351 450 OFFCURVE",
"453 450 CURVE SMOOTH",
"519 450 OFFCURVE",
"574 437 OFFCURVE",
"631 408 CURVE",
"676 619 LINE",
"620 641 OFFCURVE",
"564 654 OFFCURVE",
"481 654 CURVE SMOOTH",
"242 654 OFFCURVE",
"73 541 OFFCURVE",
"27 322 CURVE SMOOTH",
"21 292 OFFCURVE",
"18 265 OFFCURVE",
"18 239 CURVE SMOOTH",
"18 75 OFFCURVE",
"144 -10 OFFCURVE",
"341 -10 CURVE SMOOTH"
);
},
{
closed = 1;
nodes = (
"544 688 LINE",
"765 904 LINE",
"590 904 LINE",
"491 797 LINE",
"440 904 LINE",
"275 904 LINE",
"404 688 LINE"
);
}
);
width = 618;
}
);
leftKerningGroup = C;
note = Ccaron;
unicode = 010C;
},
{
glyphname = Ccedilla;
lastChange = "2015-11-26 10:59:34 +0000";
layers = (
{
layerId = "098F4D9A-293F-4750-B0F4-D0E702B92EEF";
name = "Bold Italic";
paths = (
{
closed = 1;
nodes = (
"377 -240 OFFCURVE",
"443 -199 OFFCURVE",
"457 -133 CURVE SMOOTH",
"459 -126 OFFCURVE",
"459 -118 OFFCURVE",
"459 -111 CURVE SMOOTH",
"459 -68 OFFCURVE",
"428 -37 OFFCURVE",
"370 -37 CURVE",
"386 -8 LINE",
"447 -4 OFFCURVE",
"498 7 OFFCURVE",
"552 25 CURVE",
"597 236 LINE",
"527 207 OFFCURVE",
"467 194 OFFCURVE",
"401 194 CURVE SMOOTH",
"312 194 OFFCURVE",
"269 215 OFFCURVE",
"269 278 CURVE SMOOTH",
"269 291 OFFCURVE",
"270 306 OFFCURVE",
"274 322 CURVE SMOOTH",
"295 419 OFFCURVE",
"351 450 OFFCURVE",
"453 450 CURVE SMOOTH",
"519 450 OFFCURVE",
"574 437 OFFCURVE",
"631 408 CURVE",
"676 619 LINE",
"620 641 OFFCURVE",
"564 654 OFFCURVE",
"481 654 CURVE SMOOTH",
"242 654 OFFCURVE",
"73 541 OFFCURVE",
"27 322 CURVE SMOOTH",
"21 292 OFFCURVE",
"17 264 OFFCURVE",
"17 239 CURVE SMOOTH",
"17 95 OFFCURVE",
"113 14 OFFCURVE",
"267 -5 CURVE",
"221 -100 LINE",
"295 -100 LINE SMOOTH",
"317 -100 OFFCURVE",
"331 -107 OFFCURVE",
"326 -128 CURVE",
"322 -150 OFFCURVE",
"296 -163 OFFCURVE",
"252 -163 CURVE SMOOTH",
"233 -163 OFFCURVE",
"212 -160 OFFCURVE",
"196 -155 CURVE",
"179 -232 LINE",
"193 -236 OFFCURVE",
"240 -240 OFFCURVE",
"265 -240 CURVE SMOOTH"
);
}
);
width = 618;
}
);
leftKerningGroup = C;
note = Ccedilla;
unicode = 00C7;
},
{
glyphname = Ccircumflex;
lastChange = "2015-11-26 10:59:35 +0000";
layers = (
{
layerId = "098F4D9A-293F-4750-B0F4-D0E702B92EEF";
name = "Bold Italic";
paths = (
{
closed = 1;
nodes = (
"424 -10 OFFCURVE",
"486 3 OFFCURVE",
"552 25 CURVE",
"597 236 LINE",
"527 207 OFFCURVE",
"467 194 OFFCURVE",
"401 194 CURVE SMOOTH",
"312 194 OFFCURVE",
"269 215 OFFCURVE",
"269 278 CURVE SMOOTH",
"269 291 OFFCURVE",
"270 306 OFFCURVE",
"274 322 CURVE SMOOTH",
"295 419 OFFCURVE",
"351 450 OFFCURVE",
"453 450 CURVE SMOOTH",
"519 450 OFFCURVE",
"574 437 OFFCURVE",
"631 408 CURVE",
"676 619 LINE",
"620 641 OFFCURVE",
"564 654 OFFCURVE",
"481 654 CURVE SMOOTH",
"242 654 OFFCURVE",
"73 541 OFFCURVE",
"27 322 CURVE SMOOTH",
"21 292 OFFCURVE",
"18 265 OFFCURVE",
"18 239 CURVE SMOOTH",
"18 75 OFFCURVE",
"144 -10 OFFCURVE",
"341 -10 CURVE SMOOTH"
);
},
{
closed = 1;
nodes = (
"371 688 LINE",
"466 795 LINE",
"520 688 LINE",
"681 688 LINE",
"552 904 LINE",
"411 904 LINE",
"191 688 LINE"
);
}
);
width = 618;
}
);
leftKerningGroup = C;
note = Ccircumflex;
unicode = 0108;
},
{
glyphname = Cdotaccent;
lastChange = "2015-11-26 10:59:36 +0000";
layers = (
{
layerId = "098F4D9A-293F-4750-B0F4-D0E702B92EEF";
name = "Bold Italic";
paths = (
{
closed = 1;
nodes = (
"424 -10 OFFCURVE",
"486 3 OFFCURVE",
"552 25 CURVE",
"597 236 LINE",
"527 207 OFFCURVE",
"467 194 OFFCURVE",
"401 194 CURVE SMOOTH",
"312 194 OFFCURVE",
"269 215 OFFCURVE",
"269 278 CURVE SMOOTH",
"269 291 OFFCURVE",
"270 306 OFFCURVE",
"274 322 CURVE SMOOTH",
"295 419 OFFCURVE",
"351 450 OFFCURVE",
"453 450 CURVE SMOOTH",
"519 450 OFFCURVE",
"574 437 OFFCURVE",
"631 408 CURVE",
"676 619 LINE",
"620 641 OFFCURVE",
"564 654 OFFCURVE",
"481 654 CURVE SMOOTH",
"242 654 OFFCURVE",
"73 541 OFFCURVE",
"27 322 CURVE SMOOTH",
"21 292 OFFCURVE",
"18 265 OFFCURVE",
"18 239 CURVE SMOOTH",
"18 75 OFFCURVE",
"144 -10 OFFCURVE",
"341 -10 CURVE SMOOTH"
);
},
{
closed = 1;
nodes = (
"539 718 LINE",
"569 859 LINE",
"413 859 LINE",
"384 718 LINE"
);
}
);
width = 618;
}
);
leftKerningGroup = C;
note = Cdotaccent;
unicode = 010A;
},
{
glyphname = D;
lastChange = "2015-11-26 10:59:35 +0000";
layers = (
{
layerId = "098F4D9A-293F-4750-B0F4-D0E702B92EEF";
name = "Bold Italic";
paths = (
{
closed = 1;
nodes = (
"285 0 LINE SMOOTH",
"526 0 OFFCURVE",
"636 95 OFFCURVE",
"686 318 CURVE SMOOTH",
"692 347 OFFCURVE",
"696 374 OFFCURVE",
"696 399 CURVE SMOOTH",
"696 554 OFFCURVE",
"581 644 OFFCURVE",
"421 644 CURVE SMOOTH",
"115 644 LINE",
"-21 0 LINE"
);
},
{
closed = 1;
nodes = (
"315 446 LINE",
"351 446 LINE SMOOTH",
"418 446 OFFCURVE",
"448 437 OFFCURVE",
"448 382 CURVE SMOOTH",
"448 365 OFFCURVE",
"446 344 OFFCURVE",
"440 318 CURVE SMOOTH",
"416 206 OFFCURVE",
"375 184 OFFCURVE",
"296 184 CURVE SMOOTH",
"260 184 LINE"
);
}
);
width = 690;
}
);
note = D;
rightKerningGroup = D;
unicode = 0044;
},
{
glyphname = Eth;
lastChange = "2015-11-26 10:59:35 +0000";
layers = (
{
layerId = "098F4D9A-293F-4750-B0F4-D0E702B92EEF";
name = "Bold Italic";
paths = (
{
closed = 1;
nodes = (
"329 0 LINE SMOOTH",
"570 0 OFFCURVE",
"680 95 OFFCURVE",
"730 318 CURVE SMOOTH",
"736 347 OFFCURVE",
"740 374 OFFCURVE",
"740 399 CURVE SMOOTH",
"740 554 OFFCURVE",
"625 644 OFFCURVE",
"465 644 CURVE SMOOTH",
"159 644 LINE",
"106 392 LINE",
"52 392 LINE",
"19 238 LINE",
"73 238 LINE",
"23 0 LINE"
);
},
{
closed = 1;
nodes = (
"315 238 LINE",
"406 238 LINE",
"439 392 LINE",
"347 392 LINE",
"359 446 LINE",
"395 446 LINE SMOOTH",
"462 446 OFFCURVE",
"492 437 OFFCURVE",
"492 382 CURVE SMOOTH",
"492 365 OFFCURVE",
"490 344 OFFCURVE",
"484 318 CURVE SMOOTH",
"460 206 OFFCURVE",
"419 184 OFFCURVE",
"340 184 CURVE SMOOTH",
"304 184 LINE"
);
}
);
width = 734;
}
);
note = Eth;
rightKerningGroup = D;
unicode = 00D0;
},
{
glyphname = Dcaron;
lastChange = "2015-11-26 10:59:35 +0000";
layers = (
{
layerId = "098F4D9A-293F-4750-B0F4-D0E702B92EEF";
name = "Bold Italic";
paths = (
{
closed = 1;
nodes = (
"285 0 LINE SMOOTH",
"526 0 OFFCURVE",
"636 95 OFFCURVE",
"686 318 CURVE SMOOTH",
"692 347 OFFCURVE",
"696 374 OFFCURVE",
"696 399 CURVE SMOOTH",
"696 554 OFFCURVE",
"581 644 OFFCURVE",
"421 644 CURVE SMOOTH",
"115 644 LINE",
"-21 0 LINE"
);
},
{
closed = 1;
nodes = (
"315 446 LINE",
"351 446 LINE SMOOTH",
"418 446 OFFCURVE",
"448 437 OFFCURVE",
"448 382 CURVE SMOOTH",
"448 365 OFFCURVE",
"446 344 OFFCURVE",
"440 318 CURVE SMOOTH",
"416 206 OFFCURVE",
"375 184 OFFCURVE",
"296 184 CURVE SMOOTH",
"260 184 LINE"
);
},
{
closed = 1;
nodes = (
"466 688 LINE",
"687 904 LINE",
"512 904 LINE",
"413 797 LINE",
"362 904 LINE",
"197 904 LINE",
"326 688 LINE"
);
}
);
width = 690;
}
);
note = Dcaron;
rightKerningGroup = D;
unicode = 010E;
},
{
glyphname = Dcroat;
lastChange = "2015-11-26 10:59:35 +0000";
layers = (
{
layerId = "098F4D9A-293F-4750-B0F4-D0E702B92EEF";
name = "Bold Italic";
paths = (
{
closed = 1;
nodes = (
"325 0 LINE SMOOTH",
"566 0 OFFCURVE",
"676 95 OFFCURVE",
"726 318 CURVE SMOOTH",
"732 347 OFFCURVE",
"736 374 OFFCURVE",
"736 399 CURVE SMOOTH",
"736 554 OFFCURVE",
"621 644 OFFCURVE",
"461 644 CURVE SMOOTH",
"155 644 LINE",
"102 392 LINE",
"58 392 LINE",
"25 238 LINE",
"69 238 LINE",
"19 0 LINE"
);
},
{
closed = 1;
nodes = (
"311 238 LINE",
"412 238 LINE",
"445 392 LINE",
"343 392 LINE",
"355 446 LINE",
"391 446 LINE SMOOTH",
"458 446 OFFCURVE",
"488 437 OFFCURVE",
"488 382 CURVE SMOOTH",
"488 365 OFFCURVE",
"486 344 OFFCURVE",
"480 318 CURVE SMOOTH",
"456 206 OFFCURVE",
"415 184 OFFCURVE",
"336 184 CURVE SMOOTH",
"300 184 LINE"
);
}
);
width = 730;
}
);
note = Dcroat;
rightKerningGroup = D;
unicode = 0110;
},
{
glyphname = Ddotbelow;
lastChange = "2015-11-26 10:59:35 +0000";
layers = (
{
layerId = "098F4D9A-293F-4750-B0F4-D0E702B92EEF";
name = "Bold Italic";
paths = (
{
closed = 1;
nodes = (
"285 0 LINE SMOOTH",
"526 0 OFFCURVE",
"636 95 OFFCURVE",
"686 318 CURVE SMOOTH",
"692 347 OFFCURVE",
"696 374 OFFCURVE",
"696 399 CURVE SMOOTH",
"696 554 OFFCURVE",
"581 644 OFFCURVE",
"421 644 CURVE SMOOTH",
"115 644 LINE",
"-21 0 LINE"
);
},
{
closed = 1;
nodes = (
"285 -213 LINE",
"315 -72 LINE",
"159 -72 LINE",
"129 -213 LINE"
);
},
{
closed = 1;
nodes = (
"315 446 LINE",
"351 446 LINE SMOOTH",
"418 446 OFFCURVE",
"448 437 OFFCURVE",
"448 382 CURVE SMOOTH",
"448 365 OFFCURVE",
"446 344 OFFCURVE",
"440 318 CURVE SMOOTH",
"416 206 OFFCURVE",
"375 184 OFFCURVE",
"296 184 CURVE SMOOTH",
"260 184 LINE"
);
}
);
width = 690;
}
);
note = Ddotbelow;
rightKerningGroup = D;
unicode = 1E0C;
},
{
glyphname = Dlinebelow;
lastChange = "2015-11-26 10:59:36 +0000";
layers = (
{
layerId = "098F4D9A-293F-4750-B0F4-D0E702B92EEF";
name = "Bold Italic";
paths = (
{
closed = 1;
nodes = (
"285 0 LINE SMOOTH",
"526 0 OFFCURVE",
"636 95 OFFCURVE",
"686 318 CURVE SMOOTH",
"692 347 OFFCURVE",
"696 374 OFFCURVE",
"696 399 CURVE SMOOTH",
"696 554 OFFCURVE",
"581 644 OFFCURVE",
"421 644 CURVE SMOOTH",
"115 644 LINE",
"-21 0 LINE"
);
},
{
closed = 1;
nodes = (
"361 -202 LINE",
"391 -62 LINE",
"43 -62 LINE",
"13 -202 LINE"
);
},
{
closed = 1;
nodes = (
"315 446 LINE",
"351 446 LINE SMOOTH",
"418 446 OFFCURVE",
"448 437 OFFCURVE",
"448 382 CURVE SMOOTH",
"448 365 OFFCURVE",
"446 344 OFFCURVE",
"440 318 CURVE SMOOTH",
"416 206 OFFCURVE",
"375 184 OFFCURVE",
"296 184 CURVE SMOOTH",
"260 184 LINE"
);
}
);
width = 690;
}
);
note = Dlinebelow;
rightKerningGroup = D;
unicode = 1E0E;
},
{
glyphname = E;
lastChange = "2015-11-26 11:00:21 +0000";
layers = (
{
layerId = "098F4D9A-293F-4750-B0F4-D0E702B92EEF";
name = "Bold Italic";
paths = (
{
closed = 1;
nodes = (
"494 0 LINE",
"530 174 LINE",
"257 174 LINE",
"270 232 LINE",
"505 232 LINE",
"543 412 LINE",
"308 412 LINE",
"320 470 LINE",
"593 470 LINE",
"630 644 LINE",
"115 644 LINE",
"-21 0 LINE"
);
}
);
width = 557;
}
);
note = E;
unicode = 0045;
},
{
glyphname = Eacute;
lastChange = "2015-11-26 11:00:21 +0000";
layers = (
{
layerId = "098F4D9A-293F-4750-B0F4-D0E702B92EEF";
name = "Bold Italic";
paths = (
{
closed = 1;
nodes = (
"494 0 LINE",
"530 174 LINE",
"257 174 LINE",
"270 232 LINE",
"505 232 LINE",
"543 412 LINE",
"308 412 LINE",
"320 470 LINE",
"593 470 LINE",
"630 644 LINE",
"115 644 LINE",
"-21 0 LINE"
);
},
{
closed = 1;
nodes = (
"445 688 LINE",
"598 914 LINE",
"412 914 LINE",
"268 688 LINE"
);
}
);
width = 557;
}
);
note = Eacute;
unicode = 00C9;
},
{
glyphname = Ebreve;
lastChange = "2015-11-26 11:00:21 +0000";
layers = (
{
layerId = "098F4D9A-293F-4750-B0F4-D0E702B92EEF";
name = "Bold Italic";
paths = (
{
closed = 1;
nodes = (
"494 0 LINE",
"530 174 LINE",
"257 174 LINE",
"270 232 LINE",
"505 232 LINE",
"543 412 LINE",
"308 412 LINE",
"320 470 LINE",
"593 470 LINE",
"630 644 LINE",
"115 644 LINE",
"-21 0 LINE"
);
},
{
closed = 1;
nodes = (
"517 688 OFFCURVE",
"620 765 OFFCURVE",
"651 908 CURVE",
"489 908 LINE",
"479 863 OFFCURVE",
"455 820 OFFCURVE",
"404 820 CURVE SMOOTH",
"367 820 OFFCURVE",
"354 844 OFFCURVE",
"354 875 CURVE SMOOTH",
"354 885 OFFCURVE",
"355 897 OFFCURVE",
"358 908 CURVE",
"211 908 LINE",
"206 886 OFFCURVE",
"204 865 OFFCURVE",
"204 846 CURVE SMOOTH",
"204 743 OFFCURVE",
"272 688 OFFCURVE",
"383 688 CURVE SMOOTH"
);
}
);
width = 557;
}
);
note = Ebreve;
unicode = 0114;
},
{
glyphname = Ecaron;
lastChange = "2015-11-26 10:59:34 +0000";
layers = (
{
layerId = "098F4D9A-293F-4750-B0F4-D0E702B92EEF";
name = "Bold Italic";
paths = (
{
closed = 1;
nodes = (
"494 0 LINE",
"530 174 LINE",
"257 174 LINE",
"270 232 LINE",
"505 232 LINE",
"543 412 LINE",
"308 412 LINE",
"320 470 LINE",
"593 470 LINE",
"630 644 LINE",
"115 644 LINE",
"-21 0 LINE"
);
},
{
closed = 1;
nodes = (
"456 688 LINE",
"677 904 LINE",
"502 904 LINE",
"403 797 LINE",
"352 904 LINE",
"187 904 LINE",
"316 688 LINE"
);
}
);
width = 557;
}
);
note = Ecaron;
unicode = 011A;
},
{
glyphname = Ecircumflex;
lastChange = "2015-11-26 11:00:21 +0000";
layers = (
{
layerId = "098F4D9A-293F-4750-B0F4-D0E702B92EEF";
name = "Bold Italic";
paths = (
{
closed = 1;
nodes = (
"494 0 LINE",
"530 174 LINE",
"257 174 LINE",
"270 232 LINE",
"505 232 LINE",
"543 412 LINE",
"308 412 LINE",
"320 470 LINE",
"593 470 LINE",
"630 644 LINE",
"115 644 LINE",
"-21 0 LINE"
);
},
{
closed = 1;
nodes = (
"318 688 LINE",
"413 795 LINE",
"467 688 LINE",
"628 688 LINE",
"499 904 LINE",
"358 904 LINE",
"138 688 LINE"
);
}
);
width = 557;
}
);
note = Ecircumflex;
unicode = 00CA;
},
{
glyphname = Ecircumflexacute;
lastChange = "2015-11-26 11:00:21 +0000";
layers = (
{
layerId = "098F4D9A-293F-4750-B0F4-D0E702B92EEF";
name = "Bold Italic";
paths = (
{
closed = 1;
nodes = (
"494 0 LINE",
"530 174 LINE",
"257 174 LINE",
"270 232 LINE",
"505 232 LINE",
"543 412 LINE",
"308 412 LINE",
"320 470 LINE",
"593 470 LINE",
"630 644 LINE",
"115 644 LINE",
"-21 0 LINE"
);
},
{
closed = 1;
nodes = (
"343 688 LINE",
"412 764 LINE",
"452 688 LINE",
"633 688 LINE",
"512 856 LINE",
"337 856 LINE",
"143 688 LINE"
);
},
{
closed = 1;
nodes = (
"727 820 LINE",
"847 992 LINE",
"671 992 LINE",
"560 820 LINE"
);
}
);
width = 557;
}
);
note = Ecircumflexacute;
unicode = 1EBE;
},
{
glyphname = Ecircumflexdotbelow;
lastChange = "2015-11-26 11:00:21 +0000";
layers = (
{
layerId = "098F4D9A-293F-4750-B0F4-D0E702B92EEF";
name = "Bold Italic";
paths = (
{
closed = 1;
nodes = (
"494 0 LINE",
"530 174 LINE",
"257 174 LINE",
"270 232 LINE",
"505 232 LINE",
"543 412 LINE",
"308 412 LINE",
"320 470 LINE",
"593 470 LINE",
"630 644 LINE",
"115 644 LINE",
"-21 0 LINE"
);
},
{
closed = 1;
nodes = (
"268 -213 LINE",
"298 -72 LINE",
"142 -72 LINE",
"112 -213 LINE"
);
},
{
closed = 1;
nodes = (
"315 688 LINE",
"410 795 LINE",
"464 688 LINE",
"625 688 LINE",
"496 904 LINE",
"355 904 LINE",
"135 688 LINE"
);
}
);
width = 557;
}
);
note = Ecircumflexdotbelow;
unicode = 1EC6;
},
{
glyphname = Ecircumflexgrave;
lastChange = "2015-11-26 11:00:21 +0000";
layers = (
{
layerId = "098F4D9A-293F-4750-B0F4-D0E702B92EEF";
name = "Bold Italic";
paths = (
{
closed = 1;
nodes = (
"494 0 LINE",
"530 174 LINE",
"257 174 LINE",
"270 232 LINE",
"505 232 LINE",
"543 412 LINE",
"308 412 LINE",
"320 470 LINE",
"593 470 LINE",
"630 644 LINE",
"115 644 LINE",
"-21 0 LINE"
);
},
{
closed = 1;
nodes = (
"270 820 LINE",
"232 992 LINE",
"56 992 LINE",
"102 820 LINE"
);
},
{
closed = 1;
nodes = (
"336 688 LINE",
"408 764 LINE",
"445 688 LINE",
"630 688 LINE",
"509 856 LINE",
"334 856 LINE",
"140 688 LINE"
);
}
);
width = 557;
}
);
note = Ecircumflexgrave;
unicode = 1EC0;
},
{
glyphname = Ecircumflexhookabove;
lastChange = "2015-11-26 11:00:21 +0000";
layers = (
{
layerId = "098F4D9A-293F-4750-B0F4-D0E702B92EEF";
name = "Bold Italic";
paths = (
{
closed = 1;
nodes = (
"494 0 LINE",
"530 174 LINE",
"257 174 LINE",
"270 232 LINE",
"505 232 LINE",
"543 412 LINE",
"308 412 LINE",
"320 470 LINE",
"593 470 LINE",
"630 644 LINE",
"115 644 LINE",
"-21 0 LINE"
);
},
{
closed = 1;
nodes = (
"335 688 LINE",
"404 764 LINE",
"444 688 LINE",
"625 688 LINE",
"504 856 LINE",
"329 856 LINE",
"135 688 LINE"
);
},
{
closed = 1;
nodes = (
"714 797 LINE",
"721 828 LINE",
"771 837 OFFCURVE",
"800 871 OFFCURVE",
"810 917 CURVE SMOOTH",
"811 922 OFFCURVE",
"812 928 OFFCURVE",
"812 933 CURVE SMOOTH",
"812 976 OFFCURVE",
"774 1009 OFFCURVE",
"700 1009 CURVE SMOOTH",
"650 1009 OFFCURVE",
"610 1004 OFFCURVE",
"583 997 CURVE",
"563 905 LINE",
"577 910 OFFCURVE",
"596 915 OFFCURVE",
"612 915 CURVE SMOOTH",
"632 915 OFFCURVE",
"643 913 OFFCURVE",
"643 903 CURVE SMOOTH",
"643 890 OFFCURVE",
"631 879 OFFCURVE",
"575 877 CURVE",
"558 797 LINE"
);
}
);
width = 557;
}
);
note = Ecircumflexhookabove;
unicode = 1EC2;
},
{
glyphname = Ecircumflextilde;
lastChange = "2015-11-26 11:00:21 +0000";
layers = (
{
layerId = "098F4D9A-293F-4750-B0F4-D0E702B92EEF";
name = "Bold Italic";
paths = (
{
closed = 1;
nodes = (
"494 0 LINE",
"530 174 LINE",
"257 174 LINE",
"270 232 LINE",
"505 232 LINE",
"543 412 LINE",
"308 412 LINE",
"320 470 LINE",
"593 470 LINE",
"630 644 LINE",
"115 644 LINE",
"-21 0 LINE"
);
},
{
closed = 1;
nodes = (
"335 688 LINE",
"404 764 LINE",
"444 688 LINE",
"625 688 LINE",
"504 856 LINE",
"329 856 LINE",
"135 688 LINE"
);
},
{
closed = 1;
nodes = (
"567 871 OFFCURVE",
"608 887 OFFCURVE",
"624 904 CURVE",
"653 1039 LINE",
"633 1018 OFFCURVE",
"595 1000 OFFCURVE",
"551 1000 CURVE SMOOTH",
"486 1000 OFFCURVE",
"438 1042 OFFCURVE",
"368 1042 CURVE SMOOTH",
"328 1042 OFFCURVE",
"287 1026 OFFCURVE",
"264 1009 CURVE",
"236 874 LINE",
"263 897 OFFCURVE",
"300 913 OFFCURVE",
"344 913 CURVE SMOOTH",
"403 913 OFFCURVE",
"459 871 OFFCURVE",
"527 871 CURVE SMOOTH"
);
}
);
width = 557;
}
);
note = Ecircumflextilde;
unicode = 1EC4;
},
{
glyphname = Edieresis;
lastChange = "2015-11-26 11:00:21 +0000";
layers = (
{
layerId = "098F4D9A-293F-4750-B0F4-D0E702B92EEF";
name = "Bold Italic";
paths = (
{
closed = 1;
nodes = (
"494 0 LINE",
"530 174 LINE",
"257 174 LINE",
"270 232 LINE",
"505 232 LINE",
"543 412 LINE",
"308 412 LINE",
"320 470 LINE",
"593 470 LINE",
"630 644 LINE",
"115 644 LINE",
"-21 0 LINE"
);
},
{
closed = 1;
nodes = (
"352 718 LINE",
"382 859 LINE",
"227 859 LINE",
"197 718 LINE"
);
},
{
closed = 1;
nodes = (
"587 718 LINE",
"617 859 LINE",
"461 859 LINE",
"431 718 LINE"
);
}
);
width = 557;
}
);
note = Edieresis;
unicode = 00CB;
},
{
glyphname = Edotaccent;
lastChange = "2015-11-26 11:00:21 +0000";
layers = (
{
layerId = "098F4D9A-293F-4750-B0F4-D0E702B92EEF";
name = "Bold Italic";
paths = (
{
closed = 1;
nodes = (
"494 0 LINE",
"530 174 LINE",
"257 174 LINE",
"270 232 LINE",
"505 232 LINE",
"543 412 LINE",
"308 412 LINE",
"320 470 LINE",
"593 470 LINE",
"630 644 LINE",
"115 644 LINE",
"-21 0 LINE"
);
},
{
closed = 1;
nodes = (
"460 718 LINE",
"490 859 LINE",
"334 859 LINE",
"305 718 LINE"
);
}
);
width = 557;
}
);
note = Edotaccent;
unicode = 0116;
},
{
glyphname = Edotbelow;
lastChange = "2015-11-26 11:00:21 +0000";
layers = (
{
layerId = "098F4D9A-293F-4750-B0F4-D0E702B92EEF";
name = "Bold Italic";
paths = (
{
closed = 1;
nodes = (
"494 0 LINE",
"530 174 LINE",
"257 174 LINE",
"270 232 LINE",
"505 232 LINE",
"543 412 LINE",
"308 412 LINE",
"320 470 LINE",
"593 470 LINE",
"630 644 LINE",
"115 644 LINE",
"-21 0 LINE"
);
},
{
closed = 1;
nodes = (
"259 -213 LINE",
"289 -72 LINE",
"133 -72 LINE",
"103 -213 LINE"
);
}
);
width = 557;
}
);
note = Edotbelow;
unicode = 1EB8;
},
{
glyphname = Egrave;
lastChange = "2015-11-26 11:00:21 +0000";
layers = (
{
layerId = "098F4D9A-293F-4750-B0F4-D0E702B92EEF";
name = "Bold Italic";
paths = (
{
closed = 1;
nodes = (
"494 0 LINE",
"530 174 LINE",
"257 174 LINE",
"270 232 LINE",
"505 232 LINE",
"543 412 LINE",
"308 412 LINE",
"320 470 LINE",
"593 470 LINE",
"630 644 LINE",
"115 644 LINE",
"-21 0 LINE"
);
},
{
closed = 1;
nodes = (
"489 688 LINE",
"441 914 LINE",
"255 914 LINE",
"312 688 LINE"
);
}
);
width = 557;
}
);
note = Egrave;
unicode = 00C8;
},
{
glyphname = Ehookabove;
lastChange = "2015-11-26 11:00:21 +0000";
layers = (
{
layerId = "098F4D9A-293F-4750-B0F4-D0E702B92EEF";
name = "Bold Italic";
paths = (
{
closed = 1;
nodes = (
"494 0 LINE",
"530 174 LINE",
"257 174 LINE",
"270 232 LINE",
"505 232 LINE",
"543 412 LINE",
"308 412 LINE",
"320 470 LINE",
"593 470 LINE",
"630 644 LINE",
"115 644 LINE",
"-21 0 LINE"
);
},
{
closed = 1;
nodes = (
"471 688 LINE",
"479 724 LINE",
"540 742 OFFCURVE",
"570 768 OFFCURVE",
"583 828 CURVE SMOOTH",
"584 835 OFFCURVE",
"585 841 OFFCURVE",
"585 848 CURVE SMOOTH",
"585 898 OFFCURVE",
"540 935 OFFCURVE",
"454 935 CURVE SMOOTH",
"396 935 OFFCURVE",
"355 929 OFFCURVE",
"321 920 CURVE",
"301 826 LINE",
"318 832 OFFCURVE",
"339 836 OFFCURVE",
"359 836 CURVE SMOOTH",
"393 836 OFFCURVE",
"408 828 OFFCURVE",
"403 808 CURVE",
"399 788 OFFCURVE",
"376 773 OFFCURVE",
"310 769 CURVE",
"293 688 LINE"
);
}
);
width = 557;
}
);
note = Ehookabove;
unicode = 1EBA;
},
{
glyphname = Emacron;
lastChange = "2015-11-26 11:00:21 +0000";
layers = (
{
layerId = "098F4D9A-293F-4750-B0F4-D0E702B92EEF";
name = "Bold Italic";
paths = (
{
closed = 1;
nodes = (
"494 0 LINE",
"530 174 LINE",
"257 174 LINE",
"270 232 LINE",
"505 232 LINE",
"543 412 LINE",
"308 412 LINE",
"320 470 LINE",
"593 470 LINE",
"630 644 LINE",
"115 644 LINE",
"-21 0 LINE"
);
},
{
closed = 1;
nodes = (
"549 728 LINE",
"579 868 LINE",
"231 868 LINE",
"201 728 LINE"
);
}
);
width = 557;
}
);
note = Emacron;
unicode = 0112;
},
{
glyphname = Eogonek;
lastChange = "2015-11-26 11:00:21 +0000";
layers = (
{
layerId = "098F4D9A-293F-4750-B0F4-D0E702B92EEF";
name = "Bold Italic";
paths = (
{
closed = 1;
nodes = (
"494 0 LINE",
"530 174 LINE",
"257 174 LINE",
"270 232 LINE",
"505 232 LINE",
"543 412 LINE",
"308 412 LINE",
"320 470 LINE",
"593 470 LINE",
"630 644 LINE",
"115 644 LINE",
"-21 0 LINE"
);
},
{
closed = 1;
nodes = (
"362 -220 OFFCURVE",
"410 -210 OFFCURVE",
"435 -202 CURVE",
"457 -96 LINE",
"444 -103 OFFCURVE",
"421 -107 OFFCURVE",
"404 -107 CURVE SMOOTH",
"379 -107 OFFCURVE",
"363 -102 OFFCURVE",
"363 -84 CURVE SMOOTH",
"363 -82 OFFCURVE",
"363 -79 OFFCURVE",
"364 -76 CURVE",
"371 -47 OFFCURVE",
"396 -21 OFFCURVE",
"429 0 CURVE",
"285 0 LINE",
"233 -26 OFFCURVE",
"183 -76 OFFCURVE",
"183 -140 CURVE SMOOTH",
"183 -195 OFFCURVE",
"232 -220 OFFCURVE",
"312 -220 CURVE SMOOTH"
);
}
);
width = 557;
}
);
note = Eogonek;
unicode = 0118;
},
{
glyphname = Etilde;
lastChange = "2015-11-26 11:00:21 +0000";
layers = (
{
layerId = "098F4D9A-293F-4750-B0F4-D0E702B92EEF";
name = "Bold Italic";
paths = (
{
closed = 1;
nodes = (
"494 0 LINE",
"530 174 LINE",
"257 174 LINE",
"270 232 LINE",
"505 232 LINE",
"543 412 LINE",
"308 412 LINE",
"320 470 LINE",
"593 470 LINE",
"630 644 LINE",
"115 644 LINE",
"-21 0 LINE"
);
},
{
closed = 1;
nodes = (
"531 693 OFFCURVE",
"574 710 OFFCURVE",
"591 728 CURVE",
"621 869 LINE",
"600 847 OFFCURVE",
"560 828 OFFCURVE",
"514 828 CURVE SMOOTH",
"445 828 OFFCURVE",
"396 872 OFFCURVE",
"323 872 CURVE SMOOTH",
"281 872 OFFCURVE",
"237 855 OFFCURVE",
"213 837 CURVE",
"183 696 LINE",
"212 720 OFFCURVE",
"251 737 OFFCURVE",
"297 737 CURVE SMOOTH",
"358 737 OFFCURVE",
"417 693 OFFCURVE",
"489 693 CURVE SMOOTH"
);
}
);
width = 557;
}
);
note = Etilde;
unicode = 1EBC;
},
{
glyphname = F;
lastChange = "2015-11-26 10:59:34 +0000";
layers = (
{
layerId = "098F4D9A-293F-4750-B0F4-D0E702B92EEF";
name = "Bold Italic";
paths = (
{
closed = 1;
nodes = (
"221 0 LINE",
"270 232 LINE",
"505 232 LINE",
"543 412 LINE",
"308 412 LINE",
"320 470 LINE",
"593 470 LINE",
"630 644 LINE",
"115 644 LINE",
"-21 0 LINE"
);
}
);
width = 545;
}
);
note = F;
unicode = 0046;
},
{
glyphname = G;
lastChange = "2015-11-26 10:59:35 +0000";
layers = (
{
layerId = "098F4D9A-293F-4750-B0F4-D0E702B92EEF";
name = "Bold Italic";
paths = (
{
closed = 1;
nodes = (
"449 -10 OFFCURVE",
"541 19 OFFCURVE",
"603 53 CURVE",
"674 386 LINE",
"367 386 LINE",
"336 240 LINE",
"443 240 LINE",
"434 201 LINE",
"413 196 OFFCURVE",
"396 194 OFFCURVE",
"373 194 CURVE SMOOTH",
"298 194 OFFCURVE",
"267 213 OFFCURVE",
"267 267 CURVE SMOOTH",
"267 283 OFFCURVE",
"269 301 OFFCURVE",
"274 322 CURVE SMOOTH",
"295 419 OFFCURVE",
"368 450 OFFCURVE",
"462 450 CURVE SMOOTH",
"528 450 OFFCURVE",
"590 443 OFFCURVE",
"647 419 CURVE",
"689 621 LINE",
"633 642 OFFCURVE",
"573 654 OFFCURVE",
"490 654 CURVE SMOOTH",
"222 654 OFFCURVE",
"73 541 OFFCURVE",
"27 322 CURVE SMOOTH",
"20 291 OFFCURVE",
"17 262 OFFCURVE",
"17 235 CURVE SMOOTH",
"17 73 OFFCURVE",
"135 -10 OFFCURVE",
"331 -10 CURVE SMOOTH"
);
}
);
width = 663;
}
);
leftKerningGroup = C;
note = G;
unicode = 0047;
},
{
glyphname = Gbreve;
lastChange = "2015-11-26 10:59:34 +0000";
layers = (
{
layerId = "098F4D9A-293F-4750-B0F4-D0E702B92EEF";
name = "Bold Italic";
paths = (
{
closed = 1;
nodes = (
"449 -10 OFFCURVE",
"541 19 OFFCURVE",
"603 53 CURVE",
"674 386 LINE",
"367 386 LINE",
"336 240 LINE",
"443 240 LINE",
"434 201 LINE",
"413 196 OFFCURVE",
"396 194 OFFCURVE",
"373 194 CURVE SMOOTH",
"298 194 OFFCURVE",
"267 213 OFFCURVE",
"267 267 CURVE SMOOTH",
"267 283 OFFCURVE",
"269 301 OFFCURVE",
"274 322 CURVE SMOOTH",
"295 419 OFFCURVE",
"368 450 OFFCURVE",
"462 450 CURVE SMOOTH",
"528 450 OFFCURVE",
"590 443 OFFCURVE",
"647 419 CURVE",
"689 621 LINE",
"633 642 OFFCURVE",
"573 654 OFFCURVE",
"490 654 CURVE SMOOTH",
"222 654 OFFCURVE",
"73 541 OFFCURVE",
"27 322 CURVE SMOOTH",
"20 291 OFFCURVE",
"17 262 OFFCURVE",
"17 235 CURVE SMOOTH",
"17 73 OFFCURVE",
"135 -10 OFFCURVE",
"331 -10 CURVE SMOOTH"
);
},
{
closed = 1;
nodes = (
"610 688 OFFCURVE",
"713 765 OFFCURVE",
"744 908 CURVE",
"582 908 LINE",
"572 863 OFFCURVE",
"548 820 OFFCURVE",
"497 820 CURVE SMOOTH",
"460 820 OFFCURVE",
"447 844 OFFCURVE",
"447 875 CURVE SMOOTH",
"447 885 OFFCURVE",
"448 897 OFFCURVE",
"451 908 CURVE",
"304 908 LINE",
"299 886 OFFCURVE",
"297 865 OFFCURVE",
"297 846 CURVE SMOOTH",
"297 743 OFFCURVE",
"365 688 OFFCURVE",
"476 688 CURVE SMOOTH"
);
}
);
width = 663;
}
);
leftKerningGroup = C;
note = Gbreve;
unicode = 011E;
},
{
glyphname = Gcaron;
lastChange = "2015-11-26 10:59:34 +0000";
layers = (
{
layerId = "098F4D9A-293F-4750-B0F4-D0E702B92EEF";
name = "Bold Italic";
paths = (
{
closed = 1;
nodes = (
"449 -10 OFFCURVE",
"541 19 OFFCURVE",
"603 53 CURVE",
"674 386 LINE",
"367 386 LINE",
"336 240 LINE",
"443 240 LINE",
"434 201 LINE",
"413 196 OFFCURVE",
"396 194 OFFCURVE",
"373 194 CURVE SMOOTH",
"298 194 OFFCURVE",
"267 213 OFFCURVE",
"267 267 CURVE SMOOTH",
"267 283 OFFCURVE",
"269 301 OFFCURVE",
"274 322 CURVE SMOOTH",
"295 419 OFFCURVE",
"368 450 OFFCURVE",
"462 450 CURVE SMOOTH",
"528 450 OFFCURVE",
"590 443 OFFCURVE",
"647 419 CURVE",
"689 621 LINE",
"633 642 OFFCURVE",
"573 654 OFFCURVE",
"490 654 CURVE SMOOTH",
"222 654 OFFCURVE",
"73 541 OFFCURVE",
"27 322 CURVE SMOOTH",
"20 291 OFFCURVE",
"17 262 OFFCURVE",
"17 235 CURVE SMOOTH",
"17 73 OFFCURVE",
"135 -10 OFFCURVE",
"331 -10 CURVE SMOOTH"
);
},
{
closed = 1;
nodes = (
"540 687 LINE",
"761 903 LINE",
"586 903 LINE",
"487 796 LINE",
"436 903 LINE",
"271 903 LINE",
"400 687 LINE"
);
}
);
width = 663;
}
);
leftKerningGroup = C;
note = Gcaron;
unicode = 01E6;
},
{
glyphname = Gcircumflex;
lastChange = "2015-11-26 10:59:34 +0000";
layers = (
{
layerId = "098F4D9A-293F-4750-B0F4-D0E702B92EEF";
name = "Bold Italic";
paths = (
{
closed = 1;
nodes = (
"449 -10 OFFCURVE",
"541 19 OFFCURVE",
"603 53 CURVE",
"674 386 LINE",
"367 386 LINE",
"336 240 LINE",
"443 240 LINE",
"434 201 LINE",
"413 196 OFFCURVE",
"396 194 OFFCURVE",
"373 194 CURVE SMOOTH",
"298 194 OFFCURVE",
"267 213 OFFCURVE",
"267 267 CURVE SMOOTH",
"267 283 OFFCURVE",
"269 301 OFFCURVE",
"274 322 CURVE SMOOTH",
"295 419 OFFCURVE",
"368 450 OFFCURVE",
"462 450 CURVE SMOOTH",
"528 450 OFFCURVE",
"590 443 OFFCURVE",
"647 419 CURVE",
"689 621 LINE",
"633 642 OFFCURVE",
"573 654 OFFCURVE",
"490 654 CURVE SMOOTH",
"222 654 OFFCURVE",
"73 541 OFFCURVE",
"27 322 CURVE SMOOTH",
"20 291 OFFCURVE",
"17 262 OFFCURVE",
"17 235 CURVE SMOOTH",
"17 73 OFFCURVE",
"135 -10 OFFCURVE",
"331 -10 CURVE SMOOTH"
);
},
{
closed = 1;
nodes = (
"393 688 LINE",
"488 795 LINE",
"542 688 LINE",
"703 688 LINE",
"574 904 LINE",
"433 904 LINE",
"213 688 LINE"
);
}
);
width = 663;
}
);
leftKerningGroup = C;
note = Gcircumflex;
unicode = 011C;
},
{
glyphname = Gcommaaccent;
lastChange = "2015-11-26 10:59:34 +0000";
layers = (
{
layerId = "098F4D9A-293F-4750-B0F4-D0E702B92EEF";
name = "Bold Italic";
paths = (
{
closed = 1;
nodes = (
"449 -10 OFFCURVE",
"541 19 OFFCURVE",
"603 53 CURVE",
"674 386 LINE",
"367 386 LINE",
"336 240 LINE",
"443 240 LINE",
"434 201 LINE",
"413 196 OFFCURVE",
"396 194 OFFCURVE",
"373 194 CURVE SMOOTH",
"298 194 OFFCURVE",
"267 213 OFFCURVE",
"267 267 CURVE SMOOTH",
"267 283 OFFCURVE",
"269 301 OFFCURVE",
"274 322 CURVE SMOOTH",
"295 419 OFFCURVE",
"368 450 OFFCURVE",
"462 450 CURVE SMOOTH",
"528 450 OFFCURVE",
"590 443 OFFCURVE",
"647 419 CURVE",
"689 621 LINE",
"633 642 OFFCURVE",
"573 654 OFFCURVE",
"490 654 CURVE SMOOTH",
"222 654 OFFCURVE",
"73 541 OFFCURVE",
"27 322 CURVE SMOOTH",
"20 291 OFFCURVE",
"17 262 OFFCURVE",
"17 235 CURVE SMOOTH",
"17 73 OFFCURVE",
"135 -10 OFFCURVE",
"331 -10 CURVE SMOOTH"
);
},
{
closed = 1;
nodes = (
"310 -286 LINE",
"428 -37 LINE",
"249 -37 LINE",
"160 -286 LINE"
);
}
);
width = 663;
}
);
leftKerningGroup = C;
note = Gcommaaccent;
unicode = 0122;
},
{
glyphname = Gdotaccent;
lastChange = "2015-11-26 10:59:34 +0000";
layers = (
{
layerId = "098F4D9A-293F-4750-B0F4-D0E702B92EEF";
name = "Bold Italic";
paths = (
{
closed = 1;
nodes = (
"449 -10 OFFCURVE",
"541 19 OFFCURVE",
"603 53 CURVE",
"674 386 LINE",
"367 386 LINE",
"336 240 LINE",
"443 240 LINE",
"434 201 LINE",
"413 196 OFFCURVE",
"396 194 OFFCURVE",
"373 194 CURVE SMOOTH",
"298 194 OFFCURVE",
"267 213 OFFCURVE",
"267 267 CURVE SMOOTH",
"267 283 OFFCURVE",
"269 301 OFFCURVE",
"274 322 CURVE SMOOTH",
"295 419 OFFCURVE",
"368 450 OFFCURVE",
"462 450 CURVE SMOOTH",
"528 450 OFFCURVE",
"590 443 OFFCURVE",
"647 419 CURVE",
"689 621 LINE",
"633 642 OFFCURVE",
"573 654 OFFCURVE",
"490 654 CURVE SMOOTH",
"222 654 OFFCURVE",
"73 541 OFFCURVE",
"27 322 CURVE SMOOTH",
"20 291 OFFCURVE",
"17 262 OFFCURVE",
"17 235 CURVE SMOOTH",
"17 73 OFFCURVE",
"135 -10 OFFCURVE",
"331 -10 CURVE SMOOTH"
);
},
{
closed = 1;
nodes = (
"572 718 LINE",
"602 859 LINE",
"446 859 LINE",
"417 718 LINE"
);
}
);
width = 663;
}
);
leftKerningGroup = C;
note = Gdotaccent;
unicode = 0120;
},
{
glyphname = Gmacron;
lastChange = "2015-11-26 10:59:34 +0000";
layers = (
{
layerId = "098F4D9A-293F-4750-B0F4-D0E702B92EEF";
name = "Bold Italic";
paths = (
{
closed = 1;
nodes = (
"449 -10 OFFCURVE",
"541 19 OFFCURVE",
"603 53 CURVE",
"674 386 LINE",
"367 386 LINE",
"336 240 LINE",
"443 240 LINE",
"434 201 LINE",
"413 196 OFFCURVE",
"396 194 OFFCURVE",
"373 194 CURVE SMOOTH",
"298 194 OFFCURVE",
"267 213 OFFCURVE",
"267 267 CURVE SMOOTH",
"267 283 OFFCURVE",
"269 301 OFFCURVE",
"274 322 CURVE SMOOTH",
"295 419 OFFCURVE",
"368 450 OFFCURVE",
"462 450 CURVE SMOOTH",
"528 450 OFFCURVE",
"590 443 OFFCURVE",
"647 419 CURVE",
"689 621 LINE",
"633 642 OFFCURVE",
"573 654 OFFCURVE",
"490 654 CURVE SMOOTH",
"222 654 OFFCURVE",
"73 541 OFFCURVE",
"27 322 CURVE SMOOTH",
"20 291 OFFCURVE",
"17 262 OFFCURVE",
"17 235 CURVE SMOOTH",
"17 73 OFFCURVE",
"135 -10 OFFCURVE",
"331 -10 CURVE SMOOTH"
);
},
{
closed = 1;
nodes = (
"662 718 LINE",
"692 858 LINE",
"344 858 LINE",
"314 718 LINE"
);
}
);
width = 663;
}
);
leftKerningGroup = C;
note = Gmacron;
unicode = 1E20;
},
{
glyphname = H;
lastChange = "2015-11-26 10:59:35 +0000";
layers = (
{
layerId = "098F4D9A-293F-4750-B0F4-D0E702B92EEF";
name = "Bold Italic";
paths = (
{
closed = 1;
nodes = (
"221 0 LINE",
"265 210 LINE",
"426 210 LINE",
"382 0 LINE",
"624 0 LINE",
"760 644 LINE",
"518 644 LINE",
"474 434 LINE",
"313 434 LINE",
"357 644 LINE",
"115 644 LINE",
"-21 0 LINE"
);
}
);
width = 715;
}
);
note = H;
unicode = 0048;
},
{
glyphname = Hbar;
lastChange = "2015-11-26 10:59:35 +0000";
layers = (
{
layerId = "098F4D9A-293F-4750-B0F4-D0E702B92EEF";
name = "Bold Italic";
paths = (
{
closed = 1;
nodes = (
"232 0 LINE",
"276 210 LINE",
"437 210 LINE",
"393 0 LINE",
"635 0 LINE",
"736 480 LINE",
"768 480 LINE",
"792 595 LINE",
"760 595 LINE",
"771 644 LINE",
"529 644 LINE",
"518 595 LINE",
"357 595 LINE",
"368 644 LINE",
"126 644 LINE",
"115 595 LINE",
"85 595 LINE",
"61 480 LINE",
"91 480 LINE",
"-10 0 LINE"
);
},
{
closed = 1;
nodes = (
"333 480 LINE",
"494 480 LINE",
"485 434 LINE",
"324 434 LINE"
);
}
);
width = 737;
}
);
note = Hbar;
unicode = 0126;
},
{
glyphname = Hbrevebelow;
lastChange = "2015-11-26 10:59:34 +0000";
layers = (
{
layerId = "098F4D9A-293F-4750-B0F4-D0E702B92EEF";
name = "Bold Italic";
paths = (
{
closed = 1;
nodes = (
"221 0 LINE",
"265 210 LINE",
"426 210 LINE",
"382 0 LINE",
"624 0 LINE",
"760 644 LINE",
"518 644 LINE",
"474 434 LINE",
"313 434 LINE",
"357 644 LINE",
"115 644 LINE",
"-21 0 LINE"
);
},
{
closed = 1;
nodes = (
"396 -260 OFFCURVE",
"484 -183 OFFCURVE",
"514 -40 CURVE",
"352 -40 LINE",
"347 -90 OFFCURVE",
"319 -128 OFFCURVE",
"268 -128 CURVE SMOOTH",
"231 -128 OFFCURVE",
"218 -104 OFFCURVE",
"218 -73 CURVE SMOOTH",
"218 -63 OFFCURVE",
"219 -51 OFFCURVE",
"222 -40 CURVE",
"74 -40 LINE",
"69 -62 OFFCURVE",
"67 -83 OFFCURVE",
"67 -101 CURVE SMOOTH",
"67 -205 OFFCURVE",
"135 -260 OFFCURVE",
"247 -260 CURVE SMOOTH"
);
}
);
width = 715;
}
);
note = Hbrevebelow;
unicode = 1E2A;
},
{
glyphname = Hcircumflex;
lastChange = "2015-11-26 10:59:36 +0000";
layers = (
{
layerId = "098F4D9A-293F-4750-B0F4-D0E702B92EEF";
name = "Bold Italic";
paths = (
{
closed = 1;
nodes = (
"221 0 LINE",
"265 210 LINE",
"426 210 LINE",
"382 0 LINE",
"624 0 LINE",
"760 644 LINE",
"518 644 LINE",
"474 434 LINE",
"313 434 LINE",
"357 644 LINE",
"115 644 LINE",
"-21 0 LINE"
);
},
{
closed = 1;
nodes = (
"381 688 LINE",
"476 795 LINE",
"530 688 LINE",
"691 688 LINE",
"562 904 LINE",
"421 904 LINE",
"201 688 LINE"
);
}
);
width = 715;
}
);
note = Hcircumflex;
unicode = 0124;
},
{
glyphname = Hdotbelow;
lastChange = "2015-11-26 10:59:35 +0000";
layers = (
{
layerId = "098F4D9A-293F-4750-B0F4-D0E702B92EEF";
name = "Bold Italic";
paths = (
{
closed = 1;
nodes = (
"221 0 LINE",
"265 210 LINE",
"426 210 LINE",
"382 0 LINE",
"624 0 LINE",
"760 644 LINE",
"518 644 LINE",
"474 434 LINE",
"313 434 LINE",
"357 644 LINE",
"115 644 LINE",
"-21 0 LINE"
);
},
{
closed = 1;
nodes = (
"333 -213 LINE",
"363 -72 LINE",
"207 -72 LINE",
"177 -213 LINE"
);
}
);
width = 715;
}
);
note = Hdotbelow;
unicode = 1E24;
},
{
glyphname = I;
lastChange = "2015-11-26 10:59:34 +0000";
layers = (
{
layerId = "098F4D9A-293F-4750-B0F4-D0E702B92EEF";
name = "Bold Italic";
paths = (
{
closed = 1;
nodes = (
"221 0 LINE",
"357 644 LINE",
"115 644 LINE",
"-21 0 LINE"
);
}
);
width = 312;
}
);
note = I;
unicode = 0049;
},
{
glyphname = IJ;
lastChange = "2015-11-26 10:59:35 +0000";
layers = (
{
layerId = "098F4D9A-293F-4750-B0F4-D0E702B92EEF";
name = "Bold Italic";
paths = (
{
closed = 1;
nodes = (
"609 -10 OFFCURVE",
"698 69 OFFCURVE",
"729 216 CURVE SMOOTH",
"820 644 LINE",
"578 644 LINE",
"500 275 LINE SMOOTH",
"487 216 OFFCURVE",
"468 195 OFFCURVE",
"400 195 CURVE SMOOTH",
"361 195 OFFCURVE",
"322 201 OFFCURVE",
"292 214 CURVE",
"250 13 LINE",
"298 -4 OFFCURVE",
"349 -10 OFFCURVE",
"406 -10 CURVE SMOOTH"
);
},
{
closed = 1;
nodes = (
"221 0 LINE",
"357 644 LINE",
"115 644 LINE",
"-21 0 LINE"
);
}
);
width = 770;
}
);
note = IJ;
rightKerningGroup = J;
unicode = 0132;
},
{
glyphname = Iacute;
lastChange = "2015-11-26 10:59:36 +0000";
layers = (
{
layerId = "098F4D9A-293F-4750-B0F4-D0E702B92EEF";
name = "Bold Italic";
paths = (
{
closed = 1;
nodes = (
"221 0 LINE",
"357 644 LINE",
"115 644 LINE",
"-21 0 LINE"
);
},
{
closed = 1;
nodes = (
"330 688 LINE",
"483 914 LINE",
"297 914 LINE",
"153 688 LINE"
);
}
);
width = 312;
}
);
note = Iacute;
unicode = 00CD;
},
{
glyphname = Ibreve;
lastChange = "2015-11-26 10:59:34 +0000";
layers = (
{
layerId = "098F4D9A-293F-4750-B0F4-D0E702B92EEF";
name = "Bold Italic";
paths = (
{
closed = 1;
nodes = (
"221 0 LINE",
"357 644 LINE",
"115 644 LINE",
"-21 0 LINE"
);
},
{
closed = 1;
nodes = (
"385 714 OFFCURVE",
"488 791 OFFCURVE",
"519 934 CURVE",
"357 934 LINE",
"347 889 OFFCURVE",
"323 846 OFFCURVE",
"272 846 CURVE SMOOTH",
"235 846 OFFCURVE",
"222 870 OFFCURVE",
"222 901 CURVE SMOOTH",
"222 911 OFFCURVE",
"223 923 OFFCURVE",
"226 934 CURVE",
"79 934 LINE",
"74 912 OFFCURVE",
"72 891 OFFCURVE",
"72 872 CURVE SMOOTH",
"72 769 OFFCURVE",
"140 714 OFFCURVE",
"251 714 CURVE SMOOTH"
);
}
);
width = 312;
}
);
note = Ibreve;
unicode = 012C;
},
{
glyphname = Icaron;
lastChange = "2015-11-26 10:59:36 +0000";
layers = (
{
layerId = "098F4D9A-293F-4750-B0F4-D0E702B92EEF";
name = "Bold Italic";
paths = (
{
closed = 1;
nodes = (
"221 0 LINE",
"357 644 LINE",
"115 644 LINE",
"-21 0 LINE"
);
},
{
closed = 1;
nodes = (
"316 688 LINE",
"537 904 LINE",
"362 904 LINE",
"263 797 LINE",
"212 904 LINE",
"47 904 LINE",
"176 688 LINE"
);
}
);
width = 312;
}
);
note = Icaron;
unicode = 01CF;
},
{
glyphname = Icircumflex;
lastChange = "2015-11-26 10:59:35 +0000";
layers = (
{
layerId = "098F4D9A-293F-4750-B0F4-D0E702B92EEF";
name = "Bold Italic";
paths = (
{
closed = 1;
nodes = (
"221 0 LINE",
"357 644 LINE",
"115 644 LINE",
"-21 0 LINE"
);
},
{
closed = 1;
nodes = (
"181 688 LINE",
"276 795 LINE",
"330 688 LINE",
"491 688 LINE",
"362 904 LINE",
"221 904 LINE",
"1 688 LINE"
);
}
);
width = 312;
}
);
note = Icircumflex;
unicode = 00CE;
},
{
glyphname = Idieresis;
lastChange = "2015-11-26 10:59:34 +0000";
layers = (
{
layerId = "098F4D9A-293F-4750-B0F4-D0E702B92EEF";
name = "Bold Italic";
paths = (
{
closed = 1;
nodes = (
"221 0 LINE",
"357 644 LINE",
"115 644 LINE",
"-21 0 LINE"
);
},
{
closed = 1;
nodes = (
"214 728 LINE",
"244 869 LINE",
"89 869 LINE",
"59 728 LINE"
);
},
{
closed = 1;
nodes = (
"449 728 LINE",
"479 869 LINE",
"323 869 LINE",
"293 728 LINE"
);
}
);
width = 312;
}
);
note = Idieresis;
unicode = 00CF;
},
{
glyphname = Idotaccent;
lastChange = "2015-11-26 10:59:35 +0000";
layers = (
{
layerId = "098F4D9A-293F-4750-B0F4-D0E702B92EEF";
name = "Bold Italic";
paths = (
{
closed = 1;
nodes = (
"221 0 LINE",
"357 644 LINE",
"115 644 LINE",
"-21 0 LINE"
);
},
{
closed = 1;
nodes = (
"331 728 LINE",
"361 869 LINE",
"205 869 LINE",
"176 728 LINE"
);
}
);
width = 312;
}
);
note = Idotaccent;
unicode = 0130;
},
{
glyphname = Idotbelow;
lastChange = "2015-11-26 10:59:34 +0000";
layers = (
{
layerId = "098F4D9A-293F-4750-B0F4-D0E702B92EEF";
name = "Bold Italic";
paths = (
{
closed = 1;
nodes = (
"221 0 LINE",
"357 644 LINE",
"115 644 LINE",
"-21 0 LINE"
);
},
{
closed = 1;
nodes = (
"133 -213 LINE",
"163 -72 LINE",
"7 -72 LINE",
"-23 -213 LINE"
);
}
);
width = 312;
}
);
note = Idotbelow;
unicode = 1ECA;
},
{
glyphname = Igrave;
lastChange = "2015-11-26 10:59:35 +0000";
layers = (
{
layerId = "098F4D9A-293F-4750-B0F4-D0E702B92EEF";
name = "Bold Italic";
paths = (
{
closed = 1;
nodes = (
"221 0 LINE",
"357 644 LINE",
"115 644 LINE",
"-21 0 LINE"
);
},
{
closed = 1;
nodes = (
"333 688 LINE",
"285 914 LINE",
"99 914 LINE",
"156 688 LINE"
);
}
);
width = 312;
}
);
note = Igrave;
unicode = 00CC;
},
{
glyphname = Ihookabove;
lastChange = "2015-11-26 10:59:35 +0000";
layers = (
{
layerId = "098F4D9A-293F-4750-B0F4-D0E702B92EEF";
name = "Bold Italic";
paths = (
{
closed = 1;
nodes = (
"221 0 LINE",
"357 644 LINE",
"115 644 LINE",
"-21 0 LINE"
);
},
{
closed = 1;
nodes = (
"333 688 LINE",
"341 724 LINE",
"402 742 OFFCURVE",
"432 768 OFFCURVE",
"445 828 CURVE SMOOTH",
"446 835 OFFCURVE",
"447 841 OFFCURVE",
"447 848 CURVE SMOOTH",
"447 898 OFFCURVE",
"402 935 OFFCURVE",
"316 935 CURVE SMOOTH",
"258 935 OFFCURVE",
"217 929 OFFCURVE",
"183 920 CURVE",
"163 826 LINE",
"180 832 OFFCURVE",
"201 836 OFFCURVE",
"221 836 CURVE SMOOTH",
"255 836 OFFCURVE",
"270 828 OFFCURVE",
"265 808 CURVE",
"261 788 OFFCURVE",
"238 773 OFFCURVE",
"172 769 CURVE",
"155 688 LINE"
);
}
);
width = 312;
}
);
note = Ihookabove;
unicode = 1EC8;
},
{
glyphname = Imacron;
lastChange = "2015-11-26 10:59:35 +0000";
layers = (
{
layerId = "098F4D9A-293F-4750-B0F4-D0E702B92EEF";
name = "Bold Italic";
paths = (
{
closed = 1;
nodes = (
"221 0 LINE",
"357 644 LINE",
"115 644 LINE",
"-21 0 LINE"
);
},
{
closed = 1;
nodes = (
"429 728 LINE",
"459 868 LINE",
"110 868 LINE",
"80 728 LINE"
);
}
);
width = 312;
}
);
note = Imacron;
unicode = 012A;
},
{
glyphname = Iogonek;
lastChange = "2015-11-26 10:59:34 +0000";
layers = (
{
layerId = "098F4D9A-293F-4750-B0F4-D0E702B92EEF";
name = "Bold Italic";
paths = (
{
closed = 1;
nodes = (
"105 -220 OFFCURVE",
"153 -210 OFFCURVE",
"178 -202 CURVE",
"200 -96 LINE",
"187 -103 OFFCURVE",
"164 -107 OFFCURVE",
"147 -107 CURVE SMOOTH",
"122 -107 OFFCURVE",
"106 -102 OFFCURVE",
"106 -84 CURVE SMOOTH",
"106 -82 OFFCURVE",
"106 -79 OFFCURVE",
"107 -76 CURVE",
"114 -47 OFFCURVE",
"139 -21 OFFCURVE",
"172 0 CURVE",
"221 0 LINE",
"357 644 LINE",
"115 644 LINE",
"-21 0 LINE",
"28 0 LINE",
"-24 -26 OFFCURVE",
"-74 -76 OFFCURVE",
"-74 -140 CURVE SMOOTH",
"-74 -195 OFFCURVE",
"-25 -220 OFFCURVE",
"55 -220 CURVE SMOOTH"
);
}
);
width = 312;
}
);
note = Iogonek;
unicode = 012E;
},
{
glyphname = Itilde;
lastChange = "2015-11-26 10:59:35 +0000";
layers = (
{
layerId = "098F4D9A-293F-4750-B0F4-D0E702B92EEF";
name = "Bold Italic";
paths = (
{
closed = 1;
nodes = (
"221 0 LINE",
"357 644 LINE",
"115 644 LINE",
"-21 0 LINE"
);
},
{
closed = 1;
nodes = (
"402 723 OFFCURVE",
"445 740 OFFCURVE",
"462 758 CURVE",
"492 899 LINE",
"471 877 OFFCURVE",
"431 858 OFFCURVE",
"385 858 CURVE SMOOTH",
"316 858 OFFCURVE",
"267 902 OFFCURVE",
"194 902 CURVE SMOOTH",
"152 902 OFFCURVE",
"108 885 OFFCURVE",
"84 867 CURVE",
"54 726 LINE",
"83 750 OFFCURVE",
"122 767 OFFCURVE",
"168 767 CURVE SMOOTH",
"229 767 OFFCURVE",
"288 723 OFFCURVE",
"360 723 CURVE SMOOTH"
);
}
);
width = 312;
}
);
note = Itilde;
unicode = 0128;
},
{
glyphname = J;
lastChange = "2015-11-26 10:59:35 +0000";
layers = (
{
layerId = "098F4D9A-293F-4750-B0F4-D0E702B92EEF";
name = "Bold Italic";
paths = (
{
closed = 1;
nodes = (
"301 -10 OFFCURVE",
"390 69 OFFCURVE",
"421 216 CURVE SMOOTH",
"512 644 LINE",
"270 644 LINE",
"192 275 LINE SMOOTH",
"179 216 OFFCURVE",
"160 195 OFFCURVE",
"92 195 CURVE SMOOTH",
"53 195 OFFCURVE",
"14 201 OFFCURVE",
"-16 214 CURVE",
"-58 13 LINE",
"-10 -4 OFFCURVE",
"41 -10 OFFCURVE",
"98 -10 CURVE SMOOTH"
);
}
);
width = 462;
}
);
leftKerningGroup = J;
note = J;
rightKerningGroup = J;
unicode = 004A;
},
{
glyphname = Jcircumflex;
lastChange = "2015-11-26 10:59:34 +0000";
layers = (
{
layerId = "098F4D9A-293F-4750-B0F4-D0E702B92EEF";
name = "Bold Italic";
paths = (
{
closed = 1;
nodes = (
"301 -10 OFFCURVE",
"390 69 OFFCURVE",
"421 216 CURVE SMOOTH",
"512 644 LINE",
"270 644 LINE",
"192 275 LINE SMOOTH",
"179 216 OFFCURVE",
"160 195 OFFCURVE",
"92 195 CURVE SMOOTH",
"53 195 OFFCURVE",
"14 201 OFFCURVE",
"-16 214 CURVE",
"-58 13 LINE",
"-10 -4 OFFCURVE",
"41 -10 OFFCURVE",
"98 -10 CURVE SMOOTH"
);
},
{
closed = 1;
nodes = (
"341 688 LINE",
"436 795 LINE",
"490 688 LINE",
"651 688 LINE",
"522 904 LINE",
"381 904 LINE",
"161 688 LINE"
);
}
);
width = 462;
}
);
leftKerningGroup = J;
note = Jcircumflex;
rightKerningGroup = J;
unicode = 0134;
},
{
glyphname = K;
lastChange = "2015-11-26 10:59:35 +0000";
layers = (
{
layerId = "098F4D9A-293F-4750-B0F4-D0E702B92EEF";
name = "Bold Italic";
paths = (
{
closed = 1;
nodes = (
"221 0 LINE",
"256 168 LINE",
"314 224 LINE",
"399 0 LINE",
"655 0 LINE",
"495 377 LINE",
"771 644 LINE",
"498 644 LINE",
"319 464 LINE",
"357 644 LINE",
"115 644 LINE",
"-21 0 LINE"
);
}
);
width = 726;
}
);
note = K;
rightKerningGroup = K;
unicode = 004B;
},
{
glyphname = Kcommaaccent;
lastChange = "2015-11-26 10:59:36 +0000";
layers = (
{
layerId = "098F4D9A-293F-4750-B0F4-D0E702B92EEF";
name = "Bold Italic";
paths = (
{
closed = 1;
nodes = (
"221 0 LINE",
"256 168 LINE",
"314 224 LINE",
"399 0 LINE",
"655 0 LINE",
"495 377 LINE",
"771 644 LINE",
"498 644 LINE",
"319 464 LINE",
"357 644 LINE",
"115 644 LINE",
"-21 0 LINE"
);
},
{
closed = 1;
nodes = (
"284 -286 LINE",
"402 -37 LINE",
"223 -37 LINE",
"134 -286 LINE"
);
}
);
width = 726;
}
);
note = Kcommaaccent;
rightKerningGroup = K;
unicode = 0136;
},
{
glyphname = L;
lastChange = "2015-11-26 10:59:34 +0000";
layers = (
{
layerId = "098F4D9A-293F-4750-B0F4-D0E702B92EEF";
name = "Bold Italic";
paths = (
{
closed = 1;
nodes = (
"484 0 LINE",
"523 184 LINE",
"260 184 LINE",
"357 644 LINE",
"115 644 LINE",
"-21 0 LINE"
);
}
);
width = 535;
}
);
note = L;
rightKerningGroup = L;
unicode = 004C;
},
{
glyphname = Lacute;
lastChange = "2015-11-26 10:59:35 +0000";
layers = (
{
layerId = "098F4D9A-293F-4750-B0F4-D0E702B92EEF";
name = "Bold Italic";
paths = (
{
closed = 1;
nodes = (
"484 0 LINE",
"523 184 LINE",
"260 184 LINE",
"357 644 LINE",
"115 644 LINE",
"-21 0 LINE"
);
},
{
closed = 1;
nodes = (
"337 688 LINE",
"490 914 LINE",
"304 914 LINE",
"160 688 LINE"
);
}
);
width = 535;
}
);
note = Lacute;
rightKerningGroup = L;
unicode = 0139;
},
{
glyphname = Lcaron;
lastChange = "2015-11-26 10:59:35 +0000";
layers = (
{
layerId = "098F4D9A-293F-4750-B0F4-D0E702B92EEF";
name = "Bold Italic";
paths = (
{
closed = 1;
nodes = (
"484 0 LINE",
"523 184 LINE",
"260 184 LINE",
"357 644 LINE",
"115 644 LINE",
"-21 0 LINE"
);
},
{
closed = 1;
nodes = (
"325 688 LINE",
"443 937 LINE",
"264 937 LINE",
"175 688 LINE"
);
}
);
width = 535;
}
);
note = Lcaron;
rightKerningGroup = L;
unicode = 013D;
},
{
glyphname = Lcommaaccent;
lastChange = "2015-11-26 10:59:34 +0000";
layers = (
{
layerId = "098F4D9A-293F-4750-B0F4-D0E702B92EEF";
name = "Bold Italic";
paths = (
{
closed = 1;
nodes = (
"484 0 LINE",
"523 184 LINE",
"260 184 LINE",
"357 644 LINE",
"115 644 LINE",
"-21 0 LINE"
);
},
{
closed = 1;
nodes = (
"236 -286 LINE",
"354 -37 LINE",
"175 -37 LINE",
"86 -286 LINE"
);
}
);
width = 535;
}
);
note = Lcommaaccent;
rightKerningGroup = L;
unicode = 013B;
},
{
glyphname = Ldot;
lastChange = "2015-11-26 10:59:34 +0000";
layers = (
{
layerId = "098F4D9A-293F-4750-B0F4-D0E702B92EEF";
name = "Bold Italic";
paths = (
{
closed = 1;
nodes = (
"484 0 LINE",
"523 184 LINE",
"260 184 LINE",
"357 644 LINE",
"115 644 LINE",
"-21 0 LINE"
);
},
{
closed = 1;
nodes = (
"489 310 LINE",
"519 451 LINE",
"363 451 LINE",
"333 310 LINE"
);
}
);
width = 535;
}
);
note = Ldot;
rightKerningGroup = L;
unicode = 013F;
},
{
glyphname = Ldotbelow;
lastChange = "2015-11-26 10:59:34 +0000";
layers = (
{
layerId = "098F4D9A-293F-4750-B0F4-D0E702B92EEF";
name = "Bold Italic";
paths = (
{
closed = 1;
nodes = (
"484 0 LINE",
"523 184 LINE",
"260 184 LINE",
"357 644 LINE",
"115 644 LINE",
"-21 0 LINE"
);
},
{
closed = 1;
nodes = (
"254 -213 LINE",
"284 -72 LINE",
"128 -72 LINE",
"98 -213 LINE"
);
}
);
width = 535;
}
);
note = Ldotbelow;
rightKerningGroup = L;
unicode = 1E36;
},
{
glyphname = Ldotbelowmacron;
lastChange = "2015-11-26 10:59:35 +0000";
layers = (
{
layerId = "098F4D9A-293F-4750-B0F4-D0E702B92EEF";
name = "Bold Italic";
paths = (
{
closed = 1;
nodes = (
"488 0 LINE",
"527 184 LINE",
"264 184 LINE",
"361 644 LINE",
"119 644 LINE",
"-17 0 LINE"
);
},
{
closed = 1;
nodes = (
"256 -213 LINE",
"286 -72 LINE",
"130 -72 LINE",
"100 -213 LINE"
);
},
{
closed = 1;
nodes = (
"425 718 LINE",
"455 858 LINE",
"107 858 LINE",
"77 718 LINE"
);
}
);
width = 539;
}
);
note = Ldotbelowmacron;
rightKerningGroup = L;
unicode = 1E38;
},
{
glyphname = Llinebelow;
lastChange = "2015-11-26 10:59:34 +0000";
layers = (
{
layerId = "098F4D9A-293F-4750-B0F4-D0E702B92EEF";
name = "Bold Italic";
paths = (
{
closed = 1;
nodes = (
"484 0 LINE",
"523 184 LINE",
"260 184 LINE",
"357 644 LINE",
"115 644 LINE",
"-21 0 LINE"
);
},
{
closed = 1;
nodes = (
"348 -214 LINE",
"378 -74 LINE",
"30 -74 LINE",
"0 -214 LINE"
);
}
);
width = 535;
}
);
note = Llinebelow;
rightKerningGroup = L;
unicode = 1E3A;
},
{
glyphname = Lslash;
lastChange = "2015-11-26 10:59:35 +0000";
layers = (
{
layerId = "098F4D9A-293F-4750-B0F4-D0E702B92EEF";
name = "Bold Italic";
paths = (
{
closed = 1;
nodes = (
"525 0 LINE",
"564 184 LINE",
"301 184 LINE",
"329 320 LINE",
"405 350 LINE",
"441 519 LINE",
"365 488 LINE",
"398 644 LINE",
"156 644 LINE",
"100 382 LINE",
"34 356 LINE",
"-2 187 LINE",
"65 214 LINE",
"20 0 LINE"
);
}
);
width = 576;
}
);
note = Lslash;
rightKerningGroup = L;
unicode = 0141;
},
{
glyphname = M;
lastChange = "2015-11-26 10:59:35 +0000";
layers = (
{
layerId = "098F4D9A-293F-4750-B0F4-D0E702B92EEF";
name = "Bold Italic";
paths = (
{
closed = 1;
nodes = (
"221 0 LINE",
"269 226 LINE",
"301 110 LINE",
"424 110 LINE",
"506 226 LINE",
"458 0 LINE",
"700 0 LINE",
"836 644 LINE",
"600 644 LINE",
"414 378 LINE",
"339 644 LINE",
"115 644 LINE",
"-21 0 LINE"
);
}
);
width = 791;
}
);
note = M;
unicode = 004D;
},
{
glyphname = Mdotbelow;
lastChange = "2015-11-26 10:59:34 +0000";
layers = (
{
layerId = "098F4D9A-293F-4750-B0F4-D0E702B92EEF";
name = "Bold Italic";
paths = (
{
closed = 1;
nodes = (
"221 0 LINE",
"269 226 LINE",
"301 110 LINE",
"424 110 LINE",
"506 226 LINE",
"458 0 LINE",
"700 0 LINE",
"836 644 LINE",
"600 644 LINE",
"414 378 LINE",
"339 644 LINE",
"115 644 LINE",
"-21 0 LINE"
);
},
{
closed = 1;
nodes = (
"373 -213 LINE",
"403 -72 LINE",
"247 -72 LINE",
"217 -213 LINE"
);
}
);
width = 791;
}
);
note = Mdotbelow;
unicode = 1E42;
},
{
glyphname = N;
lastChange = "2015-11-26 10:59:35 +0000";
layers = (
{
layerId = "098F4D9A-293F-4750-B0F4-D0E702B92EEF";
name = "Bold Italic";
paths = (
{
closed = 1;
nodes = (
"221 0 LINE",
"274 252 LINE",
"400 0 LINE",
"604 0 LINE",
"740 644 LINE",
"498 644 LINE",
"445 392 LINE",
"318 644 LINE",
"115 644 LINE",
"-21 0 LINE"
);
}
);
width = 695;
}
);
note = N;
unicode = 004E;
},
{
glyphname = Nacute;
lastChange = "2015-11-26 10:59:35 +0000";
layers = (
{
layerId = "098F4D9A-293F-4750-B0F4-D0E702B92EEF";
name = "Bold Italic";
paths = (
{
closed = 1;
nodes = (
"221 0 LINE",
"274 252 LINE",
"400 0 LINE",
"604 0 LINE",
"740 644 LINE",
"498 644 LINE",
"445 392 LINE",
"318 644 LINE",
"115 644 LINE",
"-21 0 LINE"
);
},
{
closed = 1;
nodes = (
"493 688 LINE",
"646 914 LINE",
"460 914 LINE",
"316 688 LINE"
);
}
);
width = 695;
}
);
note = Nacute;
unicode = 0143;
},
{
glyphname = Ncaron;
lastChange = "2015-11-26 10:59:35 +0000";
layers = (
{
layerId = "098F4D9A-293F-4750-B0F4-D0E702B92EEF";
name = "Bold Italic";
paths = (
{
closed = 1;
nodes = (
"221 0 LINE",
"274 252 LINE",
"400 0 LINE",
"604 0 LINE",
"740 644 LINE",
"498 644 LINE",
"445 392 LINE",
"318 644 LINE",
"115 644 LINE",
"-21 0 LINE"
);
},
{
closed = 1;
nodes = (
"501 688 LINE",
"722 904 LINE",
"547 904 LINE",
"448 797 LINE",
"397 904 LINE",
"232 904 LINE",
"361 688 LINE"
);
}
);
width = 695;
}
);
note = Ncaron;
unicode = 0147;
},
{
glyphname = Ncommaaccent;
lastChange = "2015-11-26 10:59:35 +0000";
layers = (
{
layerId = "098F4D9A-293F-4750-B0F4-D0E702B92EEF";
name = "Bold Italic";
paths = (
{
closed = 1;
nodes = (
"221 0 LINE",
"274 252 LINE",
"400 0 LINE",
"604 0 LINE",
"740 644 LINE",
"498 644 LINE",
"445 392 LINE",
"318 644 LINE",
"115 644 LINE",
"-21 0 LINE"
);
},
{
closed = 1;
nodes = (
"274 -286 LINE",
"392 -37 LINE",
"213 -37 LINE",
"124 -286 LINE"
);
}
);
width = 695;
}
);
note = Ncommaaccent;
unicode = 0145;
},
{
glyphname = Ndotaccent;
lastChange = "2015-11-26 10:59:35 +0000";
layers = (
{
layerId = "098F4D9A-293F-4750-B0F4-D0E702B92EEF";
name = "Bold Italic";
paths = (
{
closed = 1;
nodes = (
"221 0 LINE",
"274 252 LINE",
"400 0 LINE",
"604 0 LINE",
"740 644 LINE",
"498 644 LINE",
"445 392 LINE",
"318 644 LINE",
"115 644 LINE",
"-21 0 LINE"
);
},
{
closed = 1;
nodes = (
"518 718 LINE",
"548 859 LINE",
"392 859 LINE",
"363 718 LINE"
);
}
);
width = 695;
}
);
note = Ndotaccent;
unicode = 1E44;
},
{
glyphname = Ndotbelow;
lastChange = "2015-11-26 10:59:34 +0000";
layers = (
{
layerId = "098F4D9A-293F-4750-B0F4-D0E702B92EEF";
name = "Bold Italic";
paths = (
{
closed = 1;
nodes = (
"221 0 LINE",
"274 252 LINE",
"400 0 LINE",
"604 0 LINE",
"740 644 LINE",
"498 644 LINE",
"445 392 LINE",
"318 644 LINE",
"115 644 LINE",
"-21 0 LINE"
);
},
{
closed = 1;
nodes = (
"331 -213 LINE",
"361 -72 LINE",
"205 -72 LINE",
"175 -213 LINE"
);
}
);
width = 695;
}
);
note = Ndotbelow;
unicode = 1E46;
},
{
glyphname = Eng;
lastChange = "2015-11-26 10:59:35 +0000";
layers = (
{
layerId = "098F4D9A-293F-4750-B0F4-D0E702B92EEF";
name = "Bold Italic";
paths = (
{
closed = 1;
nodes = (
"496 -234 OFFCURVE",
"571 -153 OFFCURVE",
"594 -43 CURVE SMOOTH",
"740 644 LINE",
"498 644 LINE",
"445 392 LINE",
"318 644 LINE",
"115 644 LINE",
"-21 0 LINE",
"221 0 LINE",
"274 252 LINE",
"373 53 LINE",
"356 -27 LINE SMOOTH",
"350 -52 OFFCURVE",
"332 -67 OFFCURVE",
"300 -67 CURVE SMOOTH",
"279 -67 OFFCURVE",
"261 -64 OFFCURVE",
"242 -57 CURVE",
"211 -207 LINE",
"249 -225 OFFCURVE",
"291 -234 OFFCURVE",
"352 -234 CURVE SMOOTH"
);
}
);
width = 695;
}
);
note = Eng;
unicode = 014A;
},
{
glyphname = Nlinebelow;
lastChange = "2015-11-26 10:59:34 +0000";
layers = (
{
layerId = "098F4D9A-293F-4750-B0F4-D0E702B92EEF";
name = "Bold Italic";
paths = (
{
closed = 1;
nodes = (
"221 0 LINE",
"274 252 LINE",
"400 0 LINE",
"604 0 LINE",
"740 644 LINE",
"498 644 LINE",
"445 392 LINE",
"318 644 LINE",
"115 644 LINE",
"-21 0 LINE"
);
},
{
closed = 1;
nodes = (
"420 -208 LINE",
"450 -68 LINE",
"102 -68 LINE",
"72 -208 LINE"
);
}
);
width = 695;
}
);
note = Nlinebelow;
unicode = 1E48;
},
{
glyphname = Ntilde;
lastChange = "2015-11-26 10:59:34 +0000";
layers = (
{
layerId = "098F4D9A-293F-4750-B0F4-D0E702B92EEF";
name = "Bold Italic";
paths = (
{
closed = 1;
nodes = (
"221 0 LINE",
"274 252 LINE",
"400 0 LINE",
"604 0 LINE",
"740 644 LINE",
"498 644 LINE",
"445 392 LINE",
"318 644 LINE",
"115 644 LINE",
"-21 0 LINE"
);
},
{
closed = 1;
nodes = (
"593 693 OFFCURVE",
"636 710 OFFCURVE",
"653 728 CURVE",
"683 869 LINE",
"662 847 OFFCURVE",
"622 828 OFFCURVE",
"576 828 CURVE SMOOTH",
"507 828 OFFCURVE",
"458 872 OFFCURVE",
"385 872 CURVE SMOOTH",
"343 872 OFFCURVE",
"299 855 OFFCURVE",
"275 837 CURVE",
"245 696 LINE",
"274 720 OFFCURVE",
"313 737 OFFCURVE",
"359 737 CURVE SMOOTH",
"420 737 OFFCURVE",
"479 693 OFFCURVE",
"551 693 CURVE SMOOTH"
);
}
);
width = 695;
}
);
note = Ntilde;
unicode = 00D1;
},
{
glyphname = O;
lastChange = "2015-11-26 10:59:35 +0000";
layers = (
{
layerId = "098F4D9A-293F-4750-B0F4-D0E702B92EEF";
name = "Bold Italic";
paths = (
{
closed = 1;
nodes = (
"531 -10 OFFCURVE",
"665 79 OFFCURVE",
"717 322 CURVE SMOOTH",
"725 361 OFFCURVE",
"729 396 OFFCURVE",
"729 427 CURVE SMOOTH",
"729 591 OFFCURVE",
"619 654 OFFCURVE",
"443 654 CURVE SMOOTH",
"217 654 OFFCURVE",
"79 565 OFFCURVE",
"27 322 CURVE SMOOTH",
"19 284 OFFCURVE",
"15 250 OFFCURVE",
"15 220 CURVE SMOOTH",
"15 54 OFFCURVE",
"129 -10 OFFCURVE",
"301 -10 CURVE SMOOTH"
);
},
{
closed = 1;
nodes = (
"288 195 OFFCURVE",
"266 213 OFFCURVE",
"266 259 CURVE SMOOTH",
"266 276 OFFCURVE",
"269 297 OFFCURVE",
"274 322 CURVE SMOOTH",
"294 415 OFFCURVE",
"328 449 OFFCURVE",
"399 449 CURVE SMOOTH",
"457 449 OFFCURVE",
"479 431 OFFCURVE",
"479 385 CURVE SMOOTH",
"479 368 OFFCURVE",
"475 347 OFFCURVE",
"470 322 CURVE SMOOTH",
"450 229 OFFCURVE",
"416 195 OFFCURVE",
"345 195 CURVE SMOOTH"
);
}
);
width = 720;
}
);
leftKerningGroup = O;
note = O;
rightKerningGroup = O;
unicode = 004F;
},
{
glyphname = Oacute;
lastChange = "2015-11-26 10:59:35 +0000";
layers = (
{
layerId = "098F4D9A-293F-4750-B0F4-D0E702B92EEF";
name = "Bold Italic";
paths = (
{
closed = 1;
nodes = (
"531 -10 OFFCURVE",
"665 79 OFFCURVE",
"717 322 CURVE SMOOTH",
"725 361 OFFCURVE",
"729 396 OFFCURVE",
"729 427 CURVE SMOOTH",
"729 591 OFFCURVE",
"619 654 OFFCURVE",
"443 654 CURVE SMOOTH",
"217 654 OFFCURVE",
"79 565 OFFCURVE",
"27 322 CURVE SMOOTH",
"19 284 OFFCURVE",
"15 250 OFFCURVE",
"15 220 CURVE SMOOTH",
"15 54 OFFCURVE",
"129 -10 OFFCURVE",
"301 -10 CURVE SMOOTH"
);
},
{
closed = 1;
nodes = (
"288 195 OFFCURVE",
"266 213 OFFCURVE",
"266 259 CURVE SMOOTH",
"266 276 OFFCURVE",
"269 297 OFFCURVE",
"274 322 CURVE SMOOTH",
"294 415 OFFCURVE",
"328 449 OFFCURVE",
"399 449 CURVE SMOOTH",
"457 449 OFFCURVE",
"479 431 OFFCURVE",
"479 385 CURVE SMOOTH",
"479 368 OFFCURVE",
"475 347 OFFCURVE",
"470 322 CURVE SMOOTH",
"450 229 OFFCURVE",
"416 195 OFFCURVE",
"345 195 CURVE SMOOTH"
);
},
{
closed = 1;
nodes = (
"519 688 LINE",
"672 914 LINE",
"486 914 LINE",
"342 688 LINE"
);
}
);
width = 720;
}
);
leftKerningGroup = O;
note = Oacute;
rightKerningGroup = O;
unicode = 00D3;
},
{
glyphname = Obreve;
lastChange = "2015-11-26 10:59:35 +0000";
layers = (
{
layerId = "098F4D9A-293F-4750-B0F4-D0E702B92EEF";
name = "Bold Italic";
paths = (
{
closed = 1;
nodes = (
"531 -10 OFFCURVE",
"665 79 OFFCURVE",
"717 322 CURVE SMOOTH",
"725 361 OFFCURVE",
"729 396 OFFCURVE",
"729 427 CURVE SMOOTH",
"729 591 OFFCURVE",
"619 654 OFFCURVE",
"443 654 CURVE SMOOTH",
"217 654 OFFCURVE",
"79 565 OFFCURVE",
"27 322 CURVE SMOOTH",
"19 284 OFFCURVE",
"15 250 OFFCURVE",
"15 220 CURVE SMOOTH",
"15 54 OFFCURVE",
"129 -10 OFFCURVE",
"301 -10 CURVE SMOOTH"
);
},
{
closed = 1;
nodes = (
"288 195 OFFCURVE",
"266 213 OFFCURVE",
"266 259 CURVE SMOOTH",
"266 276 OFFCURVE",
"269 297 OFFCURVE",
"274 322 CURVE SMOOTH",
"294 415 OFFCURVE",
"328 449 OFFCURVE",
"399 449 CURVE SMOOTH",
"457 449 OFFCURVE",
"479 431 OFFCURVE",
"479 385 CURVE SMOOTH",
"479 368 OFFCURVE",
"475 347 OFFCURVE",
"470 322 CURVE SMOOTH",
"450 229 OFFCURVE",
"416 195 OFFCURVE",
"345 195 CURVE SMOOTH"
);
},
{
closed = 1;
nodes = (
"583 688 OFFCURVE",
"686 765 OFFCURVE",
"717 908 CURVE",
"555 908 LINE",
"545 863 OFFCURVE",
"521 820 OFFCURVE",
"470 820 CURVE SMOOTH",
"433 820 OFFCURVE",
"420 844 OFFCURVE",
"420 875 CURVE SMOOTH",
"420 885 OFFCURVE",
"421 897 OFFCURVE",
"424 908 CURVE",
"277 908 LINE",
"272 886 OFFCURVE",
"270 865 OFFCURVE",
"270 846 CURVE SMOOTH",
"270 743 OFFCURVE",
"338 688 OFFCURVE",
"449 688 CURVE SMOOTH"
);
}
);
width = 720;
}
);
leftKerningGroup = O;
note = Obreve;
rightKerningGroup = O;
unicode = 014E;
},
{
glyphname = Ocaron;
lastChange = "2015-11-26 10:59:35 +0000";
layers = (
{
layerId = "098F4D9A-293F-4750-B0F4-D0E702B92EEF";
name = "Bold Italic";
paths = (
{
closed = 1;
nodes = (
"531 -10 OFFCURVE",
"665 79 OFFCURVE",
"717 322 CURVE SMOOTH",
"725 361 OFFCURVE",
"729 396 OFFCURVE",
"729 427 CURVE SMOOTH",
"729 591 OFFCURVE",
"619 654 OFFCURVE",
"443 654 CURVE SMOOTH",
"217 654 OFFCURVE",
"79 565 OFFCURVE",
"27 322 CURVE SMOOTH",
"19 284 OFFCURVE",
"15 250 OFFCURVE",
"15 220 CURVE SMOOTH",
"15 54 OFFCURVE",
"129 -10 OFFCURVE",
"301 -10 CURVE SMOOTH"
);
},
{
closed = 1;
nodes = (
"288 195 OFFCURVE",
"266 213 OFFCURVE",
"266 259 CURVE SMOOTH",
"266 276 OFFCURVE",
"269 297 OFFCURVE",
"274 322 CURVE SMOOTH",
"294 415 OFFCURVE",
"328 449 OFFCURVE",
"399 449 CURVE SMOOTH",
"457 449 OFFCURVE",
"479 431 OFFCURVE",
"479 385 CURVE SMOOTH",
"479 368 OFFCURVE",
"475 347 OFFCURVE",
"470 322 CURVE SMOOTH",
"450 229 OFFCURVE",
"416 195 OFFCURVE",
"345 195 CURVE SMOOTH"
);
},
{
closed = 1;
nodes = (
"520 688 LINE",
"741 904 LINE",
"566 904 LINE",
"467 797 LINE",
"416 904 LINE",
"251 904 LINE",
"380 688 LINE"
);
}
);
width = 720;
}
);
leftKerningGroup = O;
note = Ocaron;
rightKerningGroup = O;
unicode = 01D1;
},
{
glyphname = Ocircumflex;
lastChange = "2015-11-26 10:59:34 +0000";
layers = (
{
layerId = "098F4D9A-293F-4750-B0F4-D0E702B92EEF";
name = "Bold Italic";
paths = (
{
closed = 1;
nodes = (
"531 -10 OFFCURVE",
"665 79 OFFCURVE",
"717 322 CURVE SMOOTH",
"725 361 OFFCURVE",
"729 396 OFFCURVE",
"729 427 CURVE SMOOTH",
"729 591 OFFCURVE",
"619 654 OFFCURVE",
"443 654 CURVE SMOOTH",
"217 654 OFFCURVE",
"79 565 OFFCURVE",
"27 322 CURVE SMOOTH",
"19 284 OFFCURVE",
"15 250 OFFCURVE",
"15 220 CURVE SMOOTH",
"15 54 OFFCURVE",
"129 -10 OFFCURVE",
"301 -10 CURVE SMOOTH"
);
},
{
closed = 1;
nodes = (
"288 195 OFFCURVE",
"266 213 OFFCURVE",
"266 259 CURVE SMOOTH",
"266 276 OFFCURVE",
"269 297 OFFCURVE",
"274 322 CURVE SMOOTH",
"294 415 OFFCURVE",
"328 449 OFFCURVE",
"399 449 CURVE SMOOTH",
"457 449 OFFCURVE",
"479 431 OFFCURVE",
"479 385 CURVE SMOOTH",
"479 368 OFFCURVE",
"475 347 OFFCURVE",
"470 322 CURVE SMOOTH",
"450 229 OFFCURVE",
"416 195 OFFCURVE",
"345 195 CURVE SMOOTH"
);
},
{
closed = 1;
nodes = (
"385 688 LINE",
"480 795 LINE",
"534 688 LINE",
"695 688 LINE",
"566 904 LINE",
"425 904 LINE",
"205 688 LINE"
);
}
);
width = 720;
}
);
leftKerningGroup = O;
note = Ocircumflex;
rightKerningGroup = O;
unicode = 00D4;
},
{
glyphname = Ocircumflexacute;
lastChange = "2015-11-26 10:59:34 +0000";
layers = (
{
layerId = "098F4D9A-293F-4750-B0F4-D0E702B92EEF";
name = "Bold Italic";
paths = (
{
closed = 1;
nodes = (
"531 -10 OFFCURVE",
"665 79 OFFCURVE",
"717 322 CURVE SMOOTH",
"725 361 OFFCURVE",
"729 396 OFFCURVE",
"729 427 CURVE SMOOTH",
"729 591 OFFCURVE",
"619 654 OFFCURVE",
"443 654 CURVE SMOOTH",
"217 654 OFFCURVE",
"79 565 OFFCURVE",
"27 322 CURVE SMOOTH",
"19 284 OFFCURVE",
"15 250 OFFCURVE",
"15 220 CURVE SMOOTH",
"15 54 OFFCURVE",
"129 -10 OFFCURVE",
"301 -10 CURVE SMOOTH"
);
},
{
closed = 1;
nodes = (
"288 195 OFFCURVE",
"266 213 OFFCURVE",
"266 259 CURVE SMOOTH",
"266 276 OFFCURVE",
"269 297 OFFCURVE",
"274 322 CURVE SMOOTH",
"294 415 OFFCURVE",
"328 449 OFFCURVE",
"399 449 CURVE SMOOTH",
"457 449 OFFCURVE",
"479 431 OFFCURVE",
"479 385 CURVE SMOOTH",
"479 368 OFFCURVE",
"475 347 OFFCURVE",
"470 322 CURVE SMOOTH",
"450 229 OFFCURVE",
"416 195 OFFCURVE",
"345 195 CURVE SMOOTH"
);
},
{
closed = 1;
nodes = (
"403 688 LINE",
"472 764 LINE",
"512 688 LINE",
"693 688 LINE",
"572 856 LINE",
"397 856 LINE",
"203 688 LINE"
);
},
{
closed = 1;
nodes = (
"787 820 LINE",
"907 992 LINE",
"731 992 LINE",
"620 820 LINE"
);
}
);
width = 720;
}
);
leftKerningGroup = O;
note = Ocircumflexacute;
rightKerningGroup = O;
unicode = 1ED0;
},
{
glyphname = Ocircumflexdotbelow;
lastChange = "2015-11-26 11:01:05 +0000";
layers = (
{
layerId = "098F4D9A-293F-4750-B0F4-D0E702B92EEF";
name = "Bold Italic";
paths = (
{
closed = 1;
nodes = (
"531 -10 OFFCURVE",
"665 79 OFFCURVE",
"717 322 CURVE SMOOTH",
"725 361 OFFCURVE",
"729 396 OFFCURVE",
"729 427 CURVE SMOOTH",
"729 591 OFFCURVE",
"619 654 OFFCURVE",
"443 654 CURVE SMOOTH",
"217 654 OFFCURVE",
"79 565 OFFCURVE",
"27 322 CURVE SMOOTH",
"19 284 OFFCURVE",
"15 250 OFFCURVE",
"15 220 CURVE SMOOTH",
"15 54 OFFCURVE",
"129 -10 OFFCURVE",
"301 -10 CURVE SMOOTH"
);
},
{
closed = 1;
nodes = (
"288 195 OFFCURVE",
"266 213 OFFCURVE",
"266 259 CURVE SMOOTH",
"266 276 OFFCURVE",
"269 297 OFFCURVE",
"274 322 CURVE SMOOTH",
"294 415 OFFCURVE",
"328 449 OFFCURVE",
"399 449 CURVE SMOOTH",
"457 449 OFFCURVE",
"479 431 OFFCURVE",
"479 385 CURVE SMOOTH",
"479 368 OFFCURVE",
"475 347 OFFCURVE",
"470 322 CURVE SMOOTH",
"450 229 OFFCURVE",
"416 195 OFFCURVE",
"345 195 CURVE SMOOTH"
);
},
{
closed = 1;
nodes = (
"385 688 LINE",
"480 795 LINE",
"534 688 LINE",
"695 688 LINE",
"566 904 LINE",
"425 904 LINE",
"205 688 LINE"
);
},
{
closed = 1;
nodes = (
"338 -213 LINE",
"368 -72 LINE",
"212 -72 LINE",
"182 -213 LINE"
);
}
);
width = 720;
}
);
leftKerningGroup = O;
note = Ocircumflexdotbelow;
rightKerningGroup = O;
unicode = 1ED8;
},
{
glyphname = Ocircumflexgrave;
lastChange = "2015-11-26 10:59:34 +0000";
layers = (
{
layerId = "098F4D9A-293F-4750-B0F4-D0E702B92EEF";
name = "Bold Italic";
paths = (
{
closed = 1;
nodes = (
"531 -10 OFFCURVE",
"665 79 OFFCURVE",
"717 322 CURVE SMOOTH",
"725 361 OFFCURVE",
"729 396 OFFCURVE",
"729 427 CURVE SMOOTH",
"729 591 OFFCURVE",
"619 654 OFFCURVE",
"443 654 CURVE SMOOTH",
"217 654 OFFCURVE",
"79 565 OFFCURVE",
"27 322 CURVE SMOOTH",
"19 284 OFFCURVE",
"15 250 OFFCURVE",
"15 220 CURVE SMOOTH",
"15 54 OFFCURVE",
"129 -10 OFFCURVE",
"301 -10 CURVE SMOOTH"
);
},
{
closed = 1;
nodes = (
"288 195 OFFCURVE",
"266 213 OFFCURVE",
"266 259 CURVE SMOOTH",
"266 276 OFFCURVE",
"269 297 OFFCURVE",
"274 322 CURVE SMOOTH",
"294 415 OFFCURVE",
"328 449 OFFCURVE",
"399 449 CURVE SMOOTH",
"457 449 OFFCURVE",
"479 431 OFFCURVE",
"479 385 CURVE SMOOTH",
"479 368 OFFCURVE",
"475 347 OFFCURVE",
"470 322 CURVE SMOOTH",
"450 229 OFFCURVE",
"416 195 OFFCURVE",
"345 195 CURVE SMOOTH"
);
},
{
closed = 1;
nodes = (
"334 820 LINE",
"296 992 LINE",
"120 992 LINE",
"166 820 LINE"
);
},
{
closed = 1;
nodes = (
"400 688 LINE",
"472 764 LINE",
"509 688 LINE",
"694 688 LINE",
"573 856 LINE",
"398 856 LINE",
"204 688 LINE"
);
}
);
width = 720;
}
);
leftKerningGroup = O;
note = Ocircumflexgrave;
rightKerningGroup = O;
unicode = 1ED2;
},
{
glyphname = Ocircumflexhookabove;
lastChange = "2015-11-26 10:59:35 +0000";
layers = (
{
layerId = "098F4D9A-293F-4750-B0F4-D0E702B92EEF";
name = "Bold Italic";
paths = (
{
closed = 1;
nodes = (
"531 -10 OFFCURVE",
"665 79 OFFCURVE",
"717 322 CURVE SMOOTH",
"725 361 OFFCURVE",
"729 396 OFFCURVE",
"729 427 CURVE SMOOTH",
"729 591 OFFCURVE",
"619 654 OFFCURVE",
"443 654 CURVE SMOOTH",
"217 654 OFFCURVE",
"79 565 OFFCURVE",
"27 322 CURVE SMOOTH",
"19 284 OFFCURVE",
"15 250 OFFCURVE",
"15 220 CURVE SMOOTH",
"15 54 OFFCURVE",
"129 -10 OFFCURVE",
"301 -10 CURVE SMOOTH"
);
},
{
closed = 1;
nodes = (
"288 195 OFFCURVE",
"266 213 OFFCURVE",
"266 259 CURVE SMOOTH",
"266 276 OFFCURVE",
"269 297 OFFCURVE",
"274 322 CURVE SMOOTH",
"294 415 OFFCURVE",
"328 449 OFFCURVE",
"399 449 CURVE SMOOTH",
"457 449 OFFCURVE",
"479 431 OFFCURVE",
"479 385 CURVE SMOOTH",
"479 368 OFFCURVE",
"475 347 OFFCURVE",
"470 322 CURVE SMOOTH",
"450 229 OFFCURVE",
"416 195 OFFCURVE",
"345 195 CURVE SMOOTH"
);
},
{
closed = 1;
nodes = (
"397 688 LINE",
"466 764 LINE",
"506 688 LINE",
"687 688 LINE",
"566 856 LINE",
"391 856 LINE",
"197 688 LINE"
);
},
{
closed = 1;
nodes = (
"776 797 LINE",
"783 828 LINE",
"833 837 OFFCURVE",
"862 871 OFFCURVE",
"872 917 CURVE SMOOTH",
"873 922 OFFCURVE",
"874 928 OFFCURVE",
"874 933 CURVE SMOOTH",
"874 976 OFFCURVE",
"836 1009 OFFCURVE",
"762 1009 CURVE SMOOTH",
"712 1009 OFFCURVE",
"672 1004 OFFCURVE",
"645 997 CURVE",
"625 905 LINE",
"639 910 OFFCURVE",
"658 915 OFFCURVE",
"674 915 CURVE SMOOTH",
"694 915 OFFCURVE",
"705 913 OFFCURVE",
"705 903 CURVE SMOOTH",
"705 890 OFFCURVE",
"693 879 OFFCURVE",
"637 877 CURVE",
"620 797 LINE"
);
}
);
width = 720;
}
);
leftKerningGroup = O;
note = Ocircumflexhookabove;
rightKerningGroup = O;
unicode = 1ED4;
},
{
glyphname = Ocircumflextilde;
lastChange = "2015-11-26 10:59:35 +0000";
layers = (
{
layerId = "098F4D9A-293F-4750-B0F4-D0E702B92EEF";
name = "Bold Italic";
paths = (
{
closed = 1;
nodes = (
"531 -10 OFFCURVE",
"665 79 OFFCURVE",
"717 322 CURVE SMOOTH",
"725 361 OFFCURVE",
"729 396 OFFCURVE",
"729 427 CURVE SMOOTH",
"729 591 OFFCURVE",
"619 654 OFFCURVE",
"443 654 CURVE SMOOTH",
"217 654 OFFCURVE",
"79 565 OFFCURVE",
"27 322 CURVE SMOOTH",
"19 284 OFFCURVE",
"15 250 OFFCURVE",
"15 220 CURVE SMOOTH",
"15 54 OFFCURVE",
"129 -10 OFFCURVE",
"301 -10 CURVE SMOOTH"
);
},
{
closed = 1;
nodes = (
"288 195 OFFCURVE",
"266 213 OFFCURVE",
"266 259 CURVE SMOOTH",
"266 276 OFFCURVE",
"269 297 OFFCURVE",
"274 322 CURVE SMOOTH",
"294 415 OFFCURVE",
"328 449 OFFCURVE",
"399 449 CURVE SMOOTH",
"457 449 OFFCURVE",
"479 431 OFFCURVE",
"479 385 CURVE SMOOTH",
"479 368 OFFCURVE",
"475 347 OFFCURVE",
"470 322 CURVE SMOOTH",
"450 229 OFFCURVE",
"416 195 OFFCURVE",
"345 195 CURVE SMOOTH"
);
},
{
closed = 1;
nodes = (
"572 688 OFFCURVE",
"662 747 OFFCURVE",
"690 876 CURVE",
"549 876 LINE",
"540 836 OFFCURVE",
"520 805 OFFCURVE",
"468 805 CURVE SMOOTH",
"432 805 OFFCURVE",
"416 821 OFFCURVE",
"416 850 CURVE SMOOTH",
"416 857 OFFCURVE",
"418 866 OFFCURVE",
"420 876 CURVE",
"293 876 LINE",
"289 858 OFFCURVE",
"287 841 OFFCURVE",
"287 825 CURVE SMOOTH",
"287 732 OFFCURVE",
"357 688 OFFCURVE",
"451 688 CURVE SMOOTH"
);
},
{
closed = 1;
nodes = (
"639 901 OFFCURVE",
"681 917 OFFCURVE",
"696 934 CURVE",
"722 1059 LINE",
"703 1038 OFFCURVE",
"665 1020 OFFCURVE",
"621 1020 CURVE SMOOTH",
"556 1020 OFFCURVE",
"508 1062 OFFCURVE",
"438 1062 CURVE SMOOTH",
"398 1062 OFFCURVE",
"357 1046 OFFCURVE",
"334 1029 CURVE",
"308 904 LINE",
"335 927 OFFCURVE",
"372 943 OFFCURVE",
"416 943 CURVE SMOOTH",
"475 943 OFFCURVE",
"531 901 OFFCURVE",
"599 901 CURVE SMOOTH"
);
}
);
width = 720;
}
);
leftKerningGroup = O;
note = Ocircumflextilde;
rightKerningGroup = O;
unicode = 1ED6;
},
{
glyphname = Odieresis;
lastChange = "2015-11-26 10:59:35 +0000";
layers = (
{
layerId = "098F4D9A-293F-4750-B0F4-D0E702B92EEF";
name = "Bold Italic";
paths = (
{
closed = 1;
nodes = (
"531 -10 OFFCURVE",
"665 79 OFFCURVE",
"717 322 CURVE SMOOTH",
"725 361 OFFCURVE",
"729 396 OFFCURVE",
"729 427 CURVE SMOOTH",
"729 591 OFFCURVE",
"619 654 OFFCURVE",
"443 654 CURVE SMOOTH",
"217 654 OFFCURVE",
"79 565 OFFCURVE",
"27 322 CURVE SMOOTH",
"19 284 OFFCURVE",
"15 250 OFFCURVE",
"15 220 CURVE SMOOTH",
"15 54 OFFCURVE",
"129 -10 OFFCURVE",
"301 -10 CURVE SMOOTH"
);
},
{
closed = 1;
nodes = (
"288 195 OFFCURVE",
"266 213 OFFCURVE",
"266 259 CURVE SMOOTH",
"266 276 OFFCURVE",
"269 297 OFFCURVE",
"274 322 CURVE SMOOTH",
"294 415 OFFCURVE",
"328 449 OFFCURVE",
"399 449 CURVE SMOOTH",
"457 449 OFFCURVE",
"479 431 OFFCURVE",
"479 385 CURVE SMOOTH",
"479 368 OFFCURVE",
"475 347 OFFCURVE",
"470 322 CURVE SMOOTH",
"450 229 OFFCURVE",
"416 195 OFFCURVE",
"345 195 CURVE SMOOTH"
);
},
{
closed = 1;
nodes = (
"416 718 LINE",
"446 859 LINE",
"291 859 LINE",
"261 718 LINE"
);
},
{
closed = 1;
nodes = (
"651 718 LINE",
"681 859 LINE",
"525 859 LINE",
"495 718 LINE"
);
}
);
width = 720;
}
);
leftKerningGroup = O;
note = Odieresis;
rightKerningGroup = O;
unicode = 00D6;
},
{
glyphname = Odotbelow;
lastChange = "2015-11-26 11:01:11 +0000";
layers = (
{
layerId = "098F4D9A-293F-4750-B0F4-D0E702B92EEF";
name = "Bold Italic";
paths = (
{
closed = 1;
nodes = (
"531 -10 OFFCURVE",
"665 79 OFFCURVE",
"717 322 CURVE SMOOTH",
"725 361 OFFCURVE",
"729 396 OFFCURVE",
"729 427 CURVE SMOOTH",
"729 591 OFFCURVE",
"619 654 OFFCURVE",
"443 654 CURVE SMOOTH",
"217 654 OFFCURVE",
"79 565 OFFCURVE",
"27 322 CURVE SMOOTH",
"19 284 OFFCURVE",
"15 250 OFFCURVE",
"15 220 CURVE SMOOTH",
"15 54 OFFCURVE",
"129 -10 OFFCURVE",
"301 -10 CURVE SMOOTH"
);
},
{
closed = 1;
nodes = (
"288 195 OFFCURVE",
"266 213 OFFCURVE",
"266 259 CURVE SMOOTH",
"266 276 OFFCURVE",
"269 297 OFFCURVE",
"274 322 CURVE SMOOTH",
"294 415 OFFCURVE",
"328 449 OFFCURVE",
"399 449 CURVE SMOOTH",
"457 449 OFFCURVE",
"479 431 OFFCURVE",
"479 385 CURVE SMOOTH",
"479 368 OFFCURVE",
"475 347 OFFCURVE",
"470 322 CURVE SMOOTH",
"450 229 OFFCURVE",
"416 195 OFFCURVE",
"345 195 CURVE SMOOTH"
);
},
{
closed = 1;
nodes = (
"337 -213 LINE",
"367 -72 LINE",
"211 -72 LINE",
"181 -213 LINE"
);
}
);
width = 720;
}
);
leftKerningGroup = O;
note = Odotbelow;
rightKerningGroup = O;
unicode = 1ECC;
},
{
glyphname = Ograve;
lastChange = "2015-11-26 10:59:35 +0000";
layers = (
{
layerId = "098F4D9A-293F-4750-B0F4-D0E702B92EEF";
name = "Bold Italic";
paths = (
{
closed = 1;
nodes = (
"531 -10 OFFCURVE",
"665 79 OFFCURVE",
"717 322 CURVE SMOOTH",
"725 361 OFFCURVE",
"729 396 OFFCURVE",
"729 427 CURVE SMOOTH",
"729 591 OFFCURVE",
"619 654 OFFCURVE",
"443 654 CURVE SMOOTH",
"217 654 OFFCURVE",
"79 565 OFFCURVE",
"27 322 CURVE SMOOTH",
"19 284 OFFCURVE",
"15 250 OFFCURVE",
"15 220 CURVE SMOOTH",
"15 54 OFFCURVE",
"129 -10 OFFCURVE",
"301 -10 CURVE SMOOTH"
);
},
{
closed = 1;
nodes = (
"288 195 OFFCURVE",
"266 213 OFFCURVE",
"266 259 CURVE SMOOTH",
"266 276 OFFCURVE",
"269 297 OFFCURVE",
"274 322 CURVE SMOOTH",
"294 415 OFFCURVE",
"328 449 OFFCURVE",
"399 449 CURVE SMOOTH",
"457 449 OFFCURVE",
"479 431 OFFCURVE",
"479 385 CURVE SMOOTH",
"479 368 OFFCURVE",
"475 347 OFFCURVE",
"470 322 CURVE SMOOTH",
"450 229 OFFCURVE",
"416 195 OFFCURVE",
"345 195 CURVE SMOOTH"
);
},
{
closed = 1;
nodes = (
"544 688 LINE",
"496 914 LINE",
"310 914 LINE",
"367 688 LINE"
);
}
);
width = 720;
}
);
leftKerningGroup = O;
note = Ograve;
rightKerningGroup = O;
unicode = 00D2;
},
{
glyphname = Ohookabove;
lastChange = "2015-11-26 10:59:35 +0000";
layers = (
{
layerId = "098F4D9A-293F-4750-B0F4-D0E702B92EEF";
name = "Bold Italic";
paths = (
{
closed = 1;
nodes = (
"531 -10 OFFCURVE",
"665 79 OFFCURVE",
"717 322 CURVE SMOOTH",
"725 361 OFFCURVE",
"729 396 OFFCURVE",
"729 427 CURVE SMOOTH",
"729 591 OFFCURVE",
"619 654 OFFCURVE",
"443 654 CURVE SMOOTH",
"217 654 OFFCURVE",
"79 565 OFFCURVE",
"27 322 CURVE SMOOTH",
"19 284 OFFCURVE",
"15 250 OFFCURVE",
"15 220 CURVE SMOOTH",
"15 54 OFFCURVE",
"129 -10 OFFCURVE",
"301 -10 CURVE SMOOTH"
);
},
{
closed = 1;
nodes = (
"288 195 OFFCURVE",
"266 213 OFFCURVE",
"266 259 CURVE SMOOTH",
"266 276 OFFCURVE",
"269 297 OFFCURVE",
"274 322 CURVE SMOOTH",
"294 415 OFFCURVE",
"328 449 OFFCURVE",
"399 449 CURVE SMOOTH",
"457 449 OFFCURVE",
"479 431 OFFCURVE",
"479 385 CURVE SMOOTH",
"479 368 OFFCURVE",
"475 347 OFFCURVE",
"470 322 CURVE SMOOTH",
"450 229 OFFCURVE",
"416 195 OFFCURVE",
"345 195 CURVE SMOOTH"
);
},
{
closed = 1;
nodes = (
"535 688 LINE",
"543 724 LINE",
"604 742 OFFCURVE",
"634 768 OFFCURVE",
"647 828 CURVE SMOOTH",
"648 835 OFFCURVE",
"649 841 OFFCURVE",
"649 848 CURVE SMOOTH",
"649 898 OFFCURVE",
"604 935 OFFCURVE",
"518 935 CURVE SMOOTH",
"460 935 OFFCURVE",
"419 929 OFFCURVE",
"385 920 CURVE",
"365 826 LINE",
"382 832 OFFCURVE",
"403 836 OFFCURVE",
"423 836 CURVE SMOOTH",
"457 836 OFFCURVE",
"472 828 OFFCURVE",
"467 808 CURVE",
"463 788 OFFCURVE",
"440 773 OFFCURVE",
"374 769 CURVE",
"357 688 LINE"
);
}
);
width = 720;
}
);
leftKerningGroup = O;
note = Ohookabove;
rightKerningGroup = O;
unicode = 1ECE;
},
{
glyphname = Ohorn;
lastChange = "2015-11-26 10:59:36 +0000";
layers = (
{
layerId = "098F4D9A-293F-4750-B0F4-D0E702B92EEF";
name = "Bold Italic";
paths = (
{
closed = 1;
nodes = (
"531 -10 OFFCURVE",
"665 79 OFFCURVE",
"717 322 CURVE SMOOTH",
"725 362 OFFCURVE",
"729 398 OFFCURVE",
"729 429 CURVE SMOOTH",
"729 439 OFFCURVE",
"729 449 OFFCURVE",
"728 458 CURVE",
"834 483 OFFCURVE",
"886 550 OFFCURVE",
"916 688 CURVE",
"747 688 LINE",
"733 626 OFFCURVE",
"707 604 OFFCURVE",
"653 601 CURVE",
"603 638 OFFCURVE",
"531 654 OFFCURVE",
"443 654 CURVE SMOOTH",
"217 654 OFFCURVE",
"79 565 OFFCURVE",
"27 322 CURVE SMOOTH",
"19 284 OFFCURVE",
"15 250 OFFCURVE",
"15 220 CURVE SMOOTH",
"15 54 OFFCURVE",
"129 -10 OFFCURVE",
"301 -10 CURVE SMOOTH"
);
},
{
closed = 1;
nodes = (
"288 195 OFFCURVE",
"266 213 OFFCURVE",
"266 259 CURVE SMOOTH",
"266 276 OFFCURVE",
"269 297 OFFCURVE",
"274 322 CURVE SMOOTH",
"294 415 OFFCURVE",
"328 449 OFFCURVE",
"399 449 CURVE SMOOTH",
"457 449 OFFCURVE",
"479 431 OFFCURVE",
"479 385 CURVE SMOOTH",
"479 368 OFFCURVE",
"475 347 OFFCURVE",
"470 322 CURVE SMOOTH",
"450 229 OFFCURVE",
"416 195 OFFCURVE",
"345 195 CURVE SMOOTH"
);
}
);
width = 821;
}
);
leftKerningGroup = O;
note = Ohorn;
rightKerningGroup = O;
unicode = 01A0;
},
{
glyphname = Ohornacute;
lastChange = "2015-11-26 10:59:35 +0000";
layers = (
{
layerId = "098F4D9A-293F-4750-B0F4-D0E702B92EEF";
name = "Bold Italic";
paths = (
{
closed = 1;
nodes = (
"531 -10 OFFCURVE",
"665 79 OFFCURVE",
"717 322 CURVE SMOOTH",
"725 362 OFFCURVE",
"729 398 OFFCURVE",
"729 429 CURVE SMOOTH",
"729 439 OFFCURVE",
"729 449 OFFCURVE",
"728 458 CURVE",
"834 483 OFFCURVE",
"886 550 OFFCURVE",
"916 688 CURVE",
"747 688 LINE",
"733 626 OFFCURVE",
"707 604 OFFCURVE",
"653 601 CURVE",
"603 638 OFFCURVE",
"531 654 OFFCURVE",
"443 654 CURVE SMOOTH",
"217 654 OFFCURVE",
"79 565 OFFCURVE",
"27 322 CURVE SMOOTH",
"19 284 OFFCURVE",
"15 250 OFFCURVE",
"15 220 CURVE SMOOTH",
"15 54 OFFCURVE",
"129 -10 OFFCURVE",
"301 -10 CURVE SMOOTH"
);
},
{
closed = 1;
nodes = (
"288 195 OFFCURVE",
"266 213 OFFCURVE",
"266 259 CURVE SMOOTH",
"266 276 OFFCURVE",
"269 297 OFFCURVE",
"274 322 CURVE SMOOTH",
"294 415 OFFCURVE",
"328 449 OFFCURVE",
"399 449 CURVE SMOOTH",
"457 449 OFFCURVE",
"479 431 OFFCURVE",
"479 385 CURVE SMOOTH",
"479 368 OFFCURVE",
"475 347 OFFCURVE",
"470 322 CURVE SMOOTH",
"450 229 OFFCURVE",
"416 195 OFFCURVE",
"345 195 CURVE SMOOTH"
);
},
{
closed = 1;
nodes = (
"545 688 LINE",
"698 914 LINE",
"512 914 LINE",
"368 688 LINE"
);
}
);
width = 821;
}
);
leftKerningGroup = O;
note = Ohornacute;
rightKerningGroup = O;
unicode = 1EDA;
},
{
glyphname = Ohorndotbelow;
lastChange = "2015-11-26 11:01:20 +0000";
layers = (
{
layerId = "098F4D9A-293F-4750-B0F4-D0E702B92EEF";
name = "Bold Italic";
paths = (
{
closed = 1;
nodes = (
"531 -10 OFFCURVE",
"665 79 OFFCURVE",
"717 322 CURVE SMOOTH",
"725 362 OFFCURVE",
"729 398 OFFCURVE",
"729 429 CURVE SMOOTH",
"729 439 OFFCURVE",
"729 449 OFFCURVE",
"728 458 CURVE",
"834 483 OFFCURVE",
"886 550 OFFCURVE",
"916 688 CURVE",
"747 688 LINE",
"733 626 OFFCURVE",
"707 604 OFFCURVE",
"653 601 CURVE",
"603 638 OFFCURVE",
"531 654 OFFCURVE",
"443 654 CURVE SMOOTH",
"217 654 OFFCURVE",
"79 565 OFFCURVE",
"27 322 CURVE SMOOTH",
"19 284 OFFCURVE",
"15 250 OFFCURVE",
"15 220 CURVE SMOOTH",
"15 54 OFFCURVE",
"129 -10 OFFCURVE",
"301 -10 CURVE SMOOTH"
);
},
{
closed = 1;
nodes = (
"288 195 OFFCURVE",
"266 213 OFFCURVE",
"266 259 CURVE SMOOTH",
"266 276 OFFCURVE",
"269 297 OFFCURVE",
"274 322 CURVE SMOOTH",
"294 415 OFFCURVE",
"328 449 OFFCURVE",
"399 449 CURVE SMOOTH",
"457 449 OFFCURVE",
"479 431 OFFCURVE",
"479 385 CURVE SMOOTH",
"479 368 OFFCURVE",
"475 347 OFFCURVE",
"470 322 CURVE SMOOTH",
"450 229 OFFCURVE",
"416 195 OFFCURVE",
"345 195 CURVE SMOOTH"
);
},
{
closed = 1;
nodes = (
"339 -213 LINE",
"369 -72 LINE",
"213 -72 LINE",
"183 -213 LINE"
);
}
);
width = 821;
}
);
leftKerningGroup = O;
note = Ohorndotbelow;
rightKerningGroup = O;
unicode = 1EE2;
},
{
glyphname = Ohorngrave;
lastChange = "2015-11-26 10:59:36 +0000";
layers = (
{
layerId = "098F4D9A-293F-4750-B0F4-D0E702B92EEF";
name = "Bold Italic";
paths = (
{
closed = 1;
nodes = (
"531 -10 OFFCURVE",
"665 79 OFFCURVE",
"717 322 CURVE SMOOTH",
"725 362 OFFCURVE",
"729 398 OFFCURVE",
"729 429 CURVE SMOOTH",
"729 439 OFFCURVE",
"729 449 OFFCURVE",
"728 458 CURVE",
"834 483 OFFCURVE",
"886 550 OFFCURVE",
"916 688 CURVE",
"747 688 LINE",
"733 626 OFFCURVE",
"707 604 OFFCURVE",
"653 601 CURVE",
"603 638 OFFCURVE",
"531 654 OFFCURVE",
"443 654 CURVE SMOOTH",
"217 654 OFFCURVE",
"79 565 OFFCURVE",
"27 322 CURVE SMOOTH",
"19 284 OFFCURVE",
"15 250 OFFCURVE",
"15 220 CURVE SMOOTH",
"15 54 OFFCURVE",
"129 -10 OFFCURVE",
"301 -10 CURVE SMOOTH"
);
},
{
closed = 1;
nodes = (
"288 195 OFFCURVE",
"266 213 OFFCURVE",
"266 259 CURVE SMOOTH",
"266 276 OFFCURVE",
"269 297 OFFCURVE",
"274 322 CURVE SMOOTH",
"294 415 OFFCURVE",
"328 449 OFFCURVE",
"399 449 CURVE SMOOTH",
"457 449 OFFCURVE",
"479 431 OFFCURVE",
"479 385 CURVE SMOOTH",
"479 368 OFFCURVE",
"475 347 OFFCURVE",
"470 322 CURVE SMOOTH",
"450 229 OFFCURVE",
"416 195 OFFCURVE",
"345 195 CURVE SMOOTH"
);
},
{
closed = 1;
nodes = (
"558 688 LINE",
"510 914 LINE",
"324 914 LINE",
"381 688 LINE"
);
}
);
width = 821;
}
);
leftKerningGroup = O;
note = Ohorngrave;
rightKerningGroup = O;
unicode = 1EDC;
},
{
glyphname = Ohornhookabove;
lastChange = "2015-11-26 10:59:34 +0000";
layers = (
{
layerId = "098F4D9A-293F-4750-B0F4-D0E702B92EEF";
name = "Bold Italic";
paths = (
{
closed = 1;
nodes = (
"531 -10 OFFCURVE",
"665 79 OFFCURVE",
"717 322 CURVE SMOOTH",
"725 362 OFFCURVE",
"729 398 OFFCURVE",
"729 429 CURVE SMOOTH",
"729 439 OFFCURVE",
"729 449 OFFCURVE",
"728 458 CURVE",
"834 483 OFFCURVE",
"886 550 OFFCURVE",
"916 688 CURVE",
"747 688 LINE",
"733 626 OFFCURVE",
"707 604 OFFCURVE",
"653 601 CURVE",
"603 638 OFFCURVE",
"531 654 OFFCURVE",
"443 654 CURVE SMOOTH",
"217 654 OFFCURVE",
"79 565 OFFCURVE",
"27 322 CURVE SMOOTH",
"19 284 OFFCURVE",
"15 250 OFFCURVE",
"15 220 CURVE SMOOTH",
"15 54 OFFCURVE",
"129 -10 OFFCURVE",
"301 -10 CURVE SMOOTH"
);
},
{
closed = 1;
nodes = (
"288 195 OFFCURVE",
"266 213 OFFCURVE",
"266 259 CURVE SMOOTH",
"266 276 OFFCURVE",
"269 297 OFFCURVE",
"274 322 CURVE SMOOTH",
"294 415 OFFCURVE",
"328 449 OFFCURVE",
"399 449 CURVE SMOOTH",
"457 449 OFFCURVE",
"479 431 OFFCURVE",
"479 385 CURVE SMOOTH",
"479 368 OFFCURVE",
"475 347 OFFCURVE",
"470 322 CURVE SMOOTH",
"450 229 OFFCURVE",
"416 195 OFFCURVE",
"345 195 CURVE SMOOTH"
);
},
{
closed = 1;
nodes = (
"536 688 LINE",
"544 724 LINE",
"605 742 OFFCURVE",
"635 768 OFFCURVE",
"648 828 CURVE SMOOTH",
"649 835 OFFCURVE",
"650 841 OFFCURVE",
"650 848 CURVE SMOOTH",
"650 898 OFFCURVE",
"605 935 OFFCURVE",
"519 935 CURVE SMOOTH",
"461 935 OFFCURVE",
"420 929 OFFCURVE",
"386 920 CURVE",
"366 826 LINE",
"383 832 OFFCURVE",
"404 836 OFFCURVE",
"424 836 CURVE SMOOTH",
"458 836 OFFCURVE",
"473 828 OFFCURVE",
"468 808 CURVE",
"464 788 OFFCURVE",
"441 773 OFFCURVE",
"375 769 CURVE",
"358 688 LINE"
);
}
);
width = 821;
}
);
leftKerningGroup = O;
note = Ohornhookabove;
rightKerningGroup = O;
unicode = 1EDE;
},
{
glyphname = Ohorntilde;
lastChange = "2015-11-26 10:59:35 +0000";
layers = (
{
layerId = "098F4D9A-293F-4750-B0F4-D0E702B92EEF";
name = "Bold Italic";
paths = (
{
closed = 1;
nodes = (
"531 -10 OFFCURVE",
"665 79 OFFCURVE",
"717 322 CURVE SMOOTH",
"725 362 OFFCURVE",
"729 398 OFFCURVE",
"729 429 CURVE SMOOTH",
"729 439 OFFCURVE",
"729 449 OFFCURVE",
"728 458 CURVE",
"834 483 OFFCURVE",
"886 550 OFFCURVE",
"916 688 CURVE",
"747 688 LINE",
"733 626 OFFCURVE",
"707 604 OFFCURVE",
"653 601 CURVE",
"603 638 OFFCURVE",
"531 654 OFFCURVE",
"443 654 CURVE SMOOTH",
"217 654 OFFCURVE",
"79 565 OFFCURVE",
"27 322 CURVE SMOOTH",
"19 284 OFFCURVE",
"15 250 OFFCURVE",
"15 220 CURVE SMOOTH",
"15 54 OFFCURVE",
"129 -10 OFFCURVE",
"301 -10 CURVE SMOOTH"
);
},
{
closed = 1;
nodes = (
"288 195 OFFCURVE",
"266 213 OFFCURVE",
"266 259 CURVE SMOOTH",
"266 276 OFFCURVE",
"269 297 OFFCURVE",
"274 322 CURVE SMOOTH",
"294 415 OFFCURVE",
"328 449 OFFCURVE",
"399 449 CURVE SMOOTH",
"457 449 OFFCURVE",
"479 431 OFFCURVE",
"479 385 CURVE SMOOTH",
"479 368 OFFCURVE",
"475 347 OFFCURVE",
"470 322 CURVE SMOOTH",
"450 229 OFFCURVE",
"416 195 OFFCURVE",
"345 195 CURVE SMOOTH"
);
},
{
closed = 1;
nodes = (
"601 688 OFFCURVE",
"644 705 OFFCURVE",
"661 723 CURVE",
"691 864 LINE",
"670 842 OFFCURVE",
"630 823 OFFCURVE",
"584 823 CURVE SMOOTH",
"515 823 OFFCURVE",
"466 867 OFFCURVE",
"393 867 CURVE SMOOTH",
"351 867 OFFCURVE",
"307 850 OFFCURVE",
"283 832 CURVE",
"253 691 LINE",
"282 715 OFFCURVE",
"321 732 OFFCURVE",
"367 732 CURVE SMOOTH",
"428 732 OFFCURVE",
"487 688 OFFCURVE",
"559 688 CURVE SMOOTH"
);
}
);
width = 821;
}
);
leftKerningGroup = O;
note = Ohorntilde;
rightKerningGroup = O;
unicode = 1EE0;
},
{
glyphname = Ohungarumlaut;
lastChange = "2015-11-26 10:59:35 +0000";
layers = (
{
layerId = "098F4D9A-293F-4750-B0F4-D0E702B92EEF";
name = "Bold Italic";
paths = (
{
closed = 1;
nodes = (
"531 -10 OFFCURVE",
"665 79 OFFCURVE",
"717 322 CURVE SMOOTH",
"725 361 OFFCURVE",
"729 396 OFFCURVE",
"729 427 CURVE SMOOTH",
"729 591 OFFCURVE",
"619 654 OFFCURVE",
"443 654 CURVE SMOOTH",
"217 654 OFFCURVE",
"79 565 OFFCURVE",
"27 322 CURVE SMOOTH",
"19 284 OFFCURVE",
"15 250 OFFCURVE",
"15 220 CURVE SMOOTH",
"15 54 OFFCURVE",
"129 -10 OFFCURVE",
"301 -10 CURVE SMOOTH"
);
},
{
closed = 1;
nodes = (
"288 195 OFFCURVE",
"266 213 OFFCURVE",
"266 259 CURVE SMOOTH",
"266 276 OFFCURVE",
"269 297 OFFCURVE",
"274 322 CURVE SMOOTH",
"294 415 OFFCURVE",
"328 449 OFFCURVE",
"399 449 CURVE SMOOTH",
"457 449 OFFCURVE",
"479 431 OFFCURVE",
"479 385 CURVE SMOOTH",
"479 368 OFFCURVE",
"475 347 OFFCURVE",
"470 322 CURVE SMOOTH",
"450 229 OFFCURVE",
"416 195 OFFCURVE",
"345 195 CURVE SMOOTH"
);
},
{
closed = 1;
nodes = (
"367 688 LINE",
"523 891 LINE",
"318 891 LINE",
"180 688 LINE"
);
},
{
closed = 1;
nodes = (
"636 688 LINE",
"793 891 LINE",
"587 891 LINE",
"449 688 LINE"
);
}
);
width = 720;
}
);
leftKerningGroup = O;
note = Ohungarumlaut;
rightKerningGroup = O;
unicode = 0150;
},
{
glyphname = Omacron;
lastChange = "2015-11-26 10:59:35 +0000";
layers = (
{
layerId = "098F4D9A-293F-4750-B0F4-D0E702B92EEF";
name = "Bold Italic";
paths = (
{
closed = 1;
nodes = (
"531 -10 OFFCURVE",
"665 79 OFFCURVE",
"717 322 CURVE SMOOTH",
"725 361 OFFCURVE",
"729 396 OFFCURVE",
"729 427 CURVE SMOOTH",
"729 591 OFFCURVE",
"619 654 OFFCURVE",
"443 654 CURVE SMOOTH",
"217 654 OFFCURVE",
"79 565 OFFCURVE",
"27 322 CURVE SMOOTH",
"19 284 OFFCURVE",
"15 250 OFFCURVE",
"15 220 CURVE SMOOTH",
"15 54 OFFCURVE",
"129 -10 OFFCURVE",
"301 -10 CURVE SMOOTH"
);
},
{
closed = 1;
nodes = (
"288 195 OFFCURVE",
"266 213 OFFCURVE",
"266 259 CURVE SMOOTH",
"266 276 OFFCURVE",
"269 297 OFFCURVE",
"274 322 CURVE SMOOTH",
"294 415 OFFCURVE",
"328 449 OFFCURVE",
"399 449 CURVE SMOOTH",
"457 449 OFFCURVE",
"479 431 OFFCURVE",
"479 385 CURVE SMOOTH",
"479 368 OFFCURVE",
"475 347 OFFCURVE",
"470 322 CURVE SMOOTH",
"450 229 OFFCURVE",
"416 195 OFFCURVE",
"345 195 CURVE SMOOTH"
);
},
{
closed = 1;
nodes = (
"626 729 LINE",
"656 869 LINE",
"308 869 LINE",
"278 729 LINE"
);
}
);
width = 720;
}
);
leftKerningGroup = O;
note = Omacron;
rightKerningGroup = O;
unicode = 014C;
},
{
glyphname = Oslash;
lastChange = "2015-11-26 10:59:34 +0000";
layers = (
{
layerId = "098F4D9A-293F-4750-B0F4-D0E702B92EEF";
name = "Bold Italic";
paths = (
{
closed = 1;
nodes = (
"177 -53 LINE",
"208 -2 LINE",
"237 -7 OFFCURVE",
"268 -10 OFFCURVE",
"301 -10 CURVE SMOOTH",
"531 -10 OFFCURVE",
"665 79 OFFCURVE",
"717 322 CURVE SMOOTH",
"725 361 OFFCURVE",
"729 396 OFFCURVE",
"729 427 CURVE SMOOTH",
"729 534 OFFCURVE",
"682 598 OFFCURVE",
"600 629 CURVE",
"640 693 LINE",
"563 693 LINE",
"534 647 LINE",
"506 651 OFFCURVE",
"476 654 OFFCURVE",
"443 654 CURVE SMOOTH",
"217 654 OFFCURVE",
"79 565 OFFCURVE",
"27 322 CURVE SMOOTH",
"19 284 OFFCURVE",
"15 250 OFFCURVE",
"15 219 CURVE SMOOTH",
"15 112 OFFCURVE",
"63 48 OFFCURVE",
"143 16 CURVE",
"100 -53 LINE"
);
},
{
closed = 1;
nodes = (
"264 231 OFFCURVE",
"261 245 OFFCURVE",
"261 263 CURVE SMOOTH",
"261 280 OFFCURVE",
"264 299 OFFCURVE",
"269 322 CURVE SMOOTH",
"290 420 OFFCURVE",
"325 455 OFFCURVE",
"400 455 CURVE SMOOTH",
"405 455 OFFCURVE",
"410 455 OFFCURVE",
"415 454 CURVE",
"270 220 LINE"
);
},
{
closed = 1;
nodes = (
"473 425 LINE",
"479 414 OFFCURVE",
"482 399 OFFCURVE",
"482 381 CURVE SMOOTH",
"482 365 OFFCURVE",
"480 345 OFFCURVE",
"475 322 CURVE SMOOTH",
"454 224 OFFCURVE",
"419 189 OFFCURVE",
"344 189 CURVE SMOOTH",
"327 189 LINE"
);
}
);
width = 720;
}
);
leftKerningGroup = O;
note = Oslash;
rightKerningGroup = O;
unicode = 00D8;
},
{
glyphname = Oslashacute;
lastChange = "2015-11-26 10:59:35 +0000";
layers = (
{
layerId = "098F4D9A-293F-4750-B0F4-D0E702B92EEF";
name = "Bold Italic";
paths = (
{
closed = 1;
nodes = (
"177 -53 LINE",
"208 -2 LINE",
"237 -7 OFFCURVE",
"268 -10 OFFCURVE",
"301 -10 CURVE SMOOTH",
"531 -10 OFFCURVE",
"665 79 OFFCURVE",
"717 322 CURVE SMOOTH",
"725 361 OFFCURVE",
"729 396 OFFCURVE",
"729 427 CURVE SMOOTH",
"729 534 OFFCURVE",
"682 598 OFFCURVE",
"600 629 CURVE",
"640 693 LINE",
"563 693 LINE",
"534 647 LINE",
"506 651 OFFCURVE",
"476 654 OFFCURVE",
"443 654 CURVE SMOOTH",
"217 654 OFFCURVE",
"79 565 OFFCURVE",
"27 322 CURVE SMOOTH",
"19 284 OFFCURVE",
"15 250 OFFCURVE",
"15 219 CURVE SMOOTH",
"15 112 OFFCURVE",
"63 48 OFFCURVE",
"143 16 CURVE",
"100 -53 LINE"
);
},
{
closed = 1;
nodes = (
"264 231 OFFCURVE",
"261 245 OFFCURVE",
"261 263 CURVE SMOOTH",
"261 280 OFFCURVE",
"264 299 OFFCURVE",
"269 322 CURVE SMOOTH",
"290 420 OFFCURVE",
"325 455 OFFCURVE",
"400 455 CURVE SMOOTH",
"405 455 OFFCURVE",
"410 455 OFFCURVE",
"415 454 CURVE",
"270 220 LINE"
);
},
{
closed = 1;
nodes = (
"473 425 LINE",
"479 414 OFFCURVE",
"482 399 OFFCURVE",
"482 381 CURVE SMOOTH",
"482 365 OFFCURVE",
"480 345 OFFCURVE",
"475 322 CURVE SMOOTH",
"454 224 OFFCURVE",
"419 189 OFFCURVE",
"344 189 CURVE SMOOTH",
"327 189 LINE"
);
},
{
closed = 1;
nodes = (
"485 688 LINE",
"638 914 LINE",
"452 914 LINE",
"308 688 LINE"
);
}
);
width = 720;
}
);
leftKerningGroup = O;
note = Oslashacute;
rightKerningGroup = O;
unicode = 01FE;
},
{
glyphname = Otilde;
lastChange = "2015-11-26 10:59:35 +0000";
layers = (
{
layerId = "098F4D9A-293F-4750-B0F4-D0E702B92EEF";
name = "Bold Italic";
paths = (
{
closed = 1;
nodes = (
"531 -10 OFFCURVE",
"665 79 OFFCURVE",
"717 322 CURVE SMOOTH",
"725 361 OFFCURVE",
"729 396 OFFCURVE",
"729 427 CURVE SMOOTH",
"729 591 OFFCURVE",
"619 654 OFFCURVE",
"443 654 CURVE SMOOTH",
"217 654 OFFCURVE",
"79 565 OFFCURVE",
"27 322 CURVE SMOOTH",
"19 284 OFFCURVE",
"15 250 OFFCURVE",
"15 220 CURVE SMOOTH",
"15 54 OFFCURVE",
"129 -10 OFFCURVE",
"301 -10 CURVE SMOOTH"
);
},
{
closed = 1;
nodes = (
"288 195 OFFCURVE",
"266 213 OFFCURVE",
"266 259 CURVE SMOOTH",
"266 276 OFFCURVE",
"269 297 OFFCURVE",
"274 322 CURVE SMOOTH",
"294 415 OFFCURVE",
"328 449 OFFCURVE",
"399 449 CURVE SMOOTH",
"457 449 OFFCURVE",
"479 431 OFFCURVE",
"479 385 CURVE SMOOTH",
"479 368 OFFCURVE",
"475 347 OFFCURVE",
"470 322 CURVE SMOOTH",
"450 229 OFFCURVE",
"416 195 OFFCURVE",
"345 195 CURVE SMOOTH"
);
},
{
closed = 1;
nodes = (
"604 713 OFFCURVE",
"647 730 OFFCURVE",
"664 748 CURVE",
"694 889 LINE",
"673 867 OFFCURVE",
"633 848 OFFCURVE",
"587 848 CURVE SMOOTH",
"518 848 OFFCURVE",
"469 892 OFFCURVE",
"396 892 CURVE SMOOTH",
"354 892 OFFCURVE",
"310 875 OFFCURVE",
"286 857 CURVE",
"256 716 LINE",
"285 740 OFFCURVE",
"324 757 OFFCURVE",
"370 757 CURVE SMOOTH",
"431 757 OFFCURVE",
"490 713 OFFCURVE",
"562 713 CURVE SMOOTH"
);
}
);
width = 720;
}
);
leftKerningGroup = O;
note = Otilde;
rightKerningGroup = O;
unicode = 00D5;
},
{
glyphname = OE;
lastChange = "2015-11-26 10:59:35 +0000";
layers = (
{
layerId = "098F4D9A-293F-4750-B0F4-D0E702B92EEF";
name = "Bold Italic";
paths = (
{
closed = 1;
nodes = (
"344 -10 OFFCURVE",
"384 -7 OFFCURVE",
"421 0 CURVE",
"920 0 LINE",
"956 174 LINE",
"683 174 LINE",
"696 232 LINE",
"931 232 LINE",
"969 412 LINE",
"734 412 LINE",
"746 470 LINE",
"1019 470 LINE",
"1056 644 LINE",
"551 644 LINE",
"519 651 OFFCURVE",
"482 654 OFFCURVE",
"443 654 CURVE SMOOTH",
"217 654 OFFCURVE",
"79 565 OFFCURVE",
"27 322 CURVE SMOOTH",
"19 284 OFFCURVE",
"15 250 OFFCURVE",
"15 220 CURVE SMOOTH",
"15 54 OFFCURVE",
"129 -10 OFFCURVE",
"301 -10 CURVE SMOOTH"
);
},
{
closed = 1;
nodes = (
"288 195 OFFCURVE",
"266 213 OFFCURVE",
"266 259 CURVE SMOOTH",
"266 276 OFFCURVE",
"269 297 OFFCURVE",
"274 322 CURVE SMOOTH",
"294 415 OFFCURVE",
"328 449 OFFCURVE",
"399 449 CURVE SMOOTH",
"457 449 OFFCURVE",
"479 431 OFFCURVE",
"479 385 CURVE SMOOTH",
"479 368 OFFCURVE",
"475 347 OFFCURVE",
"470 322 CURVE SMOOTH",
"450 229 OFFCURVE",
"416 195 OFFCURVE",
"345 195 CURVE SMOOTH"
);
}
);
width = 991;
}
);
leftKerningGroup = C;
note = OE;
unicode = 0152;
},
{
glyphname = P;
lastChange = "2015-11-26 10:59:35 +0000";
layers = (
{
layerId = "098F4D9A-293F-4750-B0F4-D0E702B92EEF";
name = "Bold Italic";
paths = (
{
closed = 1;
nodes = (
"221 0 LINE",
"251 144 LINE",
"367 144 LINE SMOOTH",
"542 144 OFFCURVE",
"638 252 OFFCURVE",
"668 393 CURVE SMOOTH",
"673 415 OFFCURVE",
"675 436 OFFCURVE",
"675 456 CURVE SMOOTH",
"675 563 OFFCURVE",
"610 644 OFFCURVE",
"477 644 CURVE SMOOTH",
"115 644 LINE",
"-21 0 LINE"
);
},
{
closed = 1;
nodes = (
"317 455 LINE",
"380 455 LINE SMOOTH",
"410 455 OFFCURVE",
"425 441 OFFCURVE",
"425 414 CURVE SMOOTH",
"425 408 OFFCURVE",
"424 401 OFFCURVE",
"422 393 CURVE SMOOTH",
"414 356 OFFCURVE",
"389 333 OFFCURVE",
"350 333 CURVE SMOOTH",
"291 333 LINE"
);
}
);
width = 636;
}
);
note = P;
unicode = 0050;
},
{
glyphname = Thorn;
lastChange = "2015-11-26 11:01:30 +0000";
layers = (
{
layerId = "098F4D9A-293F-4750-B0F4-D0E702B92EEF";
name = "Bold Italic";
paths = (
{
closed = 1;
nodes = (
"221 0 LINE",
"236 72 LINE",
"352 72 LINE SMOOTH",
"527 72 OFFCURVE",
"623 180 OFFCURVE",
"653 321 CURVE SMOOTH",
"657 341 OFFCURVE",
"659 361 OFFCURVE",
"659 380 CURVE SMOOTH",
"659 489 OFFCURVE",
"590 572 OFFCURVE",
"462 572 CURVE SMOOTH",
"342 572 LINE",
"357 644 LINE",
"115 644 LINE",
"-21 0 LINE"
);
},
{
closed = 1;
nodes = (
"302 383 LINE",
"365 383 LINE SMOOTH",
"395 383 OFFCURVE",
"409 368 OFFCURVE",
"409 342 CURVE SMOOTH",
"409 335 OFFCURVE",
"409 329 OFFCURVE",
"407 321 CURVE SMOOTH",
"399 284 OFFCURVE",
"374 261 OFFCURVE",
"335 261 CURVE SMOOTH",
"276 261 LINE"
);
}
);
width = 636;
}
);
note = Thorn;
unicode = 00DE;
},
{
glyphname = Q;
lastChange = "2015-11-26 10:59:36 +0000";
layers = (
{
layerId = "098F4D9A-293F-4750-B0F4-D0E702B92EEF";
name = "Bold Italic";
paths = (
{
closed = 1;
nodes = (
"406 -172 OFFCURVE",
"460 -164 OFFCURVE",
"488 -156 CURVE",
"517 -22 LINE",
"492 -30 OFFCURVE",
"467 -34 OFFCURVE",
"442 -34 CURVE SMOOTH",
"404 -34 OFFCURVE",
"386 -28 OFFCURVE",
"386 -5 CURVE",
"564 15 OFFCURVE",
"672 110 OFFCURVE",
"717 322 CURVE SMOOTH",
"725 361 OFFCURVE",
"729 396 OFFCURVE",
"729 427 CURVE SMOOTH",
"729 591 OFFCURVE",
"619 654 OFFCURVE",
"443 654 CURVE SMOOTH",
"217 654 OFFCURVE",
"79 565 OFFCURVE",
"27 322 CURVE SMOOTH",
"19 284 OFFCURVE",
"15 250 OFFCURVE",
"15 219 CURVE SMOOTH",
"15 89 OFFCURVE",
"86 22 OFFCURVE",
"199 -1 CURVE",
"197 -13 OFFCURVE",
"196 -25 OFFCURVE",
"196 -36 CURVE SMOOTH",
"196 -118 OFFCURVE",
"249 -172 OFFCURVE",
"352 -172 CURVE SMOOTH"
);
},
{
closed = 1;
nodes = (
"288 195 OFFCURVE",
"266 213 OFFCURVE",
"266 259 CURVE SMOOTH",
"266 276 OFFCURVE",
"269 297 OFFCURVE",
"274 322 CURVE SMOOTH",
"294 415 OFFCURVE",
"328 449 OFFCURVE",
"399 449 CURVE SMOOTH",
"457 449 OFFCURVE",
"479 431 OFFCURVE",
"479 385 CURVE SMOOTH",
"479 368 OFFCURVE",
"475 347 OFFCURVE",
"470 322 CURVE SMOOTH",
"450 229 OFFCURVE",
"416 195 OFFCURVE",
"345 195 CURVE SMOOTH"
);
}
);
width = 720;
}
);
leftKerningGroup = O;
note = Q;
rightKerningGroup = O;
unicode = 0051;
},
{
glyphname = R;
lastChange = "2015-11-26 10:59:34 +0000";
layers = (
{
layerId = "098F4D9A-293F-4750-B0F4-D0E702B92EEF";
name = "Bold Italic";
paths = (
{
closed = 1;
nodes = (
"221 0 LINE",
"255 164 LINE",
"265 164 LINE SMOOTH",
"280 164 OFFCURVE",
"286 158 OFFCURVE",
"289 143 CURVE SMOOTH",
"322 0 LINE",
"574 0 LINE",
"535 175 LINE SMOOTH",
"532 190 OFFCURVE",
"527 198 OFFCURVE",
"515 208 CURVE",
"596 252 OFFCURVE",
"652 316 OFFCURVE",
"670 403 CURVE SMOOTH",
"674 422 OFFCURVE",
"676 441 OFFCURVE",
"676 459 CURVE SMOOTH",
"676 567 OFFCURVE",
"602 644 OFFCURVE",
"477 644 CURVE SMOOTH",
"115 644 LINE",
"-21 0 LINE"
);
},
{
closed = 1;
nodes = (
"317 455 LINE",
"380 455 LINE SMOOTH",
"411 455 OFFCURVE",
"426 445 OFFCURVE",
"426 420 CURVE SMOOTH",
"426 415 OFFCURVE",
"425 409 OFFCURVE",
"424 403 CURVE SMOOTH",
"417 369 OFFCURVE",
"394 353 OFFCURVE",
"355 353 CURVE SMOOTH",
"296 353 LINE"
);
}
);
width = 656;
}
);
note = R;
rightKerningGroup = R;
unicode = 0052;
},
{
glyphname = Racute;
lastChange = "2015-11-26 10:59:34 +0000";
layers = (
{
layerId = "098F4D9A-293F-4750-B0F4-D0E702B92EEF";
name = "Bold Italic";
paths = (
{
closed = 1;
nodes = (
"221 0 LINE",
"255 164 LINE",
"265 164 LINE SMOOTH",
"280 164 OFFCURVE",
"286 158 OFFCURVE",
"289 143 CURVE SMOOTH",
"322 0 LINE",
"574 0 LINE",
"535 175 LINE SMOOTH",
"532 190 OFFCURVE",
"527 198 OFFCURVE",
"515 208 CURVE",
"596 252 OFFCURVE",
"652 316 OFFCURVE",
"670 403 CURVE SMOOTH",
"674 422 OFFCURVE",
"676 441 OFFCURVE",
"676 459 CURVE SMOOTH",
"676 567 OFFCURVE",
"602 644 OFFCURVE",
"477 644 CURVE SMOOTH",
"115 644 LINE",
"-21 0 LINE"
);
},
{
closed = 1;
nodes = (
"317 455 LINE",
"380 455 LINE SMOOTH",
"411 455 OFFCURVE",
"426 445 OFFCURVE",
"426 420 CURVE SMOOTH",
"426 415 OFFCURVE",
"425 409 OFFCURVE",
"424 403 CURVE SMOOTH",
"417 369 OFFCURVE",
"394 353 OFFCURVE",
"355 353 CURVE SMOOTH",
"296 353 LINE"
);
},
{
closed = 1;
nodes = (
"466 688 LINE",
"619 914 LINE",
"433 914 LINE",
"289 688 LINE"
);
}
);
width = 656;
}
);
note = Racute;
rightKerningGroup = R;
unicode = 0154;
},
{
glyphname = Rcaron;
lastChange = "2015-11-26 10:59:35 +0000";
layers = (
{
layerId = "098F4D9A-293F-4750-B0F4-D0E702B92EEF";
name = "Bold Italic";
paths = (
{
closed = 1;
nodes = (
"221 0 LINE",
"255 164 LINE",
"265 164 LINE SMOOTH",
"280 164 OFFCURVE",
"286 158 OFFCURVE",
"289 143 CURVE SMOOTH",
"322 0 LINE",
"574 0 LINE",
"535 175 LINE SMOOTH",
"532 190 OFFCURVE",
"527 198 OFFCURVE",
"515 208 CURVE",
"596 252 OFFCURVE",
"652 316 OFFCURVE",
"670 403 CURVE SMOOTH",
"674 422 OFFCURVE",
"676 441 OFFCURVE",
"676 459 CURVE SMOOTH",
"676 567 OFFCURVE",
"602 644 OFFCURVE",
"477 644 CURVE SMOOTH",
"115 644 LINE",
"-21 0 LINE"
);
},
{
closed = 1;
nodes = (
"317 455 LINE",
"380 455 LINE SMOOTH",
"411 455 OFFCURVE",
"426 445 OFFCURVE",
"426 420 CURVE SMOOTH",
"426 415 OFFCURVE",
"425 409 OFFCURVE",
"424 403 CURVE SMOOTH",
"417 369 OFFCURVE",
"394 353 OFFCURVE",
"355 353 CURVE SMOOTH",
"296 353 LINE"
);
},
{
closed = 1;
nodes = (
"464 688 LINE",
"685 904 LINE",
"510 904 LINE",
"411 797 LINE",
"360 904 LINE",
"195 904 LINE",
"324 688 LINE"
);
}
);
width = 656;
}
);
note = Rcaron;
rightKerningGroup = R;
unicode = 0158;
},
{
glyphname = Rcommaaccent;
lastChange = "2015-11-26 11:01:36 +0000";
layers = (
{
layerId = "098F4D9A-293F-4750-B0F4-D0E702B92EEF";
name = "Bold Italic";
paths = (
{
closed = 1;
nodes = (
"221 0 LINE",
"255 164 LINE",
"265 164 LINE SMOOTH",
"280 164 OFFCURVE",
"286 158 OFFCURVE",
"289 143 CURVE SMOOTH",
"322 0 LINE",
"574 0 LINE",
"535 175 LINE SMOOTH",
"532 190 OFFCURVE",
"527 198 OFFCURVE",
"515 208 CURVE",
"596 252 OFFCURVE",
"652 316 OFFCURVE",
"670 403 CURVE SMOOTH",
"674 422 OFFCURVE",
"676 441 OFFCURVE",
"676 459 CURVE SMOOTH",
"676 567 OFFCURVE",
"602 644 OFFCURVE",
"477 644 CURVE SMOOTH",
"115 644 LINE",
"-21 0 LINE"
);
},
{
closed = 1;
nodes = (
"317 455 LINE",
"380 455 LINE SMOOTH",
"411 455 OFFCURVE",
"426 445 OFFCURVE",
"426 420 CURVE SMOOTH",
"426 415 OFFCURVE",
"425 409 OFFCURVE",
"424 403 CURVE SMOOTH",
"417 369 OFFCURVE",
"394 353 OFFCURVE",
"355 353 CURVE SMOOTH",
"296 353 LINE"
);
},
{
closed = 1;
nodes = (
"237 -286 LINE",
"355 -37 LINE",
"176 -37 LINE",
"87 -286 LINE"
);
}
);
width = 656;
}
);
note = Rcommaaccent;
rightKerningGroup = R;
unicode = 0156;
},
{
glyphname = Rdotbelow;
lastChange = "2015-11-26 11:01:40 +0000";
layers = (
{
layerId = "098F4D9A-293F-4750-B0F4-D0E702B92EEF";
name = "Bold Italic";
paths = (
{
closed = 1;
nodes = (
"221 0 LINE",
"255 164 LINE",
"265 164 LINE SMOOTH",
"280 164 OFFCURVE",
"286 158 OFFCURVE",
"289 143 CURVE SMOOTH",
"322 0 LINE",
"574 0 LINE",
"535 175 LINE SMOOTH",
"532 190 OFFCURVE",
"527 198 OFFCURVE",
"515 208 CURVE",
"596 252 OFFCURVE",
"652 316 OFFCURVE",
"670 403 CURVE SMOOTH",
"674 422 OFFCURVE",
"676 441 OFFCURVE",
"676 459 CURVE SMOOTH",
"676 567 OFFCURVE",
"602 644 OFFCURVE",
"477 644 CURVE SMOOTH",
"115 644 LINE",
"-21 0 LINE"
);
},
{
closed = 1;
nodes = (
"317 455 LINE",
"380 455 LINE SMOOTH",
"411 455 OFFCURVE",
"426 445 OFFCURVE",
"426 420 CURVE SMOOTH",
"426 415 OFFCURVE",
"425 409 OFFCURVE",
"424 403 CURVE SMOOTH",
"417 369 OFFCURVE",
"394 353 OFFCURVE",
"355 353 CURVE SMOOTH",
"296 353 LINE"
);
},
{
closed = 1;
nodes = (
"290 -213 LINE",
"320 -72 LINE",
"164 -72 LINE",
"134 -213 LINE"
);
}
);
width = 656;
}
);
note = Rdotbelow;
rightKerningGroup = R;
unicode = 1E5A;
},
{
glyphname = Rdotbelowmacron;
lastChange = "2015-11-26 11:01:42 +0000";
layers = (
{
layerId = "098F4D9A-293F-4750-B0F4-D0E702B92EEF";
name = "Bold Italic";
paths = (
{
closed = 1;
nodes = (
"221 0 LINE",
"255 164 LINE",
"265 164 LINE SMOOTH",
"280 164 OFFCURVE",
"286 158 OFFCURVE",
"289 143 CURVE SMOOTH",
"322 0 LINE",
"574 0 LINE",
"535 175 LINE SMOOTH",
"532 190 OFFCURVE",
"527 198 OFFCURVE",
"515 208 CURVE",
"596 252 OFFCURVE",
"652 316 OFFCURVE",
"670 403 CURVE SMOOTH",
"674 422 OFFCURVE",
"676 441 OFFCURVE",
"676 459 CURVE SMOOTH",
"676 567 OFFCURVE",
"602 644 OFFCURVE",
"477 644 CURVE SMOOTH",
"115 644 LINE",
"-21 0 LINE"
);
},
{
closed = 1;
nodes = (
"317 455 LINE",
"380 455 LINE SMOOTH",
"411 455 OFFCURVE",
"426 445 OFFCURVE",
"426 420 CURVE SMOOTH",
"426 415 OFFCURVE",
"425 409 OFFCURVE",
"424 403 CURVE SMOOTH",
"417 369 OFFCURVE",
"394 353 OFFCURVE",
"355 353 CURVE SMOOTH",
"296 353 LINE"
);
},
{
closed = 1;
nodes = (
"569 718 LINE",
"599 858 LINE",
"251 858 LINE",
"221 718 LINE"
);
},
{
closed = 1;
nodes = (
"290 -213 LINE",
"320 -72 LINE",
"164 -72 LINE",
"134 -213 LINE"
);
}
);
width = 656;
}
);
note = Rdotbelowmacron;
rightKerningGroup = R;
unicode = 1E5C;
},
{
glyphname = Rlinebelow;
lastChange = "2015-11-26 11:01:45 +0000";
layers = (
{
layerId = "098F4D9A-293F-4750-B0F4-D0E702B92EEF";
name = "Bold Italic";
paths = (
{
closed = 1;
nodes = (
"221 0 LINE",
"255 164 LINE",
"265 164 LINE SMOOTH",
"280 164 OFFCURVE",
"286 158 OFFCURVE",
"289 143 CURVE SMOOTH",
"322 0 LINE",
"574 0 LINE",
"535 175 LINE SMOOTH",
"532 190 OFFCURVE",
"527 198 OFFCURVE",
"515 208 CURVE",
"596 252 OFFCURVE",
"652 316 OFFCURVE",
"670 403 CURVE SMOOTH",
"674 422 OFFCURVE",
"676 441 OFFCURVE",
"676 459 CURVE SMOOTH",
"676 567 OFFCURVE",
"602 644 OFFCURVE",
"477 644 CURVE SMOOTH",
"115 644 LINE",
"-21 0 LINE"
);
},
{
closed = 1;
nodes = (
"317 455 LINE",
"380 455 LINE SMOOTH",
"411 455 OFFCURVE",
"426 445 OFFCURVE",
"426 420 CURVE SMOOTH",
"426 415 OFFCURVE",
"425 409 OFFCURVE",
"424 403 CURVE SMOOTH",
"417 369 OFFCURVE",
"394 353 OFFCURVE",
"355 353 CURVE SMOOTH",
"296 353 LINE"
);
},
{
closed = 1;
nodes = (
"386 -208 LINE",
"416 -68 LINE",
"68 -68 LINE",
"38 -208 LINE"
);
}
);
width = 656;
}
);
note = Rlinebelow;
rightKerningGroup = R;
unicode = 1E5E;
},
{
glyphname = S;
lastChange = "2015-11-26 10:59:36 +0000";
layers = (
{
layerId = "098F4D9A-293F-4750-B0F4-D0E702B92EEF";
name = "Bold Italic";
paths = (
{
closed = 1;
nodes = (
"413 -10 OFFCURVE",
"503 70 OFFCURVE",
"530 193 CURVE SMOOTH",
"535 217 OFFCURVE",
"538 238 OFFCURVE",
"538 258 CURVE SMOOTH",
"538 330 OFFCURVE",
"501 379 OFFCURVE",
"389 413 CURVE SMOOTH",
"330 431 OFFCURVE",
"302 436 OFFCURVE",
"302 452 CURVE SMOOTH",
"302 476 OFFCURVE",
"349 480 OFFCURVE",
"385 480 CURVE SMOOTH",
"427 480 OFFCURVE",
"481 471 OFFCURVE",
"547 441 CURVE",
"586 623 LINE",
"536 639 OFFCURVE",
"445 654 OFFCURVE",
"381 654 CURVE SMOOTH",
"176 654 OFFCURVE",
"84 589 OFFCURVE",
"55 453 CURVE SMOOTH",
"50 432 OFFCURVE",
"48 414 OFFCURVE",
"48 397 CURVE SMOOTH",
"48 325 OFFCURVE",
"90 285 OFFCURVE",
"176 249 CURVE SMOOTH",
"237 223 OFFCURVE",
"280 217 OFFCURVE",
"280 196 CURVE SMOOTH",
"280 174 OFFCURVE",
"252 163 OFFCURVE",
"210 163 CURVE SMOOTH",
"148 163 OFFCURVE",
"67 185 OFFCURVE",
"10 216 CURVE",
"-28 35 LINE",
"23 6 OFFCURVE",
"108 -10 OFFCURVE",
"199 -10 CURVE SMOOTH"
);
}
);
width = 560;
}
);
leftKerningGroup = S;
note = S;
rightKerningGroup = S;
unicode = 0053;
},
{
glyphname = Sacute;
lastChange = "2015-11-26 10:59:35 +0000";
layers = (
{
layerId = "098F4D9A-293F-4750-B0F4-D0E702B92EEF";
name = "Bold Italic";
paths = (
{
closed = 1;
nodes = (
"413 -10 OFFCURVE",
"503 70 OFFCURVE",
"530 193 CURVE SMOOTH",
"535 217 OFFCURVE",
"538 238 OFFCURVE",
"538 258 CURVE SMOOTH",
"538 330 OFFCURVE",
"501 379 OFFCURVE",
"389 413 CURVE SMOOTH",
"330 431 OFFCURVE",
"302 436 OFFCURVE",
"302 452 CURVE SMOOTH",
"302 476 OFFCURVE",
"349 480 OFFCURVE",
"385 480 CURVE SMOOTH",
"427 480 OFFCURVE",
"481 471 OFFCURVE",
"547 441 CURVE",
"586 623 LINE",
"536 639 OFFCURVE",
"445 654 OFFCURVE",
"381 654 CURVE SMOOTH",
"176 654 OFFCURVE",
"84 589 OFFCURVE",
"55 453 CURVE SMOOTH",
"50 432 OFFCURVE",
"48 414 OFFCURVE",
"48 397 CURVE SMOOTH",
"48 325 OFFCURVE",
"90 285 OFFCURVE",
"176 249 CURVE SMOOTH",
"237 223 OFFCURVE",
"280 217 OFFCURVE",
"280 196 CURVE SMOOTH",
"280 174 OFFCURVE",
"252 163 OFFCURVE",
"210 163 CURVE SMOOTH",
"148 163 OFFCURVE",
"67 185 OFFCURVE",
"10 216 CURVE",
"-28 35 LINE",
"23 6 OFFCURVE",
"108 -10 OFFCURVE",
"199 -10 CURVE SMOOTH"
);
},
{
closed = 1;
nodes = (
"446 688 LINE",
"599 914 LINE",
"413 914 LINE",
"269 688 LINE"
);
}
);
width = 560;
}
);
leftKerningGroup = S;
note = Sacute;
rightKerningGroup = S;
unicode = 015A;
},
{
glyphname = Scaron;
lastChange = "2015-11-26 10:59:34 +0000";
layers = (
{
layerId = "098F4D9A-293F-4750-B0F4-D0E702B92EEF";
name = "Bold Italic";
paths = (
{
closed = 1;
nodes = (
"413 -10 OFFCURVE",
"503 70 OFFCURVE",
"530 193 CURVE SMOOTH",
"535 217 OFFCURVE",
"538 238 OFFCURVE",
"538 258 CURVE SMOOTH",
"538 330 OFFCURVE",
"501 379 OFFCURVE",
"389 413 CURVE SMOOTH",
"330 431 OFFCURVE",
"302 436 OFFCURVE",
"302 452 CURVE SMOOTH",
"302 476 OFFCURVE",
"349 480 OFFCURVE",
"385 480 CURVE SMOOTH",
"427 480 OFFCURVE",
"481 471 OFFCURVE",
"547 441 CURVE",
"586 623 LINE",
"536 639 OFFCURVE",
"445 654 OFFCURVE",
"381 654 CURVE SMOOTH",
"176 654 OFFCURVE",
"84 589 OFFCURVE",
"55 453 CURVE SMOOTH",
"50 432 OFFCURVE",
"48 414 OFFCURVE",
"48 397 CURVE SMOOTH",
"48 325 OFFCURVE",
"90 285 OFFCURVE",
"176 249 CURVE SMOOTH",
"237 223 OFFCURVE",
"280 217 OFFCURVE",
"280 196 CURVE SMOOTH",
"280 174 OFFCURVE",
"252 163 OFFCURVE",
"210 163 CURVE SMOOTH",
"148 163 OFFCURVE",
"67 185 OFFCURVE",
"10 216 CURVE",
"-28 35 LINE",
"23 6 OFFCURVE",
"108 -10 OFFCURVE",
"199 -10 CURVE SMOOTH"
);
},
{
closed = 1;
nodes = (
"443 688 LINE",
"664 904 LINE",
"489 904 LINE",
"390 797 LINE",
"339 904 LINE",
"174 904 LINE",
"303 688 LINE"
);
}
);
width = 560;
}
);
leftKerningGroup = S;
note = Scaron;
rightKerningGroup = S;
unicode = 0160;
},
{
glyphname = Scedilla;
lastChange = "2015-11-26 10:59:35 +0000";
layers = (
{
layerId = "098F4D9A-293F-4750-B0F4-D0E702B92EEF";
name = "Bold Italic";
paths = (
{
closed = 1;
nodes = (
"245 -240 OFFCURVE",
"311 -199 OFFCURVE",
"325 -133 CURVE SMOOTH",
"327 -126 OFFCURVE",
"327 -118 OFFCURVE",
"327 -111 CURVE SMOOTH",
"327 -68 OFFCURVE",
"296 -37 OFFCURVE",
"238 -37 CURVE",
"254 -8 LINE",
"429 5 OFFCURVE",
"505 81 OFFCURVE",
"530 193 CURVE SMOOTH",
"535 217 OFFCURVE",
"538 238 OFFCURVE",
"538 258 CURVE SMOOTH",
"538 330 OFFCURVE",
"501 379 OFFCURVE",
"389 413 CURVE SMOOTH",
"330 431 OFFCURVE",
"302 436 OFFCURVE",
"302 452 CURVE SMOOTH",
"302 476 OFFCURVE",
"349 480 OFFCURVE",
"385 480 CURVE SMOOTH",
"427 480 OFFCURVE",
"481 471 OFFCURVE",
"547 441 CURVE",
"586 623 LINE",
"536 639 OFFCURVE",
"445 654 OFFCURVE",
"381 654 CURVE SMOOTH",
"176 654 OFFCURVE",
"84 589 OFFCURVE",
"55 453 CURVE SMOOTH",
"50 432 OFFCURVE",
"48 414 OFFCURVE",
"48 397 CURVE SMOOTH",
"48 325 OFFCURVE",
"90 285 OFFCURVE",
"176 249 CURVE SMOOTH",
"237 223 OFFCURVE",
"280 217 OFFCURVE",
"280 196 CURVE SMOOTH",
"280 174 OFFCURVE",
"252 163 OFFCURVE",
"210 163 CURVE SMOOTH",
"148 163 OFFCURVE",
"67 185 OFFCURVE",
"10 216 CURVE",
"-28 35 LINE",
"10 13 OFFCURVE",
"69 -1 OFFCURVE",
"134 -7 CURVE",
"89 -100 LINE",
"163 -100 LINE SMOOTH",
"185 -100 OFFCURVE",
"199 -107 OFFCURVE",
"194 -128 CURVE",
"190 -150 OFFCURVE",
"164 -163 OFFCURVE",
"120 -163 CURVE SMOOTH",
"101 -163 OFFCURVE",
"80 -160 OFFCURVE",
"64 -155 CURVE",
"47 -232 LINE",
"61 -236 OFFCURVE",
"108 -240 OFFCURVE",
"133 -240 CURVE SMOOTH"
);
}
);
width = 560;
}
);
leftKerningGroup = S;
note = Scedilla;
rightKerningGroup = S;
unicode = 015E;
},
{
glyphname = Scircumflex;
lastChange = "2015-11-26 11:01:52 +0000";
layers = (
{
layerId = "098F4D9A-293F-4750-B0F4-D0E702B92EEF";
name = "Bold Italic";
paths = (
{
closed = 1;
nodes = (
"413 -10 OFFCURVE",
"503 70 OFFCURVE",
"530 193 CURVE SMOOTH",
"535 217 OFFCURVE",
"538 238 OFFCURVE",
"538 258 CURVE SMOOTH",
"538 330 OFFCURVE",
"501 379 OFFCURVE",
"389 413 CURVE SMOOTH",
"330 431 OFFCURVE",
"302 436 OFFCURVE",
"302 452 CURVE SMOOTH",
"302 476 OFFCURVE",
"349 480 OFFCURVE",
"385 480 CURVE SMOOTH",
"427 480 OFFCURVE",
"481 471 OFFCURVE",
"547 441 CURVE",
"586 623 LINE",
"536 639 OFFCURVE",
"445 654 OFFCURVE",
"381 654 CURVE SMOOTH",
"176 654 OFFCURVE",
"84 589 OFFCURVE",
"55 453 CURVE SMOOTH",
"50 432 OFFCURVE",
"48 414 OFFCURVE",
"48 397 CURVE SMOOTH",
"48 325 OFFCURVE",
"90 285 OFFCURVE",
"176 249 CURVE SMOOTH",
"237 223 OFFCURVE",
"280 217 OFFCURVE",
"280 196 CURVE SMOOTH",
"280 174 OFFCURVE",
"252 163 OFFCURVE",
"210 163 CURVE SMOOTH",
"148 163 OFFCURVE",
"67 185 OFFCURVE",
"10 216 CURVE",
"-28 35 LINE",
"23 6 OFFCURVE",
"108 -10 OFFCURVE",
"199 -10 CURVE SMOOTH"
);
},
{
closed = 1;
nodes = (
"293 688 LINE",
"388 795 LINE",
"442 688 LINE",
"603 688 LINE",
"474 904 LINE",
"333 904 LINE",
"113 688 LINE"
);
}
);
width = 560;
}
);
leftKerningGroup = S;
note = Scircumflex;
rightKerningGroup = S;
unicode = 015C;
},
{
glyphname = Scommaaccent;
lastChange = "2015-11-26 10:59:34 +0000";
layers = (
{
layerId = "098F4D9A-293F-4750-B0F4-D0E702B92EEF";
name = "Bold Italic";
paths = (
{
closed = 1;
nodes = (
"413 -10 OFFCURVE",
"503 70 OFFCURVE",
"530 193 CURVE SMOOTH",
"535 217 OFFCURVE",
"538 238 OFFCURVE",
"538 258 CURVE SMOOTH",
"538 330 OFFCURVE",
"501 379 OFFCURVE",
"389 413 CURVE SMOOTH",
"330 431 OFFCURVE",
"302 436 OFFCURVE",
"302 452 CURVE SMOOTH",
"302 476 OFFCURVE",
"349 480 OFFCURVE",
"385 480 CURVE SMOOTH",
"427 480 OFFCURVE",
"481 471 OFFCURVE",
"547 441 CURVE",
"586 623 LINE",
"536 639 OFFCURVE",
"445 654 OFFCURVE",
"381 654 CURVE SMOOTH",
"176 654 OFFCURVE",
"84 589 OFFCURVE",
"55 453 CURVE SMOOTH",
"50 432 OFFCURVE",
"48 414 OFFCURVE",
"48 397 CURVE SMOOTH",
"48 325 OFFCURVE",
"90 285 OFFCURVE",
"176 249 CURVE SMOOTH",
"237 223 OFFCURVE",
"280 217 OFFCURVE",
"280 196 CURVE SMOOTH",
"280 174 OFFCURVE",
"252 163 OFFCURVE",
"210 163 CURVE SMOOTH",
"148 163 OFFCURVE",
"67 185 OFFCURVE",
"10 216 CURVE",
"-28 35 LINE",
"23 6 OFFCURVE",
"108 -10 OFFCURVE",
"199 -10 CURVE SMOOTH"
);
},
{
closed = 1;
nodes = (
"231 -241 LINE",
"325 -37 LINE",
"125 -37 LINE",
"47 -241 LINE"
);
}
);
width = 560;
}
);
leftKerningGroup = S;
note = Scommaaccent;
rightKerningGroup = S;
unicode = 0218;
},
{
glyphname = Sdotaccent;
lastChange = "2015-11-26 10:59:35 +0000";
layers = (
{
layerId = "098F4D9A-293F-4750-B0F4-D0E702B92EEF";
name = "Bold Italic";
paths = (
{
closed = 1;
nodes = (
"413 -10 OFFCURVE",
"503 70 OFFCURVE",
"530 193 CURVE SMOOTH",
"535 217 OFFCURVE",
"538 238 OFFCURVE",
"538 258 CURVE SMOOTH",
"538 330 OFFCURVE",
"501 379 OFFCURVE",
"389 413 CURVE SMOOTH",
"330 431 OFFCURVE",
"302 436 OFFCURVE",
"302 452 CURVE SMOOTH",
"302 476 OFFCURVE",
"349 480 OFFCURVE",
"385 480 CURVE SMOOTH",
"427 480 OFFCURVE",
"481 471 OFFCURVE",
"547 441 CURVE",
"586 623 LINE",
"536 639 OFFCURVE",
"445 654 OFFCURVE",
"381 654 CURVE SMOOTH",
"176 654 OFFCURVE",
"84 589 OFFCURVE",
"55 453 CURVE SMOOTH",
"50 432 OFFCURVE",
"48 414 OFFCURVE",
"48 397 CURVE SMOOTH",
"48 325 OFFCURVE",
"90 285 OFFCURVE",
"176 249 CURVE SMOOTH",
"237 223 OFFCURVE",
"280 217 OFFCURVE",
"280 196 CURVE SMOOTH",
"280 174 OFFCURVE",
"252 163 OFFCURVE",
"210 163 CURVE SMOOTH",
"148 163 OFFCURVE",
"67 185 OFFCURVE",
"10 216 CURVE",
"-28 35 LINE",
"23 6 OFFCURVE",
"108 -10 OFFCURVE",
"199 -10 CURVE SMOOTH"
);
},
{
closed = 1;
nodes = (
"447 718 LINE",
"477 859 LINE",
"321 859 LINE",
"292 718 LINE"
);
}
);
width = 560;
}
);
leftKerningGroup = S;
note = Sdotaccent;
rightKerningGroup = S;
unicode = 1E60;
},
{
glyphname = Sdotbelow;
lastChange = "2015-11-26 10:59:36 +0000";
layers = (
{
layerId = "098F4D9A-293F-4750-B0F4-D0E702B92EEF";
name = "Bold Italic";
paths = (
{
closed = 1;
nodes = (
"413 -10 OFFCURVE",
"503 70 OFFCURVE",
"530 193 CURVE SMOOTH",
"535 217 OFFCURVE",
"538 238 OFFCURVE",
"538 258 CURVE SMOOTH",
"538 330 OFFCURVE",
"501 379 OFFCURVE",
"389 413 CURVE SMOOTH",
"330 431 OFFCURVE",
"302 436 OFFCURVE",
"302 452 CURVE SMOOTH",
"302 476 OFFCURVE",
"349 480 OFFCURVE",
"385 480 CURVE SMOOTH",
"427 480 OFFCURVE",
"481 471 OFFCURVE",
"547 441 CURVE",
"586 623 LINE",
"536 639 OFFCURVE",
"445 654 OFFCURVE",
"381 654 CURVE SMOOTH",
"176 654 OFFCURVE",
"84 589 OFFCURVE",
"55 453 CURVE SMOOTH",
"50 432 OFFCURVE",
"48 414 OFFCURVE",
"48 397 CURVE SMOOTH",
"48 325 OFFCURVE",
"90 285 OFFCURVE",
"176 249 CURVE SMOOTH",
"237 223 OFFCURVE",
"280 217 OFFCURVE",
"280 196 CURVE SMOOTH",
"280 174 OFFCURVE",
"252 163 OFFCURVE",
"210 163 CURVE SMOOTH",
"148 163 OFFCURVE",
"67 185 OFFCURVE",
"10 216 CURVE",
"-28 35 LINE",
"23 6 OFFCURVE",
"108 -10 OFFCURVE",
"199 -10 CURVE SMOOTH"
);
},
{
closed = 1;
nodes = (
"254 -213 LINE",
"284 -72 LINE",
"128 -72 LINE",
"98 -213 LINE"
);
}
);
width = 560;
}
);
leftKerningGroup = S;
note = Sdotbelow;
rightKerningGroup = S;
unicode = 1E62;
},
{
glyphname = Germandbls;
lastChange = "2015-11-26 10:59:36 +0000";
layers = (
{
layerId = "098F4D9A-293F-4750-B0F4-D0E702B92EEF";
name = "Bold Italic";
paths = (
{
closed = 1;
nodes = (
"499 -10 OFFCURVE",
"597 44 OFFCURVE",
"621 165 CURVE SMOOTH",
"624 178 OFFCURVE",
"625 191 OFFCURVE",
"625 202 CURVE SMOOTH",
"625 267 OFFCURVE",
"587 306 OFFCURVE",
"529 306 CURVE SMOOTH",
"515 306 LINE",
"650 409 LINE",
"654 426 OFFCURVE",
"656 442 OFFCURVE",
"656 458 CURVE SMOOTH",
"656 571 OFFCURVE",
"564 654 OFFCURVE",
"410 654 CURVE SMOOTH",
"205 654 OFFCURVE",
"91 553 OFFCURVE",
"59 401 CURVE SMOOTH",
"-26 0 LINE",
"201 0 LINE",
"285 398 LINE SMOOTH",
"293 433 OFFCURVE",
"315 460 OFFCURVE",
"368 460 CURVE SMOOTH",
"415 460 OFFCURVE",
"432 444 OFFCURVE",
"430 429 CURVE",
"302 331 LINE",
"279 224 LINE",
"333 224 LINE SMOOTH",
"367 224 OFFCURVE",
"380 215 OFFCURVE",
"380 196 CURVE SMOOTH",
"380 167 OFFCURVE",
"363 154 OFFCURVE",
"324 154 CURVE SMOOTH",
"307 154 OFFCURVE",
"279 157 OFFCURVE",
"265 163 CURVE",
"233 12 LINE",
"256 -1 OFFCURVE",
"306 -10 OFFCURVE",
"357 -10 CURVE SMOOTH"
);
}
);
width = 657;
}
);
note = uni1E9E;
unicode = 1E9E;
},
{
glyphname = Schwa;
lastChange = "2015-11-26 10:59:34 +0000";
layers = (
{
layerId = "098F4D9A-293F-4750-B0F4-D0E702B92EEF";
name = "Bold Italic";
paths = (
{
closed = 1;
nodes = (
"542 -10 OFFCURVE",
"657 117 OFFCURVE",
"699 312 CURVE SMOOTH",
"705 340 OFFCURVE",
"708 367 OFFCURVE",
"708 393 CURVE SMOOTH",
"708 553 OFFCURVE",
"593 654 OFFCURVE",
"411 654 CURVE SMOOTH",
"300 654 OFFCURVE",
"190 631 OFFCURVE",
"118 605 CURVE",
"87 458 LINE",
"136 478 OFFCURVE",
"259 502 OFFCURVE",
"326 502 CURVE SMOOTH",
"467 502 OFFCURVE",
"498 473 OFFCURVE",
"497 402 CURVE",
"44 402 LINE",
"20 289 LINE SMOOTH",
"15 263 OFFCURVE",
"12 239 OFFCURVE",
"12 217 CURVE SMOOTH",
"12 70 OFFCURVE",
"124 -10 OFFCURVE",
"290 -10 CURVE SMOOTH"
);
},
{
closed = 1;
nodes = (
"236 132 OFFCURVE",
"212 168 OFFCURVE",
"212 207 CURVE SMOOTH",
"212 215 OFFCURVE",
"213 224 OFFCURVE",
"215 232 CURVE SMOOTH",
"219 251 LINE",
"465 251 LINE",
"450 180 OFFCURVE",
"409 132 OFFCURVE",
"321 132 CURVE SMOOTH"
);
}
);
width = 704;
}
);
note = uni018F;
unicode = 018F;
},
{
glyphname = T;
lastChange = "2015-11-26 10:59:34 +0000";
layers = (
{
layerId = "098F4D9A-293F-4750-B0F4-D0E702B92EEF";
name = "Bold Italic";
paths = (
{
closed = 1;
nodes = (
"345 0 LINE",
"444 470 LINE",
"608 470 LINE",
"645 644 LINE",
"75 644 LINE",
"38 470 LINE",
"202 470 LINE",
"103 0 LINE"
);
}
);
width = 560;
}
);
leftKerningGroup = T;
note = T;
rightKerningGroup = T;
unicode = 0054;
},
{
glyphname = Tbar;
lastChange = "2015-11-26 10:59:34 +0000";
layers = (
{
layerId = "098F4D9A-293F-4750-B0F4-D0E702B92EEF";
name = "Bold Italic";
paths = (
{
closed = 1;
nodes = (
"345 0 LINE",
"395 239 LINE",
"462 239 LINE",
"495 393 LINE",
"428 393 LINE",
"444 470 LINE",
"608 470 LINE",
"645 644 LINE",
"75 644 LINE",
"38 470 LINE",
"202 470 LINE",
"186 393 LINE",
"109 393 LINE",
"76 239 LINE",
"153 239 LINE",
"103 0 LINE"
);
}
);
width = 560;
}
);
leftKerningGroup = T;
note = Tbar;
rightKerningGroup = T;
unicode = 0166;
},
{
glyphname = Tcaron;
lastChange = "2015-11-26 10:59:34 +0000";
layers = (
{
layerId = "098F4D9A-293F-4750-B0F4-D0E702B92EEF";
name = "Bold Italic";
paths = (
{
closed = 1;
nodes = (
"345 0 LINE",
"444 470 LINE",
"608 470 LINE",
"645 644 LINE",
"75 644 LINE",
"38 470 LINE",
"202 470 LINE",
"103 0 LINE"
);
},
{
closed = 1;
nodes = (
"440 688 LINE",
"661 904 LINE",
"486 904 LINE",
"387 797 LINE",
"336 904 LINE",
"171 904 LINE",
"300 688 LINE"
);
}
);
width = 560;
}
);
leftKerningGroup = T;
note = Tcaron;
rightKerningGroup = T;
unicode = 0164;
},
{
glyphname = Tcedilla;
lastChange = "2015-11-26 10:59:34 +0000";
layers = (
{
layerId = "098F4D9A-293F-4750-B0F4-D0E702B92EEF";
name = "Bold Italic";
paths = (
{
closed = 1;
nodes = (
"268 -240 OFFCURVE",
"334 -199 OFFCURVE",
"348 -133 CURVE SMOOTH",
"350 -126 OFFCURVE",
"350 -118 OFFCURVE",
"350 -111 CURVE SMOOTH",
"350 -68 OFFCURVE",
"319 -37 OFFCURVE",
"261 -37 CURVE",
"282 0 LINE",
"345 0 LINE",
"444 470 LINE",
"608 470 LINE",
"645 644 LINE",
"75 644 LINE",
"38 470 LINE",
"202 470 LINE",
"103 0 LINE",
"161 0 LINE",
"112 -100 LINE",
"186 -100 LINE SMOOTH",
"208 -100 OFFCURVE",
"222 -107 OFFCURVE",
"217 -128 CURVE",
"213 -150 OFFCURVE",
"187 -163 OFFCURVE",
"143 -163 CURVE SMOOTH",
"124 -163 OFFCURVE",
"103 -160 OFFCURVE",
"87 -155 CURVE",
"70 -232 LINE",
"84 -236 OFFCURVE",
"131 -240 OFFCURVE",
"156 -240 CURVE SMOOTH"
);
}
);
width = 560;
}
);
leftKerningGroup = T;
note = Tcedilla;
rightKerningGroup = T;
unicode = 0162;
},
{
glyphname = Tcommaaccent;
lastChange = "2015-11-26 11:02:02 +0000";
layers = (
{
layerId = "098F4D9A-293F-4750-B0F4-D0E702B92EEF";
name = "Bold Italic";
paths = (
{
closed = 1;
nodes = (
"345 0 LINE",
"444 470 LINE",
"608 470 LINE",
"645 644 LINE",
"75 644 LINE",
"38 470 LINE",
"202 470 LINE",
"103 0 LINE"
);
},
{
closed = 1;
nodes = (
"198 -286 LINE",
"316 -37 LINE",
"137 -37 LINE",
"48 -286 LINE"
);
}
);
width = 560;
}
);
leftKerningGroup = T;
note = Tcommaaccent;
rightKerningGroup = T;
unicode = 021A;
},
{
glyphname = Tdotbelow;
lastChange = "2015-11-26 10:59:35 +0000";
layers = (
{
layerId = "098F4D9A-293F-4750-B0F4-D0E702B92EEF";
name = "Bold Italic";
paths = (
{
closed = 1;
nodes = (
"345 0 LINE",
"444 470 LINE",
"608 470 LINE",
"645 644 LINE",
"75 644 LINE",
"38 470 LINE",
"202 470 LINE",
"103 0 LINE"
);
},
{
closed = 1;
nodes = (
"257 -193 LINE",
"287 -52 LINE",
"131 -52 LINE",
"101 -193 LINE"
);
}
);
width = 560;
}
);
leftKerningGroup = T;
note = Tdotbelow;
rightKerningGroup = T;
unicode = 1E6C;
},
{
glyphname = Tlinebelow;
lastChange = "2015-11-26 10:59:35 +0000";
layers = (
{
layerId = "098F4D9A-293F-4750-B0F4-D0E702B92EEF";
name = "Bold Italic";
paths = (
{
closed = 1;
nodes = (
"345 0 LINE",
"444 470 LINE",
"608 470 LINE",
"645 644 LINE",
"75 644 LINE",
"38 470 LINE",
"202 470 LINE",
"103 0 LINE"
);
},
{
closed = 1;
nodes = (
"358 -188 LINE",
"388 -48 LINE",
"40 -48 LINE",
"10 -188 LINE"
);
}
);
width = 560;
}
);
leftKerningGroup = T;
note = Tlinebelow;
rightKerningGroup = T;
unicode = 1E6E;
},
{
glyphname = U;
lastChange = "2015-11-26 10:59:36 +0000";
layers = (
{
layerId = "098F4D9A-293F-4750-B0F4-D0E702B92EEF";
name = "Bold Italic";
paths = (
{
closed = 1;
nodes = (
"509 -10 OFFCURVE",
"635 82 OFFCURVE",
"671 254 CURVE SMOOTH",
"754 644 LINE",
"512 644 LINE",
"436 285 LINE SMOOTH",
"423 224 OFFCURVE",
"399 195 OFFCURVE",
"337 195 CURVE SMOOTH",
"291 195 OFFCURVE",
"270 205 OFFCURVE",
"270 242 CURVE SMOOTH",
"270 254 OFFCURVE",
"272 268 OFFCURVE",
"276 285 CURVE SMOOTH",
"352 644 LINE",
"110 644 LINE",
"28 258 LINE SMOOTH",
"24 238 OFFCURVE",
"22 218 OFFCURVE",
"22 200 CURVE SMOOTH",
"22 70 OFFCURVE",
"127 -10 OFFCURVE",
"293 -10 CURVE SMOOTH"
);
}
);
width = 704;
}
);
leftKerningGroup = U;
note = U;
rightKerningGroup = U;
unicode = 0055;
},
{
glyphname = Uacute;
lastChange = "2015-11-26 10:59:35 +0000";
layers = (
{
layerId = "098F4D9A-293F-4750-B0F4-D0E702B92EEF";
name = "Bold Italic";
paths = (
{
closed = 1;
nodes = (
"509 -10 OFFCURVE",
"635 82 OFFCURVE",
"671 254 CURVE SMOOTH",
"754 644 LINE",
"512 644 LINE",
"436 285 LINE SMOOTH",
"423 224 OFFCURVE",
"399 195 OFFCURVE",
"337 195 CURVE SMOOTH",
"291 195 OFFCURVE",
"270 205 OFFCURVE",
"270 242 CURVE SMOOTH",
"270 254 OFFCURVE",
"272 268 OFFCURVE",
"276 285 CURVE SMOOTH",
"352 644 LINE",
"110 644 LINE",
"28 258 LINE SMOOTH",
"24 238 OFFCURVE",
"22 218 OFFCURVE",
"22 200 CURVE SMOOTH",
"22 70 OFFCURVE",
"127 -10 OFFCURVE",
"293 -10 CURVE SMOOTH"
);
},
{
closed = 1;
nodes = (
"531 688 LINE",
"684 914 LINE",
"498 914 LINE",
"354 688 LINE"
);
}
);
width = 704;
}
);
leftKerningGroup = U;
note = Uacute;
rightKerningGroup = U;
unicode = 00DA;
},
{
glyphname = Ubreve;
lastChange = "2015-11-26 10:59:34 +0000";
layers = (
{
layerId = "098F4D9A-293F-4750-B0F4-D0E702B92EEF";
name = "Bold Italic";
paths = (
{
closed = 1;
nodes = (
"509 -10 OFFCURVE",
"635 82 OFFCURVE",
"671 254 CURVE SMOOTH",
"754 644 LINE",
"512 644 LINE",
"436 285 LINE SMOOTH",
"423 224 OFFCURVE",
"399 195 OFFCURVE",
"337 195 CURVE SMOOTH",
"291 195 OFFCURVE",
"270 205 OFFCURVE",
"270 242 CURVE SMOOTH",
"270 254 OFFCURVE",
"272 268 OFFCURVE",
"276 285 CURVE SMOOTH",
"352 644 LINE",
"110 644 LINE",
"28 258 LINE SMOOTH",
"24 238 OFFCURVE",
"22 218 OFFCURVE",
"22 200 CURVE SMOOTH",
"22 70 OFFCURVE",
"127 -10 OFFCURVE",
"293 -10 CURVE SMOOTH"
);
},
{
closed = 1;
nodes = (
"575 688 OFFCURVE",
"678 765 OFFCURVE",
"709 908 CURVE",
"547 908 LINE",
"537 863 OFFCURVE",
"513 820 OFFCURVE",
"462 820 CURVE SMOOTH",
"425 820 OFFCURVE",
"412 844 OFFCURVE",
"412 875 CURVE SMOOTH",
"412 885 OFFCURVE",
"413 897 OFFCURVE",
"416 908 CURVE",
"269 908 LINE",
"264 886 OFFCURVE",
"262 865 OFFCURVE",
"262 846 CURVE SMOOTH",
"262 743 OFFCURVE",
"330 688 OFFCURVE",
"441 688 CURVE SMOOTH"
);
}
);
width = 704;
}
);
leftKerningGroup = U;
note = Ubreve;
rightKerningGroup = U;
unicode = 016C;
},
{
glyphname = Ucaron;
lastChange = "2015-11-26 11:02:12 +0000";
layers = (
{
layerId = "098F4D9A-293F-4750-B0F4-D0E702B92EEF";
name = "Bold Italic";
paths = (
{
closed = 1;
nodes = (
"509 -10 OFFCURVE",
"635 82 OFFCURVE",
"671 254 CURVE SMOOTH",
"754 644 LINE",
"512 644 LINE",
"436 285 LINE SMOOTH",
"423 224 OFFCURVE",
"399 195 OFFCURVE",
"337 195 CURVE SMOOTH",
"291 195 OFFCURVE",
"270 205 OFFCURVE",
"270 242 CURVE SMOOTH",
"270 254 OFFCURVE",
"272 268 OFFCURVE",
"276 285 CURVE SMOOTH",
"352 644 LINE",
"110 644 LINE",
"28 258 LINE SMOOTH",
"24 238 OFFCURVE",
"22 218 OFFCURVE",
"22 200 CURVE SMOOTH",
"22 70 OFFCURVE",
"127 -10 OFFCURVE",
"293 -10 CURVE SMOOTH"
);
},
{
closed = 1;
nodes = (
"512 688 LINE",
"733 904 LINE",
"558 904 LINE",
"459 797 LINE",
"408 904 LINE",
"243 904 LINE",
"372 688 LINE"
);
}
);
width = 704;
}
);
leftKerningGroup = U;
note = Ucaron;
rightKerningGroup = U;
unicode = 01D3;
},
{
glyphname = Ucircumflex;
lastChange = "2015-11-26 10:59:35 +0000";
layers = (
{
layerId = "098F4D9A-293F-4750-B0F4-D0E702B92EEF";
name = "Bold Italic";
paths = (
{
closed = 1;
nodes = (
"509 -10 OFFCURVE",
"635 82 OFFCURVE",
"671 254 CURVE SMOOTH",
"754 644 LINE",
"512 644 LINE",
"436 285 LINE SMOOTH",
"423 224 OFFCURVE",
"399 195 OFFCURVE",
"337 195 CURVE SMOOTH",
"291 195 OFFCURVE",
"270 205 OFFCURVE",
"270 242 CURVE SMOOTH",
"270 254 OFFCURVE",
"272 268 OFFCURVE",
"276 285 CURVE SMOOTH",
"352 644 LINE",
"110 644 LINE",
"28 258 LINE SMOOTH",
"24 238 OFFCURVE",
"22 218 OFFCURVE",
"22 200 CURVE SMOOTH",
"22 70 OFFCURVE",
"127 -10 OFFCURVE",
"293 -10 CURVE SMOOTH"
);
},
{
closed = 1;
nodes = (
"377 688 LINE",
"472 795 LINE",
"526 688 LINE",
"687 688 LINE",
"558 904 LINE",
"417 904 LINE",
"197 688 LINE"
);
}
);
width = 704;
}
);
leftKerningGroup = U;
note = Ucircumflex;
rightKerningGroup = U;
unicode = 00DB;
},
{
glyphname = Udieresis;
lastChange = "2015-11-26 10:59:35 +0000";
layers = (
{
layerId = "098F4D9A-293F-4750-B0F4-D0E702B92EEF";
name = "Bold Italic";
paths = (
{
closed = 1;
nodes = (
"509 -10 OFFCURVE",
"635 82 OFFCURVE",
"671 254 CURVE SMOOTH",
"754 644 LINE",
"512 644 LINE",
"436 285 LINE SMOOTH",
"423 224 OFFCURVE",
"399 195 OFFCURVE",
"337 195 CURVE SMOOTH",
"291 195 OFFCURVE",
"270 205 OFFCURVE",
"270 242 CURVE SMOOTH",
"270 254 OFFCURVE",
"272 268 OFFCURVE",
"276 285 CURVE SMOOTH",
"352 644 LINE",
"110 644 LINE",
"28 258 LINE SMOOTH",
"24 238 OFFCURVE",
"22 218 OFFCURVE",
"22 200 CURVE SMOOTH",
"22 70 OFFCURVE",
"127 -10 OFFCURVE",
"293 -10 CURVE SMOOTH"
);
},
{
closed = 1;
nodes = (
"408 718 LINE",
"438 859 LINE",
"283 859 LINE",
"253 718 LINE"
);
},
{
closed = 1;
nodes = (
"643 718 LINE",
"673 859 LINE",
"517 859 LINE",
"487 718 LINE"
);
}
);
width = 704;
}
);
leftKerningGroup = U;
note = Udieresis;
rightKerningGroup = U;
unicode = 00DC;
},
{
glyphname = Udieresisacute;
lastChange = "2015-11-26 10:59:36 +0000";
layers = (
{
layerId = "098F4D9A-293F-4750-B0F4-D0E702B92EEF";
name = "Bold Italic";
paths = (
{
closed = 1;
nodes = (
"509 -10 OFFCURVE",
"635 82 OFFCURVE",
"671 254 CURVE SMOOTH",
"754 644 LINE",
"512 644 LINE",
"436 285 LINE SMOOTH",
"423 224 OFFCURVE",
"399 195 OFFCURVE",
"337 195 CURVE SMOOTH",
"291 195 OFFCURVE",
"270 205 OFFCURVE",
"270 242 CURVE SMOOTH",
"270 254 OFFCURVE",
"272 268 OFFCURVE",
"276 285 CURVE SMOOTH",
"352 644 LINE",
"110 644 LINE",
"28 258 LINE SMOOTH",
"24 238 OFFCURVE",
"22 218 OFFCURVE",
"22 200 CURVE SMOOTH",
"22 70 OFFCURVE",
"127 -10 OFFCURVE",
"293 -10 CURVE SMOOTH"
);
},
{
closed = 1;
nodes = (
"406 698 LINE",
"434 831 LINE",
"282 831 LINE",
"254 698 LINE"
);
},
{
closed = 1;
nodes = (
"635 698 LINE",
"663 831 LINE",
"511 831 LINE",
"483 698 LINE"
);
},
{
closed = 1;
nodes = (
"555 862 LINE",
"659 1007 LINE",
"481 1007 LINE",
"395 862 LINE"
);
}
);
width = 704;
}
);
leftKerningGroup = U;
note = Udieresisacute;
rightKerningGroup = U;
unicode = 01D7;
},
{
glyphname = Udieresiscaron;
lastChange = "2015-11-26 10:59:35 +0000";
layers = (
{
layerId = "098F4D9A-293F-4750-B0F4-D0E702B92EEF";
name = "Bold Italic";
paths = (
{
closed = 1;
nodes = (
"509 -10 OFFCURVE",
"635 82 OFFCURVE",
"671 254 CURVE SMOOTH",
"754 644 LINE",
"512 644 LINE",
"436 285 LINE SMOOTH",
"423 224 OFFCURVE",
"399 195 OFFCURVE",
"337 195 CURVE SMOOTH",
"291 195 OFFCURVE",
"270 205 OFFCURVE",
"270 242 CURVE SMOOTH",
"270 254 OFFCURVE",
"272 268 OFFCURVE",
"276 285 CURVE SMOOTH",
"352 644 LINE",
"110 644 LINE",
"28 258 LINE SMOOTH",
"24 238 OFFCURVE",
"22 218 OFFCURVE",
"22 200 CURVE SMOOTH",
"22 70 OFFCURVE",
"127 -10 OFFCURVE",
"293 -10 CURVE SMOOTH"
);
},
{
closed = 1;
nodes = (
"402 698 LINE",
"430 831 LINE",
"278 831 LINE",
"250 698 LINE"
);
},
{
closed = 1;
nodes = (
"630 698 LINE",
"658 831 LINE",
"507 831 LINE",
"479 698 LINE"
);
},
{
closed = 1;
nodes = (
"563 862 LINE",
"741 1007 LINE",
"564 1007 LINE",
"491 934 LINE",
"450 1007 LINE",
"279 1007 LINE",
"398 862 LINE"
);
}
);
width = 704;
}
);
leftKerningGroup = U;
note = Udieresiscaron;
rightKerningGroup = U;
unicode = 01D9;
},
{
glyphname = Udieresisgrave;
lastChange = "2015-11-26 10:59:34 +0000";
layers = (
{
layerId = "098F4D9A-293F-4750-B0F4-D0E702B92EEF";
name = "Bold Italic";
paths = (
{
closed = 1;
nodes = (
"509 -10 OFFCURVE",
"635 82 OFFCURVE",
"671 254 CURVE SMOOTH",
"754 644 LINE",
"512 644 LINE",
"436 285 LINE SMOOTH",
"423 224 OFFCURVE",
"399 195 OFFCURVE",
"337 195 CURVE SMOOTH",
"291 195 OFFCURVE",
"270 205 OFFCURVE",
"270 242 CURVE SMOOTH",
"270 254 OFFCURVE",
"272 268 OFFCURVE",
"276 285 CURVE SMOOTH",
"352 644 LINE",
"110 644 LINE",
"28 258 LINE SMOOTH",
"24 238 OFFCURVE",
"22 218 OFFCURVE",
"22 200 CURVE SMOOTH",
"22 70 OFFCURVE",
"127 -10 OFFCURVE",
"293 -10 CURVE SMOOTH"
);
},
{
closed = 1;
nodes = (
"413 733 LINE",
"441 866 LINE",
"289 866 LINE",
"261 733 LINE"
);
},
{
closed = 1;
nodes = (
"642 733 LINE",
"670 866 LINE",
"518 866 LINE",
"490 733 LINE"
);
},
{
closed = 1;
nodes = (
"571 897 LINE",
"545 1042 LINE",
"367 1042 LINE",
"411 897 LINE"
);
}
);
width = 704;
}
);
leftKerningGroup = U;
note = Udieresisgrave;
rightKerningGroup = U;
unicode = 01DB;
},
{
glyphname = Udieresismacron;
lastChange = "2015-11-26 10:59:35 +0000";
layers = (
{
layerId = "098F4D9A-293F-4750-B0F4-D0E702B92EEF";
name = "Bold Italic";
paths = (
{
closed = 1;
nodes = (
"509 -10 OFFCURVE",
"635 82 OFFCURVE",
"671 254 CURVE SMOOTH",
"754 644 LINE",
"512 644 LINE",
"436 285 LINE SMOOTH",
"423 224 OFFCURVE",
"399 195 OFFCURVE",
"337 195 CURVE SMOOTH",
"291 195 OFFCURVE",
"270 205 OFFCURVE",
"270 242 CURVE SMOOTH",
"270 254 OFFCURVE",
"272 268 OFFCURVE",
"276 285 CURVE SMOOTH",
"352 644 LINE",
"110 644 LINE",
"28 258 LINE SMOOTH",
"24 238 OFFCURVE",
"22 218 OFFCURVE",
"22 200 CURVE SMOOTH",
"22 70 OFFCURVE",
"127 -10 OFFCURVE",
"293 -10 CURVE SMOOTH"
);
},
{
closed = 1;
nodes = (
"404 697 LINE",
"434 838 LINE",
"279 838 LINE",
"249 697 LINE"
);
},
{
closed = 1;
nodes = (
"639 697 LINE",
"669 838 LINE",
"513 838 LINE",
"483 697 LINE"
);
},
{
closed = 1;
nodes = (
"658 888 LINE",
"688 1028 LINE",
"340 1028 LINE",
"310 888 LINE"
);
}
);
width = 704;
}
);
leftKerningGroup = U;
note = Udieresismacron;
rightKerningGroup = U;
unicode = 01D5;
},
{
glyphname = Udotbelow;
lastChange = "2015-11-26 10:59:35 +0000";
layers = (
{
layerId = "098F4D9A-293F-4750-B0F4-D0E702B92EEF";
name = "Bold Italic";
paths = (
{
closed = 1;
nodes = (
"509 -10 OFFCURVE",
"635 82 OFFCURVE",
"671 254 CURVE SMOOTH",
"754 644 LINE",
"512 644 LINE",
"436 285 LINE SMOOTH",
"423 224 OFFCURVE",
"399 195 OFFCURVE",
"337 195 CURVE SMOOTH",
"291 195 OFFCURVE",
"270 205 OFFCURVE",
"270 242 CURVE SMOOTH",
"270 254 OFFCURVE",
"272 268 OFFCURVE",
"276 285 CURVE SMOOTH",
"352 644 LINE",
"110 644 LINE",
"28 258 LINE SMOOTH",
"24 238 OFFCURVE",
"22 218 OFFCURVE",
"22 200 CURVE SMOOTH",
"22 70 OFFCURVE",
"127 -10 OFFCURVE",
"293 -10 CURVE SMOOTH"
);
},
{
closed = 1;
nodes = (
"329 -213 LINE",
"359 -72 LINE",
"203 -72 LINE",
"173 -213 LINE"
);
}
);
width = 704;
}
);
leftKerningGroup = U;
note = Udotbelow;
rightKerningGroup = U;
unicode = 1EE4;
},
{
glyphname = Ugrave;
lastChange = "2015-11-26 10:59:35 +0000";
layers = (
{
layerId = "098F4D9A-293F-4750-B0F4-D0E702B92EEF";
name = "Bold Italic";
paths = (
{
closed = 1;
nodes = (
"509 -10 OFFCURVE",
"635 82 OFFCURVE",
"671 254 CURVE SMOOTH",
"754 644 LINE",
"512 644 LINE",
"436 285 LINE SMOOTH",
"423 224 OFFCURVE",
"399 195 OFFCURVE",
"337 195 CURVE SMOOTH",
"291 195 OFFCURVE",
"270 205 OFFCURVE",
"270 242 CURVE SMOOTH",
"270 254 OFFCURVE",
"272 268 OFFCURVE",
"276 285 CURVE SMOOTH",
"352 644 LINE",
"110 644 LINE",
"28 258 LINE SMOOTH",
"24 238 OFFCURVE",
"22 218 OFFCURVE",
"22 200 CURVE SMOOTH",
"22 70 OFFCURVE",
"127 -10 OFFCURVE",
"293 -10 CURVE SMOOTH"
);
},
{
closed = 1;
nodes = (
"531 688 LINE",
"483 914 LINE",
"297 914 LINE",
"354 688 LINE"
);
}
);
width = 704;
}
);
leftKerningGroup = U;
note = Ugrave;
rightKerningGroup = U;
unicode = 00D9;
},
{
glyphname = Uhookabove;
lastChange = "2015-11-26 10:59:35 +0000";
layers = (
{
layerId = "098F4D9A-293F-4750-B0F4-D0E702B92EEF";
name = "Bold Italic";
paths = (
{
closed = 1;
nodes = (
"509 -10 OFFCURVE",
"635 82 OFFCURVE",
"671 254 CURVE SMOOTH",
"754 644 LINE",
"512 644 LINE",
"436 285 LINE SMOOTH",
"423 224 OFFCURVE",
"399 195 OFFCURVE",
"337 195 CURVE SMOOTH",
"291 195 OFFCURVE",
"270 205 OFFCURVE",
"270 242 CURVE SMOOTH",
"270 254 OFFCURVE",
"272 268 OFFCURVE",
"276 285 CURVE SMOOTH",
"352 644 LINE",
"110 644 LINE",
"28 258 LINE SMOOTH",
"24 238 OFFCURVE",
"22 218 OFFCURVE",
"22 200 CURVE SMOOTH",
"22 70 OFFCURVE",
"127 -10 OFFCURVE",
"293 -10 CURVE SMOOTH"
);
},
{
closed = 1;
nodes = (
"531 687 LINE",
"539 723 LINE",
"600 741 OFFCURVE",
"630 767 OFFCURVE",
"643 827 CURVE SMOOTH",
"644 834 OFFCURVE",
"645 840 OFFCURVE",
"645 847 CURVE SMOOTH",
"645 897 OFFCURVE",
"600 934 OFFCURVE",
"514 934 CURVE SMOOTH",
"456 934 OFFCURVE",
"415 928 OFFCURVE",
"381 919 CURVE",
"361 825 LINE",
"378 831 OFFCURVE",
"399 835 OFFCURVE",
"419 835 CURVE SMOOTH",
"453 835 OFFCURVE",
"468 827 OFFCURVE",
"463 807 CURVE",
"459 787 OFFCURVE",
"436 772 OFFCURVE",
"370 768 CURVE",
"353 687 LINE"
);
}
);
width = 704;
}
);
leftKerningGroup = U;
note = Uhookabove;
rightKerningGroup = U;
unicode = 1EE6;
},
{
glyphname = Uhorn;
lastChange = "2015-11-26 10:59:34 +0000";
layers = (
{
layerId = "098F4D9A-293F-4750-B0F4-D0E702B92EEF";
name = "Bold Italic";
paths = (
{
closed = 1;
nodes = (
"509 -10 OFFCURVE",
"635 82 OFFCURVE",
"671 254 CURVE SMOOTH",
"712 447 LINE",
"891 450 OFFCURVE",
"967 511 OFFCURVE",
"1005 688 CURVE",
"836 688 LINE",
"824 625 OFFCURVE",
"807 604 OFFCURVE",
"745 601 CURVE",
"754 644 LINE",
"512 644 LINE",
"436 285 LINE SMOOTH",
"423 224 OFFCURVE",
"399 195 OFFCURVE",
"337 195 CURVE SMOOTH",
"291 195 OFFCURVE",
"270 205 OFFCURVE",
"270 242 CURVE SMOOTH",
"270 254 OFFCURVE",
"272 268 OFFCURVE",
"276 285 CURVE SMOOTH",
"352 644 LINE",
"110 644 LINE",
"28 258 LINE SMOOTH",
"24 238 OFFCURVE",
"22 218 OFFCURVE",
"22 200 CURVE SMOOTH",
"22 70 OFFCURVE",
"127 -10 OFFCURVE",
"293 -10 CURVE SMOOTH"
);
}
);
width = 910;
}
);
note = Uhorn;
unicode = 01AF;
},
{
glyphname = Uhornacute;
lastChange = "2015-11-26 10:59:35 +0000";
layers = (
{
layerId = "098F4D9A-293F-4750-B0F4-D0E702B92EEF";
name = "Bold Italic";
paths = (
{
closed = 1;
nodes = (
"509 -10 OFFCURVE",
"635 82 OFFCURVE",
"671 254 CURVE SMOOTH",
"712 447 LINE",
"891 450 OFFCURVE",
"967 511 OFFCURVE",
"1005 688 CURVE",
"836 688 LINE",
"824 625 OFFCURVE",
"807 604 OFFCURVE",
"745 601 CURVE",
"754 644 LINE",
"512 644 LINE",
"436 285 LINE SMOOTH",
"423 224 OFFCURVE",
"399 195 OFFCURVE",
"337 195 CURVE SMOOTH",
"291 195 OFFCURVE",
"270 205 OFFCURVE",
"270 242 CURVE SMOOTH",
"270 254 OFFCURVE",
"272 268 OFFCURVE",
"276 285 CURVE SMOOTH",
"352 644 LINE",
"110 644 LINE",
"28 258 LINE SMOOTH",
"24 238 OFFCURVE",
"22 218 OFFCURVE",
"22 200 CURVE SMOOTH",
"22 70 OFFCURVE",
"127 -10 OFFCURVE",
"293 -10 CURVE SMOOTH"
);
},
{
closed = 1;
nodes = (
"533 688 LINE",
"686 914 LINE",
"500 914 LINE",
"356 688 LINE"
);
}
);
width = 910;
}
);
leftKerningGroup = U;
note = Uhornacute;
rightKerningGroup = U;
unicode = 1EE8;
},
{
glyphname = Uhorndotbelow;
lastChange = "2015-11-26 10:59:34 +0000";
layers = (
{
layerId = "098F4D9A-293F-4750-B0F4-D0E702B92EEF";
name = "Bold Italic";
paths = (
{
closed = 1;
nodes = (
"509 -10 OFFCURVE",
"635 82 OFFCURVE",
"671 254 CURVE SMOOTH",
"712 447 LINE",
"891 450 OFFCURVE",
"967 511 OFFCURVE",
"1005 688 CURVE",
"836 688 LINE",
"824 625 OFFCURVE",
"807 604 OFFCURVE",
"745 601 CURVE",
"754 644 LINE",
"512 644 LINE",
"436 285 LINE SMOOTH",
"423 224 OFFCURVE",
"399 195 OFFCURVE",
"337 195 CURVE SMOOTH",
"291 195 OFFCURVE",
"270 205 OFFCURVE",
"270 242 CURVE SMOOTH",
"270 254 OFFCURVE",
"272 268 OFFCURVE",
"276 285 CURVE SMOOTH",
"352 644 LINE",
"110 644 LINE",
"28 258 LINE SMOOTH",
"24 238 OFFCURVE",
"22 218 OFFCURVE",
"22 200 CURVE SMOOTH",
"22 70 OFFCURVE",
"127 -10 OFFCURVE",
"293 -10 CURVE SMOOTH"
);
},
{
closed = 1;
nodes = (
"331 -213 LINE",
"361 -72 LINE",
"205 -72 LINE",
"175 -213 LINE"
);
}
);
width = 910;
}
);
leftKerningGroup = U;
note = Uhorndotbelow;
rightKerningGroup = U;
unicode = 1EF0;
},
{
glyphname = Uhorngrave;
lastChange = "2015-11-26 10:59:34 +0000";
layers = (
{
layerId = "098F4D9A-293F-4750-B0F4-D0E702B92EEF";
name = "Bold Italic";
paths = (
{
closed = 1;
nodes = (
"509 -10 OFFCURVE",
"635 82 OFFCURVE",
"671 254 CURVE SMOOTH",
"712 447 LINE",
"891 450 OFFCURVE",
"967 511 OFFCURVE",
"1005 688 CURVE",
"836 688 LINE",
"824 625 OFFCURVE",
"807 604 OFFCURVE",
"745 601 CURVE",
"754 644 LINE",
"512 644 LINE",
"436 285 LINE SMOOTH",
"423 224 OFFCURVE",
"399 195 OFFCURVE",
"337 195 CURVE SMOOTH",
"291 195 OFFCURVE",
"270 205 OFFCURVE",
"270 242 CURVE SMOOTH",
"270 254 OFFCURVE",
"272 268 OFFCURVE",
"276 285 CURVE SMOOTH",
"352 644 LINE",
"110 644 LINE",
"28 258 LINE SMOOTH",
"24 238 OFFCURVE",
"22 218 OFFCURVE",
"22 200 CURVE SMOOTH",
"22 70 OFFCURVE",
"127 -10 OFFCURVE",
"293 -10 CURVE SMOOTH"
);
},
{
closed = 1;
nodes = (
"539 688 LINE",
"491 914 LINE",
"305 914 LINE",
"362 688 LINE"
);
}
);
width = 910;
}
);
leftKerningGroup = U;
note = Uhorngrave;
rightKerningGroup = U;
unicode = 1EEA;
},
{
glyphname = Uhornhookabove;
lastChange = "2015-11-26 10:59:35 +0000";
layers = (
{
layerId = "098F4D9A-293F-4750-B0F4-D0E702B92EEF";
name = "Bold Italic";
paths = (
{
closed = 1;
nodes = (
"509 -10 OFFCURVE",
"635 82 OFFCURVE",
"671 254 CURVE SMOOTH",
"712 447 LINE",
"891 450 OFFCURVE",
"967 511 OFFCURVE",
"1005 688 CURVE",
"836 688 LINE",
"824 625 OFFCURVE",
"807 604 OFFCURVE",
"745 601 CURVE",
"754 644 LINE",
"512 644 LINE",
"436 285 LINE SMOOTH",
"423 224 OFFCURVE",
"399 195 OFFCURVE",
"337 195 CURVE SMOOTH",
"291 195 OFFCURVE",
"270 205 OFFCURVE",
"270 242 CURVE SMOOTH",
"270 254 OFFCURVE",
"272 268 OFFCURVE",
"276 285 CURVE SMOOTH",
"352 644 LINE",
"110 644 LINE",
"28 258 LINE SMOOTH",
"24 238 OFFCURVE",
"22 218 OFFCURVE",
"22 200 CURVE SMOOTH",
"22 70 OFFCURVE",
"127 -10 OFFCURVE",
"293 -10 CURVE SMOOTH"
);
},
{
closed = 1;
nodes = (
"533 688 LINE",
"541 724 LINE",
"602 742 OFFCURVE",
"632 768 OFFCURVE",
"645 828 CURVE SMOOTH",
"646 835 OFFCURVE",
"647 841 OFFCURVE",
"647 848 CURVE SMOOTH",
"647 898 OFFCURVE",
"602 935 OFFCURVE",
"516 935 CURVE SMOOTH",
"458 935 OFFCURVE",
"417 929 OFFCURVE",
"383 920 CURVE",
"363 826 LINE",
"380 832 OFFCURVE",
"401 836 OFFCURVE",
"421 836 CURVE SMOOTH",
"455 836 OFFCURVE",
"470 828 OFFCURVE",
"465 808 CURVE",
"461 788 OFFCURVE",
"438 773 OFFCURVE",
"372 769 CURVE",
"355 688 LINE"
);
}
);
width = 910;
}
);
leftKerningGroup = U;
note = Uhornhookabove;
rightKerningGroup = U;
unicode = 1EEC;
},
{
glyphname = Uhorntilde;
lastChange = "2015-11-26 10:59:35 +0000";
layers = (
{
layerId = "098F4D9A-293F-4750-B0F4-D0E702B92EEF";
name = "Bold Italic";
paths = (
{
closed = 1;
nodes = (
"509 -10 OFFCURVE",
"635 82 OFFCURVE",
"671 254 CURVE SMOOTH",
"712 447 LINE",
"891 450 OFFCURVE",
"967 511 OFFCURVE",
"1005 688 CURVE",
"836 688 LINE",
"824 625 OFFCURVE",
"807 604 OFFCURVE",
"745 601 CURVE",
"754 644 LINE",
"512 644 LINE",
"436 285 LINE SMOOTH",
"423 224 OFFCURVE",
"399 195 OFFCURVE",
"337 195 CURVE SMOOTH",
"291 195 OFFCURVE",
"270 205 OFFCURVE",
"270 242 CURVE SMOOTH",
"270 254 OFFCURVE",
"272 268 OFFCURVE",
"276 285 CURVE SMOOTH",
"352 644 LINE",
"110 644 LINE",
"28 258 LINE SMOOTH",
"24 238 OFFCURVE",
"22 218 OFFCURVE",
"22 200 CURVE SMOOTH",
"22 70 OFFCURVE",
"127 -10 OFFCURVE",
"293 -10 CURVE SMOOTH"
);
},
{
closed = 1;
nodes = (
"596 688 OFFCURVE",
"639 705 OFFCURVE",
"656 723 CURVE",
"686 864 LINE",
"665 842 OFFCURVE",
"625 823 OFFCURVE",
"579 823 CURVE SMOOTH",
"510 823 OFFCURVE",
"461 867 OFFCURVE",
"388 867 CURVE SMOOTH",
"346 867 OFFCURVE",
"302 850 OFFCURVE",
"278 832 CURVE",
"248 691 LINE",
"277 715 OFFCURVE",
"316 732 OFFCURVE",
"362 732 CURVE SMOOTH",
"423 732 OFFCURVE",
"482 688 OFFCURVE",
"554 688 CURVE SMOOTH"
);
}
);
width = 910;
}
);
leftKerningGroup = U;
note = Uhorntilde;
rightKerningGroup = U;
unicode = 1EEE;
},
{
glyphname = Uhungarumlaut;
lastChange = "2015-11-26 10:59:35 +0000";
layers = (
{
layerId = "098F4D9A-293F-4750-B0F4-D0E702B92EEF";
name = "Bold Italic";
paths = (
{
closed = 1;
nodes = (
"509 -10 OFFCURVE",
"635 82 OFFCURVE",
"671 254 CURVE SMOOTH",
"754 644 LINE",
"512 644 LINE",
"436 285 LINE SMOOTH",
"423 224 OFFCURVE",
"399 195 OFFCURVE",
"337 195 CURVE SMOOTH",
"291 195 OFFCURVE",
"270 205 OFFCURVE",
"270 242 CURVE SMOOTH",
"270 254 OFFCURVE",
"272 268 OFFCURVE",
"276 285 CURVE SMOOTH",
"352 644 LINE",
"110 644 LINE",
"28 258 LINE SMOOTH",
"24 238 OFFCURVE",
"22 218 OFFCURVE",
"22 200 CURVE SMOOTH",
"22 70 OFFCURVE",
"127 -10 OFFCURVE",
"293 -10 CURVE SMOOTH"
);
},
{
closed = 1;
nodes = (
"387 688 LINE",
"543 891 LINE",
"338 891 LINE",
"200 688 LINE"
);
},
{
closed = 1;
nodes = (
"656 688 LINE",
"813 891 LINE",
"607 891 LINE",
"469 688 LINE"
);
}
);
width = 704;
}
);
leftKerningGroup = U;
note = Uhungarumlaut;
rightKerningGroup = U;
unicode = 0170;
},
{
glyphname = Umacron;
lastChange = "2015-11-26 10:59:35 +0000";
layers = (
{
layerId = "098F4D9A-293F-4750-B0F4-D0E702B92EEF";
name = "Bold Italic";
paths = (
{
closed = 1;
nodes = (
"509 -10 OFFCURVE",
"635 82 OFFCURVE",
"671 254 CURVE SMOOTH",
"754 644 LINE",
"512 644 LINE",
"436 285 LINE SMOOTH",
"423 224 OFFCURVE",
"399 195 OFFCURVE",
"337 195 CURVE SMOOTH",
"291 195 OFFCURVE",
"270 205 OFFCURVE",
"270 242 CURVE SMOOTH",
"270 254 OFFCURVE",
"272 268 OFFCURVE",
"276 285 CURVE SMOOTH",
"352 644 LINE",
"110 644 LINE",
"28 258 LINE SMOOTH",
"24 238 OFFCURVE",
"22 218 OFFCURVE",
"22 200 CURVE SMOOTH",
"22 70 OFFCURVE",
"127 -10 OFFCURVE",
"293 -10 CURVE SMOOTH"
);
},
{
closed = 1;
nodes = (
"624 728 LINE",
"654 868 LINE",
"306 868 LINE",
"276 728 LINE"
);
}
);
width = 704;
}
);
leftKerningGroup = U;
note = Umacron;
rightKerningGroup = U;
unicode = 016A;
},
{
glyphname = Uogonek;
lastChange = "2015-11-26 10:59:35 +0000";
layers = (
{
layerId = "098F4D9A-293F-4750-B0F4-D0E702B92EEF";
name = "Bold Italic";
paths = (
{
closed = 1;
nodes = (
"298 -220 OFFCURVE",
"346 -210 OFFCURVE",
"371 -202 CURVE",
"393 -96 LINE",
"380 -103 OFFCURVE",
"357 -107 OFFCURVE",
"340 -107 CURVE SMOOTH",
"315 -107 OFFCURVE",
"299 -102 OFFCURVE",
"299 -84 CURVE SMOOTH",
"299 -82 OFFCURVE",
"299 -79 OFFCURVE",
"300 -76 CURVE SMOOTH",
"306 -50 OFFCURVE",
"326 -27 OFFCURVE",
"353 -7 CURVE",
"532 8 OFFCURVE",
"638 99 OFFCURVE",
"671 254 CURVE SMOOTH",
"754 644 LINE",
"512 644 LINE",
"436 285 LINE SMOOTH",
"423 224 OFFCURVE",
"399 195 OFFCURVE",
"337 195 CURVE SMOOTH",
"291 195 OFFCURVE",
"270 205 OFFCURVE",
"270 242 CURVE SMOOTH",
"270 254 OFFCURVE",
"272 268 OFFCURVE",
"276 285 CURVE SMOOTH",
"352 644 LINE",
"110 644 LINE",
"28 258 LINE SMOOTH",
"24 238 OFFCURVE",
"22 218 OFFCURVE",
"22 200 CURVE SMOOTH",
"22 92 OFFCURVE",
"95 18 OFFCURVE",
"215 -3 CURVE",
"165 -30 OFFCURVE",
"119 -79 OFFCURVE",
"119 -140 CURVE SMOOTH",
"119 -195 OFFCURVE",
"168 -220 OFFCURVE",
"248 -220 CURVE SMOOTH"
);
}
);
width = 704;
}
);
leftKerningGroup = U;
note = Uogonek;
rightKerningGroup = U;
unicode = 0172;
},
{
glyphname = Uring;
lastChange = "2015-11-26 10:59:35 +0000";
layers = (
{
layerId = "098F4D9A-293F-4750-B0F4-D0E702B92EEF";
name = "Bold Italic";
paths = (
{
closed = 1;
nodes = (
"509 -10 OFFCURVE",
"635 82 OFFCURVE",
"671 254 CURVE SMOOTH",
"754 644 LINE",
"512 644 LINE",
"436 285 LINE SMOOTH",
"423 224 OFFCURVE",
"399 195 OFFCURVE",
"337 195 CURVE SMOOTH",
"291 195 OFFCURVE",
"270 205 OFFCURVE",
"270 242 CURVE SMOOTH",
"270 254 OFFCURVE",
"272 268 OFFCURVE",
"276 285 CURVE SMOOTH",
"352 644 LINE",
"110 644 LINE",
"28 258 LINE SMOOTH",
"24 238 OFFCURVE",
"22 218 OFFCURVE",
"22 200 CURVE SMOOTH",
"22 70 OFFCURVE",
"127 -10 OFFCURVE",
"293 -10 CURVE SMOOTH"
);
},
{
closed = 1;
nodes = (
"543 688 OFFCURVE",
"609 751 OFFCURVE",
"626 831 CURVE SMOOTH",
"628 842 OFFCURVE",
"630 853 OFFCURVE",
"630 864 CURVE SMOOTH",
"630 928 OFFCURVE",
"585 975 OFFCURVE",
"503 975 CURVE SMOOTH",
"402 975 OFFCURVE",
"337 912 OFFCURVE",
"320 831 CURVE SMOOTH",
"318 820 OFFCURVE",
"317 809 OFFCURVE",
"317 799 CURVE SMOOTH",
"317 735 OFFCURVE",
"362 688 OFFCURVE",
"442 688 CURVE SMOOTH"
);
},
{
closed = 1;
nodes = (
"430 780 OFFCURVE",
"417 797 OFFCURVE",
"417 818 CURVE SMOOTH",
"417 850 OFFCURVE",
"440 882 OFFCURVE",
"483 882 CURVE SMOOTH",
"514 882 OFFCURVE",
"527 865 OFFCURVE",
"527 844 CURVE SMOOTH",
"527 812 OFFCURVE",
"504 780 OFFCURVE",
"461 780 CURVE SMOOTH"
);
}
);
width = 704;
}
);
leftKerningGroup = U;
note = Uring;
rightKerningGroup = U;
unicode = 016E;
},
{
glyphname = Utilde;
lastChange = "2015-11-26 10:59:34 +0000";
layers = (
{
layerId = "098F4D9A-293F-4750-B0F4-D0E702B92EEF";
name = "Bold Italic";
paths = (
{
closed = 1;
nodes = (
"509 -10 OFFCURVE",
"635 82 OFFCURVE",
"671 254 CURVE SMOOTH",
"754 644 LINE",
"512 644 LINE",
"436 285 LINE SMOOTH",
"423 224 OFFCURVE",
"399 195 OFFCURVE",
"337 195 CURVE SMOOTH",
"291 195 OFFCURVE",
"270 205 OFFCURVE",
"270 242 CURVE SMOOTH",
"270 254 OFFCURVE",
"272 268 OFFCURVE",
"276 285 CURVE SMOOTH",
"352 644 LINE",
"110 644 LINE",
"28 258 LINE SMOOTH",
"24 238 OFFCURVE",
"22 218 OFFCURVE",
"22 200 CURVE SMOOTH",
"22 70 OFFCURVE",
"127 -10 OFFCURVE",
"293 -10 CURVE SMOOTH"
);
},
{
closed = 1;
nodes = (
"592 693 OFFCURVE",
"635 710 OFFCURVE",
"652 728 CURVE",
"682 869 LINE",
"661 847 OFFCURVE",
"621 828 OFFCURVE",
"575 828 CURVE SMOOTH",
"506 828 OFFCURVE",
"457 872 OFFCURVE",
"384 872 CURVE SMOOTH",
"342 872 OFFCURVE",
"298 855 OFFCURVE",
"274 837 CURVE",
"244 696 LINE",
"273 720 OFFCURVE",
"312 737 OFFCURVE",
"358 737 CURVE SMOOTH",
"419 737 OFFCURVE",
"478 693 OFFCURVE",
"550 693 CURVE SMOOTH"
);
}
);
width = 704;
}
);
leftKerningGroup = U;
note = Utilde;
rightKerningGroup = U;
unicode = 0168;
},
{
glyphname = V;
lastChange = "2015-11-26 10:59:35 +0000";
layers = (
{
layerId = "098F4D9A-293F-4750-B0F4-D0E702B92EEF";
name = "Bold Italic";
paths = (
{
closed = 1;
nodes = (
"458 0 LINE",
"842 644 LINE",
"583 644 LINE",
"385 286 LINE",
"340 644 LINE",
"95 644 LINE",
"207 0 LINE"
);
}
);
width = 777;
}
);
note = V;
unicode = 0056;
},
{
glyphname = W;
lastChange = "2015-11-26 10:59:35 +0000";
layers = (
{
layerId = "098F4D9A-293F-4750-B0F4-D0E702B92EEF";
name = "Bold Italic";
paths = (
{
closed = 1;
nodes = (
"327 0 LINE",
"463 254 LINE",
"487 0 LINE",
"691 0 LINE",
"976 644 LINE",
"741 644 LINE",
"634 397 LINE",
"614 644 LINE",
"417 644 LINE",
"394 535 LINE",
"328 398 LINE",
"331 644 LINE",
"95 644 LINE",
"109 0 LINE"
);
}
);
width = 911;
}
);
leftKerningGroup = W;
note = W;
rightKerningGroup = W;
unicode = 0057;
},
{
glyphname = Wacute;
lastChange = "2015-11-26 10:59:34 +0000";
layers = (
{
layerId = "098F4D9A-293F-4750-B0F4-D0E702B92EEF";
name = "Bold Italic";
paths = (
{
closed = 1;
nodes = (
"327 0 LINE",
"463 254 LINE",
"487 0 LINE",
"691 0 LINE",
"976 644 LINE",
"741 644 LINE",
"634 397 LINE",
"614 644 LINE",
"417 644 LINE",
"394 535 LINE",
"328 398 LINE",
"331 644 LINE",
"95 644 LINE",
"109 0 LINE"
);
},
{
closed = 1;
nodes = (
"609 688 LINE",
"762 914 LINE",
"576 914 LINE",
"432 688 LINE"
);
}
);
width = 911;
}
);
leftKerningGroup = W;
note = Wacute;
rightKerningGroup = W;
unicode = 1E82;
},
{
glyphname = Wcircumflex;
lastChange = "2015-11-26 10:59:35 +0000";
layers = (
{
layerId = "098F4D9A-293F-4750-B0F4-D0E702B92EEF";
name = "Bold Italic";
paths = (
{
closed = 1;
nodes = (
"327 0 LINE",
"463 254 LINE",
"487 0 LINE",
"691 0 LINE",
"976 644 LINE",
"741 644 LINE",
"634 397 LINE",
"614 644 LINE",
"417 644 LINE",
"394 535 LINE",
"328 398 LINE",
"331 644 LINE",
"95 644 LINE",
"109 0 LINE"
);
},
{
closed = 1;
nodes = (
"484 688 LINE",
"579 795 LINE",
"633 688 LINE",
"794 688 LINE",
"665 904 LINE",
"524 904 LINE",
"304 688 LINE"
);
}
);
width = 911;
}
);
leftKerningGroup = W;
note = Wcircumflex;
rightKerningGroup = W;
unicode = 0174;
},
{
glyphname = Wdieresis;
lastChange = "2015-11-26 10:59:34 +0000";
layers = (
{
layerId = "098F4D9A-293F-4750-B0F4-D0E702B92EEF";
name = "Bold Italic";
paths = (
{
closed = 1;
nodes = (
"327 0 LINE",
"463 254 LINE",
"487 0 LINE",
"691 0 LINE",
"976 644 LINE",
"741 644 LINE",
"634 397 LINE",
"614 644 LINE",
"417 644 LINE",
"394 535 LINE",
"328 398 LINE",
"331 644 LINE",
"95 644 LINE",
"109 0 LINE"
);
},
{
closed = 1;
nodes = (
"515 718 LINE",
"545 859 LINE",
"390 859 LINE",
"360 718 LINE"
);
},
{
closed = 1;
nodes = (
"750 718 LINE",
"780 859 LINE",
"624 859 LINE",
"594 718 LINE"
);
}
);
width = 911;
}
);
leftKerningGroup = W;
note = Wdieresis;
rightKerningGroup = W;
unicode = 1E84;
},
{
glyphname = Wgrave;
lastChange = "2015-11-26 10:59:34 +0000";
layers = (
{
layerId = "098F4D9A-293F-4750-B0F4-D0E702B92EEF";
name = "Bold Italic";
paths = (
{
closed = 1;
nodes = (
"327 0 LINE",
"463 254 LINE",
"487 0 LINE",
"691 0 LINE",
"976 644 LINE",
"741 644 LINE",
"634 397 LINE",
"614 644 LINE",
"417 644 LINE",
"394 535 LINE",
"328 398 LINE",
"331 644 LINE",
"95 644 LINE",
"109 0 LINE"
);
},
{
closed = 1;
nodes = (
"622 688 LINE",
"574 914 LINE",
"388 914 LINE",
"445 688 LINE"
);
}
);
width = 911;
}
);
leftKerningGroup = W;
note = Wgrave;
rightKerningGroup = W;
unicode = 1E80;
},
{
glyphname = X;
lastChange = "2015-11-26 10:59:35 +0000";
layers = (
{
layerId = "098F4D9A-293F-4750-B0F4-D0E702B92EEF";
name = "Bold Italic";
paths = (
{
closed = 1;
nodes = (
"252 0 LINE",
"376 131 LINE",
"445 0 LINE",
"738 0 LINE",
"563 329 LINE",
"862 644 LINE",
"573 644 LINE",
"459 525 LINE",
"396 644 LINE",
"107 644 LINE",
"272 329 LINE",
"-41 0 LINE"
);
}
);
width = 809;
}
);
note = X;
unicode = 0058;
},
{
glyphname = Y;
lastChange = "2015-11-26 10:59:35 +0000";
layers = (
{
layerId = "098F4D9A-293F-4750-B0F4-D0E702B92EEF";
name = "Bold Italic";
paths = (
{
closed = 1;
nodes = (
"434 0 LINE",
"483 234 LINE",
"803 644 LINE",
"544 644 LINE",
"399 439 LINE",
"340 644 LINE",
"95 644 LINE",
"241 234 LINE",
"192 0 LINE"
);
}
);
width = 738;
}
);
leftKerningGroup = Y;
note = Y;
rightKerningGroup = Y;
unicode = 0059;
},
{
glyphname = Yacute;
lastChange = "2015-11-26 10:59:35 +0000";
layers = (
{
layerId = "098F4D9A-293F-4750-B0F4-D0E702B92EEF";
name = "Bold Italic";
paths = (
{
closed = 1;
nodes = (
"434 0 LINE",
"483 234 LINE",
"803 644 LINE",
"544 644 LINE",
"399 439 LINE",
"340 644 LINE",
"95 644 LINE",
"241 234 LINE",
"192 0 LINE"
);
},
{
closed = 1;
nodes = (
"547 688 LINE",
"700 914 LINE",
"514 914 LINE",
"370 688 LINE"
);
}
);
width = 738;
}
);
leftKerningGroup = Y;
note = Yacute;
rightKerningGroup = Y;
unicode = 00DD;
},
{
glyphname = Ycircumflex;
lastChange = "2015-11-26 10:59:35 +0000";
layers = (
{
layerId = "098F4D9A-293F-4750-B0F4-D0E702B92EEF";
name = "Bold Italic";
paths = (
{
closed = 1;
nodes = (
"434 0 LINE",
"483 234 LINE",
"803 644 LINE",
"544 644 LINE",
"399 439 LINE",
"340 644 LINE",
"95 644 LINE",
"241 234 LINE",
"192 0 LINE"
);
},
{
closed = 1;
nodes = (
"394 688 LINE",
"489 795 LINE",
"543 688 LINE",
"704 688 LINE",
"575 904 LINE",
"434 904 LINE",
"214 688 LINE"
);
}
);
width = 738;
}
);
leftKerningGroup = Y;
note = Ycircumflex;
rightKerningGroup = Y;
unicode = 0176;
},
{
glyphname = Ydieresis;
lastChange = "2015-11-26 10:59:35 +0000";
layers = (
{
layerId = "098F4D9A-293F-4750-B0F4-D0E702B92EEF";
name = "Bold Italic";
paths = (
{
closed = 1;
nodes = (
"434 0 LINE",
"483 234 LINE",
"803 644 LINE",
"544 644 LINE",
"399 439 LINE",
"340 644 LINE",
"95 644 LINE",
"241 234 LINE",
"192 0 LINE"
);
},
{
closed = 1;
nodes = (
"425 718 LINE",
"455 859 LINE",
"300 859 LINE",
"270 718 LINE"
);
},
{
closed = 1;
nodes = (
"660 718 LINE",
"690 859 LINE",
"534 859 LINE",
"504 718 LINE"
);
}
);
width = 738;
}
);
leftKerningGroup = Y;
note = Ydieresis;
rightKerningGroup = Y;
unicode = 0178;
},
{
glyphname = Ydotaccent;
lastChange = "2015-11-26 10:59:34 +0000";
layers = (
{
layerId = "098F4D9A-293F-4750-B0F4-D0E702B92EEF";
name = "Bold Italic";
paths = (
{
closed = 1;
nodes = (
"434 0 LINE",
"483 234 LINE",
"803 644 LINE",
"544 644 LINE",
"399 439 LINE",
"340 644 LINE",
"95 644 LINE",
"241 234 LINE",
"192 0 LINE"
);
},
{
closed = 1;
nodes = (
"542 718 LINE",
"572 859 LINE",
"416 859 LINE",
"387 718 LINE"
);
}
);
width = 738;
}
);
leftKerningGroup = Y;
note = Ydotaccent;
rightKerningGroup = Y;
unicode = 1E8E;
},
{
glyphname = Ydotbelow;
lastChange = "2015-11-26 10:59:35 +0000";
layers = (
{
layerId = "098F4D9A-293F-4750-B0F4-D0E702B92EEF";
name = "Bold Italic";
paths = (
{
closed = 1;
nodes = (
"434 0 LINE",
"483 234 LINE",
"803 644 LINE",
"544 644 LINE",
"399 439 LINE",
"340 644 LINE",
"95 644 LINE",
"241 234 LINE",
"192 0 LINE"
);
},
{
closed = 1;
nodes = (
"346 -213 LINE",
"376 -72 LINE",
"220 -72 LINE",
"190 -213 LINE"
);
}
);
width = 738;
}
);
leftKerningGroup = Y;
note = Ydotbelow;
rightKerningGroup = Y;
unicode = 1EF4;
},
{
glyphname = Ygrave;
lastChange = "2015-11-26 10:59:35 +0000";
layers = (
{
layerId = "098F4D9A-293F-4750-B0F4-D0E702B92EEF";
name = "Bold Italic";
paths = (
{
closed = 1;
nodes = (
"434 0 LINE",
"483 234 LINE",
"803 644 LINE",
"544 644 LINE",
"399 439 LINE",
"340 644 LINE",
"95 644 LINE",
"241 234 LINE",
"192 0 LINE"
);
},
{
closed = 1;
nodes = (
"551 688 LINE",
"503 914 LINE",
"317 914 LINE",
"374 688 LINE"
);
}
);
width = 738;
}
);
leftKerningGroup = Y;
note = Ygrave;
rightKerningGroup = Y;
unicode = 1EF2;
},
{
glyphname = Yhookabove;
lastChange = "2015-11-26 10:59:35 +0000";
layers = (
{
layerId = "098F4D9A-293F-4750-B0F4-D0E702B92EEF";
name = "Bold Italic";
paths = (
{
closed = 1;
nodes = (
"434 0 LINE",
"483 234 LINE",
"803 644 LINE",
"544 644 LINE",
"399 439 LINE",
"340 644 LINE",
"95 644 LINE",
"241 234 LINE",
"192 0 LINE"
);
},
{
closed = 1;
nodes = (
"550 687 LINE",
"558 723 LINE",
"619 741 OFFCURVE",
"649 767 OFFCURVE",
"662 827 CURVE SMOOTH",
"663 834 OFFCURVE",
"664 840 OFFCURVE",
"664 847 CURVE SMOOTH",
"664 897 OFFCURVE",
"619 934 OFFCURVE",
"533 934 CURVE SMOOTH",
"475 934 OFFCURVE",
"434 928 OFFCURVE",
"400 919 CURVE",
"380 825 LINE",
"397 831 OFFCURVE",
"418 835 OFFCURVE",
"438 835 CURVE SMOOTH",
"472 835 OFFCURVE",
"487 827 OFFCURVE",
"482 807 CURVE",
"478 787 OFFCURVE",
"455 772 OFFCURVE",
"389 768 CURVE",
"372 687 LINE"
);
}
);
width = 738;
}
);
leftKerningGroup = Y;
note = Yhookabove;
rightKerningGroup = Y;
unicode = 1EF6;
},
{
glyphname = Ytilde;
lastChange = "2015-11-26 10:59:34 +0000";
layers = (
{
layerId = "098F4D9A-293F-4750-B0F4-D0E702B92EEF";
name = "Bold Italic";
paths = (
{
closed = 1;
nodes = (
"434 0 LINE",
"483 234 LINE",
"803 644 LINE",
"544 644 LINE",
"399 439 LINE",
"340 644 LINE",
"95 644 LINE",
"241 234 LINE",
"192 0 LINE"
);
},
{
closed = 1;
nodes = (
"609 693 OFFCURVE",
"652 710 OFFCURVE",
"669 728 CURVE",
"699 869 LINE",
"678 847 OFFCURVE",
"638 828 OFFCURVE",
"592 828 CURVE SMOOTH",
"523 828 OFFCURVE",
"474 872 OFFCURVE",
"401 872 CURVE SMOOTH",
"359 872 OFFCURVE",
"315 855 OFFCURVE",
"291 837 CURVE",
"261 696 LINE",
"290 720 OFFCURVE",
"329 737 OFFCURVE",
"375 737 CURVE SMOOTH",
"436 737 OFFCURVE",
"495 693 OFFCURVE",
"567 693 CURVE SMOOTH"
);
}
);
width = 738;
}
);
leftKerningGroup = Y;
note = Ytilde;
rightKerningGroup = Y;
unicode = 1EF8;
},
{
glyphname = Z;
lastChange = "2015-11-26 10:59:34 +0000";
layers = (
{
layerId = "098F4D9A-293F-4750-B0F4-D0E702B92EEF";
name = "Bold Italic";
paths = (
{
closed = 1;
nodes = (
"520 0 LINE",
"559 184 LINE",
"320 184 LINE",
"621 507 LINE",
"650 644 LINE",
"109 644 LINE",
"67 446 LINE",
"289 446 LINE",
"-16 119 LINE",
"-41 0 LINE"
);
}
);
width = 586;
}
);
note = Z;
unicode = 005A;
},
{
glyphname = Zacute;
lastChange = "2015-11-26 10:59:34 +0000";
layers = (
{
layerId = "098F4D9A-293F-4750-B0F4-D0E702B92EEF";
name = "Bold Italic";
paths = (
{
closed = 1;
nodes = (
"520 0 LINE",
"559 184 LINE",
"320 184 LINE",
"621 507 LINE",
"650 644 LINE",
"109 644 LINE",
"67 446 LINE",
"289 446 LINE",
"-16 119 LINE",
"-41 0 LINE"
);
},
{
closed = 1;
nodes = (
"459 688 LINE",
"612 914 LINE",
"426 914 LINE",
"282 688 LINE"
);
}
);
width = 586;
}
);
note = Zacute;
unicode = 0179;
},
{
glyphname = Zcaron;
lastChange = "2015-11-26 10:59:35 +0000";
layers = (
{
layerId = "098F4D9A-293F-4750-B0F4-D0E702B92EEF";
name = "Bold Italic";
paths = (
{
closed = 1;
nodes = (
"520 0 LINE",
"559 184 LINE",
"320 184 LINE",
"621 507 LINE",
"650 644 LINE",
"109 644 LINE",
"67 446 LINE",
"289 446 LINE",
"-16 119 LINE",
"-41 0 LINE"
);
},
{
closed = 1;
nodes = (
"473 688 LINE",
"694 904 LINE",
"519 904 LINE",
"420 797 LINE",
"369 904 LINE",
"204 904 LINE",
"333 688 LINE"
);
}
);
width = 586;
}
);
note = Zcaron;
unicode = 017D;
},
{
glyphname = Zdotaccent;
lastChange = "2015-11-26 10:59:35 +0000";
layers = (
{
layerId = "098F4D9A-293F-4750-B0F4-D0E702B92EEF";
name = "Bold Italic";
paths = (
{
closed = 1;
nodes = (
"520 0 LINE",
"559 184 LINE",
"320 184 LINE",
"621 507 LINE",
"650 644 LINE",
"109 644 LINE",
"67 446 LINE",
"289 446 LINE",
"-16 119 LINE",
"-41 0 LINE"
);
},
{
closed = 1;
nodes = (
"477 718 LINE",
"507 859 LINE",
"351 859 LINE",
"322 718 LINE"
);
}
);
width = 586;
}
);
note = Zdotaccent;
unicode = 017B;
},
{
glyphname = Zdotbelow;
lastChange = "2015-11-26 10:59:35 +0000";
layers = (
{
layerId = "098F4D9A-293F-4750-B0F4-D0E702B92EEF";
name = "Bold Italic";
paths = (
{
closed = 1;
nodes = (
"520 0 LINE",
"559 184 LINE",
"320 184 LINE",
"621 507 LINE",
"650 644 LINE",
"109 644 LINE",
"67 446 LINE",
"289 446 LINE",
"-16 119 LINE",
"-41 0 LINE"
);
},
{
closed = 1;
nodes = (
"291 -213 LINE",
"321 -72 LINE",
"165 -72 LINE",
"135 -213 LINE"
);
}
);
width = 586;
}
);
note = Zdotbelow;
unicode = 1E92;
},
{
glyphname = a;
lastChange = "2015-11-26 10:59:36 +0000";
layers = (
{
layerId = "098F4D9A-293F-4750-B0F4-D0E702B92EEF";
name = "Bold Italic";
paths = (
{
closed = 1;
nodes = (
"226 -10 OFFCURVE",
"282 6 OFFCURVE",
"322 31 CURVE",
"327 0 LINE",
"537 0 LINE",
"637 474 LINE",
"399 474 LINE",
"394 449 LINE",
"374 469 OFFCURVE",
"338 484 OFFCURVE",
"289 484 CURVE SMOOTH",
"137 484 OFFCURVE",
"40 383 OFFCURVE",
"4 216 CURVE SMOOTH",
"-1 190 OFFCURVE",
"-4 167 OFFCURVE",
"-4 146 CURVE SMOOTH",
"-4 39 OFFCURVE",
"62 -10 OFFCURVE",
"168 -10 CURVE SMOOTH"
);
},
{
closed = 1;
nodes = (
"265 163 OFFCURVE",
"250 169 OFFCURVE",
"250 197 CURVE SMOOTH",
"250 204 OFFCURVE",
"251 213 OFFCURVE",
"253 224 CURVE SMOOTH",
"265 281 OFFCURVE",
"287 311 OFFCURVE",
"319 311 CURVE SMOOTH",
"337 311 OFFCURVE",
"347 307 OFFCURVE",
"357 296 CURVE",
"332 178 LINE",
"320 169 OFFCURVE",
"305 163 OFFCURVE",
"287 163 CURVE SMOOTH"
);
}
);
width = 628;
}
);
leftKerningGroup = a;
note = a;
unicode = 0061;
},
{
glyphname = aacute;
lastChange = "2015-11-26 11:02:54 +0000";
layers = (
{
layerId = "098F4D9A-293F-4750-B0F4-D0E702B92EEF";
name = "Bold Italic";
paths = (
{
closed = 1;
nodes = (
"226 -10 OFFCURVE",
"282 6 OFFCURVE",
"322 31 CURVE",
"327 0 LINE",
"537 0 LINE",
"637 474 LINE",
"399 474 LINE",
"394 449 LINE",
"374 469 OFFCURVE",
"338 484 OFFCURVE",
"289 484 CURVE SMOOTH",
"137 484 OFFCURVE",
"40 383 OFFCURVE",
"4 216 CURVE SMOOTH",
"-1 190 OFFCURVE",
"-4 167 OFFCURVE",
"-4 146 CURVE SMOOTH",
"-4 39 OFFCURVE",
"62 -10 OFFCURVE",
"168 -10 CURVE SMOOTH"
);
},
{
closed = 1;
nodes = (
"265 163 OFFCURVE",
"250 169 OFFCURVE",
"250 197 CURVE SMOOTH",
"250 204 OFFCURVE",
"251 213 OFFCURVE",
"253 224 CURVE SMOOTH",
"265 281 OFFCURVE",
"287 311 OFFCURVE",
"319 311 CURVE SMOOTH",
"337 311 OFFCURVE",
"347 307 OFFCURVE",
"357 296 CURVE",
"332 178 LINE",
"320 169 OFFCURVE",
"305 163 OFFCURVE",
"287 163 CURVE SMOOTH"
);
},
{
closed = 1;
nodes = (
"439 522 LINE",
"592 748 LINE",
"406 748 LINE",
"262 522 LINE"
);
}
);
width = 628;
}
);
leftKerningGroup = a;
note = aacute;
unicode = 00E1;
},
{
glyphname = abreve;
lastChange = "2015-11-26 11:02:54 +0000";
layers = (
{
layerId = "098F4D9A-293F-4750-B0F4-D0E702B92EEF";
name = "Bold Italic";
paths = (
{
closed = 1;
nodes = (
"226 -10 OFFCURVE",
"282 6 OFFCURVE",
"322 31 CURVE",
"327 0 LINE",
"537 0 LINE",
"637 474 LINE",
"399 474 LINE",
"394 449 LINE",
"374 469 OFFCURVE",
"338 484 OFFCURVE",
"289 484 CURVE SMOOTH",
"137 484 OFFCURVE",
"40 383 OFFCURVE",
"4 216 CURVE SMOOTH",
"-1 190 OFFCURVE",
"-4 167 OFFCURVE",
"-4 146 CURVE SMOOTH",
"-4 39 OFFCURVE",
"62 -10 OFFCURVE",
"168 -10 CURVE SMOOTH"
);
},
{
closed = 1;
nodes = (
"265 163 OFFCURVE",
"250 169 OFFCURVE",
"250 197 CURVE SMOOTH",
"250 204 OFFCURVE",
"251 213 OFFCURVE",
"253 224 CURVE SMOOTH",
"265 281 OFFCURVE",
"287 311 OFFCURVE",
"319 311 CURVE SMOOTH",
"337 311 OFFCURVE",
"347 307 OFFCURVE",
"357 296 CURVE",
"332 178 LINE",
"320 169 OFFCURVE",
"305 163 OFFCURVE",
"287 163 CURVE SMOOTH"
);
},
{
closed = 1;
nodes = (
"501 522 OFFCURVE",
"604 599 OFFCURVE",
"635 742 CURVE",
"473 742 LINE",
"463 697 OFFCURVE",
"439 654 OFFCURVE",
"388 654 CURVE SMOOTH",
"351 654 OFFCURVE",
"338 678 OFFCURVE",
"338 709 CURVE SMOOTH",
"338 719 OFFCURVE",
"339 731 OFFCURVE",
"342 742 CURVE",
"195 742 LINE",
"190 720 OFFCURVE",
"188 699 OFFCURVE",
"188 680 CURVE SMOOTH",
"188 577 OFFCURVE",
"256 522 OFFCURVE",
"367 522 CURVE SMOOTH"
);
}
);
width = 628;
}
);
leftKerningGroup = a;
note = abreve;
unicode = 0103;
},
{
glyphname = abreveacute;
lastChange = "2015-11-26 11:02:54 +0000";
layers = (
{
layerId = "098F4D9A-293F-4750-B0F4-D0E702B92EEF";
name = "Bold Italic";
paths = (
{
closed = 1;
nodes = (
"226 -10 OFFCURVE",
"282 6 OFFCURVE",
"322 31 CURVE",
"327 0 LINE",
"537 0 LINE",
"637 474 LINE",
"399 474 LINE",
"394 449 LINE",
"374 469 OFFCURVE",
"338 484 OFFCURVE",
"289 484 CURVE SMOOTH",
"137 484 OFFCURVE",
"40 383 OFFCURVE",
"4 216 CURVE SMOOTH",
"-1 190 OFFCURVE",
"-4 167 OFFCURVE",
"-4 146 CURVE SMOOTH",
"-4 39 OFFCURVE",
"62 -10 OFFCURVE",
"168 -10 CURVE SMOOTH"
);
},
{
closed = 1;
nodes = (
"265 163 OFFCURVE",
"250 169 OFFCURVE",
"250 197 CURVE SMOOTH",
"250 204 OFFCURVE",
"251 213 OFFCURVE",
"253 224 CURVE SMOOTH",
"265 281 OFFCURVE",
"287 311 OFFCURVE",
"319 311 CURVE SMOOTH",
"337 311 OFFCURVE",
"347 307 OFFCURVE",
"357 296 CURVE",
"332 178 LINE",
"320 169 OFFCURVE",
"305 163 OFFCURVE",
"287 163 CURVE SMOOTH"
);
},
{
closed = 1;
nodes = (
"487 522 OFFCURVE",
"577 581 OFFCURVE",
"605 710 CURVE",
"464 710 LINE",
"455 670 OFFCURVE",
"435 639 OFFCURVE",
"383 639 CURVE SMOOTH",
"347 639 OFFCURVE",
"331 655 OFFCURVE",
"331 684 CURVE SMOOTH",
"331 691 OFFCURVE",
"333 700 OFFCURVE",
"335 710 CURVE",
"208 710 LINE",
"204 692 OFFCURVE",
"202 675 OFFCURVE",
"202 659 CURVE SMOOTH",
"202 566 OFFCURVE",
"272 522 OFFCURVE",
"366 522 CURVE SMOOTH"
);
},
{
closed = 1;
nodes = (
"490 729 LINE",
"608 901 LINE",
"453 901 LINE",
"342 729 LINE"
);
}
);
width = 628;
}
);
leftKerningGroup = a;
note = abreveacute;
unicode = 1EAF;
},
{
glyphname = abrevedotbelow;
lastChange = "2015-11-26 11:03:02 +0000";
layers = (
{
layerId = "098F4D9A-293F-4750-B0F4-D0E702B92EEF";
name = "Bold Italic";
paths = (
{
closed = 1;
nodes = (
"226 -10 OFFCURVE",
"282 6 OFFCURVE",
"322 31 CURVE",
"327 0 LINE",
"537 0 LINE",
"637 474 LINE",
"399 474 LINE",
"394 449 LINE",
"374 469 OFFCURVE",
"338 484 OFFCURVE",
"289 484 CURVE SMOOTH",
"137 484 OFFCURVE",
"40 383 OFFCURVE",
"4 216 CURVE SMOOTH",
"-1 190 OFFCURVE",
"-4 167 OFFCURVE",
"-4 146 CURVE SMOOTH",
"-4 39 OFFCURVE",
"62 -10 OFFCURVE",
"168 -10 CURVE SMOOTH"
);
},
{
closed = 1;
nodes = (
"265 163 OFFCURVE",
"250 169 OFFCURVE",
"250 197 CURVE SMOOTH",
"250 204 OFFCURVE",
"251 213 OFFCURVE",
"253 224 CURVE SMOOTH",
"265 281 OFFCURVE",
"287 311 OFFCURVE",
"319 311 CURVE SMOOTH",
"337 311 OFFCURVE",
"347 307 OFFCURVE",
"357 296 CURVE",
"332 178 LINE",
"320 169 OFFCURVE",
"305 163 OFFCURVE",
"287 163 CURVE SMOOTH"
);
},
{
closed = 1;
nodes = (
"509 522 OFFCURVE",
"612 599 OFFCURVE",
"643 742 CURVE",
"481 742 LINE",
"471 697 OFFCURVE",
"447 654 OFFCURVE",
"396 654 CURVE SMOOTH",
"359 654 OFFCURVE",
"346 678 OFFCURVE",
"346 709 CURVE SMOOTH",
"346 719 OFFCURVE",
"347 731 OFFCURVE",
"350 742 CURVE",
"203 742 LINE",
"198 720 OFFCURVE",
"196 699 OFFCURVE",
"196 680 CURVE SMOOTH",
"196 577 OFFCURVE",
"264 522 OFFCURVE",
"375 522 CURVE SMOOTH"
);
},
{
closed = 1;
nodes = (
"300 -213 LINE",
"330 -72 LINE",
"174 -72 LINE",
"144 -213 LINE"
);
}
);
width = 628;
}
);
leftKerningGroup = a;
note = abrevedotbelow;
unicode = 1EB7;
},
{
glyphname = abrevegrave;
lastChange = "2015-11-26 11:02:54 +0000";
layers = (
{
layerId = "098F4D9A-293F-4750-B0F4-D0E702B92EEF";
name = "Bold Italic";
paths = (
{
closed = 1;
nodes = (
"226 -10 OFFCURVE",
"282 6 OFFCURVE",
"322 31 CURVE",
"327 0 LINE",
"537 0 LINE",
"637 474 LINE",
"399 474 LINE",
"394 449 LINE",
"374 469 OFFCURVE",
"338 484 OFFCURVE",
"289 484 CURVE SMOOTH",
"137 484 OFFCURVE",
"40 383 OFFCURVE",
"4 216 CURVE SMOOTH",
"-1 190 OFFCURVE",
"-4 167 OFFCURVE",
"-4 146 CURVE SMOOTH",
"-4 39 OFFCURVE",
"62 -10 OFFCURVE",
"168 -10 CURVE SMOOTH"
);
},
{
closed = 1;
nodes = (
"265 163 OFFCURVE",
"250 169 OFFCURVE",
"250 197 CURVE SMOOTH",
"250 204 OFFCURVE",
"251 213 OFFCURVE",
"253 224 CURVE SMOOTH",
"265 281 OFFCURVE",
"287 311 OFFCURVE",
"319 311 CURVE SMOOTH",
"337 311 OFFCURVE",
"347 307 OFFCURVE",
"357 296 CURVE",
"332 178 LINE",
"320 169 OFFCURVE",
"305 163 OFFCURVE",
"287 163 CURVE SMOOTH"
);
},
{
closed = 1;
nodes = (
"484 522 OFFCURVE",
"574 581 OFFCURVE",
"602 710 CURVE",
"461 710 LINE",
"452 670 OFFCURVE",
"432 639 OFFCURVE",
"380 639 CURVE SMOOTH",
"344 639 OFFCURVE",
"328 655 OFFCURVE",
"328 684 CURVE SMOOTH",
"328 691 OFFCURVE",
"330 700 OFFCURVE",
"332 710 CURVE",
"205 710 LINE",
"201 692 OFFCURVE",
"199 675 OFFCURVE",
"199 659 CURVE SMOOTH",
"199 566 OFFCURVE",
"269 522 OFFCURVE",
"363 522 CURVE SMOOTH"
);
},
{
closed = 1;
nodes = (
"476 729 LINE",
"437 901 LINE",
"281 901 LINE",
"328 729 LINE"
);
}
);
width = 628;
}
);
leftKerningGroup = a;
note = abrevegrave;
unicode = 1EB1;
},
{
glyphname = abrevehookabove;
lastChange = "2015-11-26 11:02:54 +0000";
layers = (
{
layerId = "098F4D9A-293F-4750-B0F4-D0E702B92EEF";
name = "Bold Italic";
paths = (
{
closed = 1;
nodes = (
"226 -10 OFFCURVE",
"282 6 OFFCURVE",
"322 31 CURVE",
"327 0 LINE",
"537 0 LINE",
"637 474 LINE",
"399 474 LINE",
"394 449 LINE",
"374 469 OFFCURVE",
"338 484 OFFCURVE",
"289 484 CURVE SMOOTH",
"137 484 OFFCURVE",
"40 383 OFFCURVE",
"4 216 CURVE SMOOTH",
"-1 190 OFFCURVE",
"-4 167 OFFCURVE",
"-4 146 CURVE SMOOTH",
"-4 39 OFFCURVE",
"62 -10 OFFCURVE",
"168 -10 CURVE SMOOTH"
);
},
{
closed = 1;
nodes = (
"265 163 OFFCURVE",
"250 169 OFFCURVE",
"250 197 CURVE SMOOTH",
"250 204 OFFCURVE",
"251 213 OFFCURVE",
"253 224 CURVE SMOOTH",
"265 281 OFFCURVE",
"287 311 OFFCURVE",
"319 311 CURVE SMOOTH",
"337 311 OFFCURVE",
"347 307 OFFCURVE",
"357 296 CURVE",
"332 178 LINE",
"320 169 OFFCURVE",
"305 163 OFFCURVE",
"287 163 CURVE SMOOTH"
);
},
{
closed = 1;
nodes = (
"489 522 OFFCURVE",
"579 581 OFFCURVE",
"607 710 CURVE",
"466 710 LINE",
"457 670 OFFCURVE",
"437 639 OFFCURVE",
"385 639 CURVE SMOOTH",
"349 639 OFFCURVE",
"333 655 OFFCURVE",
"333 684 CURVE SMOOTH",
"333 691 OFFCURVE",
"335 700 OFFCURVE",
"337 710 CURVE",
"210 710 LINE",
"206 692 OFFCURVE",
"204 675 OFFCURVE",
"204 659 CURVE SMOOTH",
"204 566 OFFCURVE",
"274 522 OFFCURVE",
"368 522 CURVE SMOOTH"
);
},
{
closed = 1;
nodes = (
"490 730 LINE",
"496 757 LINE",
"550 773 OFFCURVE",
"574 797 OFFCURVE",
"584 843 CURVE SMOOTH",
"585 849 OFFCURVE",
"586 854 OFFCURVE",
"586 860 CURVE SMOOTH",
"586 903 OFFCURVE",
"548 935 OFFCURVE",
"474 935 CURVE SMOOTH",
"432 935 OFFCURVE",
"384 929 OFFCURVE",
"356 922 CURVE",
"338 840 LINE",
"352 845 OFFCURVE",
"372 851 OFFCURVE",
"389 851 CURVE SMOOTH",
"415 851 OFFCURVE",
"428 847 OFFCURVE",
"428 832 CURVE SMOOTH",
"428 811 OFFCURVE",
"404 795 OFFCURVE",
"346 793 CURVE",
"333 730 LINE"
);
}
);
width = 628;
}
);
leftKerningGroup = a;
note = abrevehookabove;
unicode = 1EB3;
},
{
glyphname = abrevetilde;
lastChange = "2015-11-26 11:02:54 +0000";
layers = (
{
layerId = "098F4D9A-293F-4750-B0F4-D0E702B92EEF";
name = "Bold Italic";
paths = (
{
closed = 1;
nodes = (
"226 -10 OFFCURVE",
"282 6 OFFCURVE",
"322 31 CURVE",
"327 0 LINE",
"537 0 LINE",
"637 474 LINE",
"399 474 LINE",
"394 449 LINE",
"374 469 OFFCURVE",
"338 484 OFFCURVE",
"289 484 CURVE SMOOTH",
"137 484 OFFCURVE",
"40 383 OFFCURVE",
"4 216 CURVE SMOOTH",
"-1 190 OFFCURVE",
"-4 167 OFFCURVE",
"-4 146 CURVE SMOOTH",
"-4 39 OFFCURVE",
"62 -10 OFFCURVE",
"168 -10 CURVE SMOOTH"
);
},
{
closed = 1;
nodes = (
"265 163 OFFCURVE",
"250 169 OFFCURVE",
"250 197 CURVE SMOOTH",
"250 204 OFFCURVE",
"251 213 OFFCURVE",
"253 224 CURVE SMOOTH",
"265 281 OFFCURVE",
"287 311 OFFCURVE",
"319 311 CURVE SMOOTH",
"337 311 OFFCURVE",
"347 307 OFFCURVE",
"357 296 CURVE",
"332 178 LINE",
"320 169 OFFCURVE",
"305 163 OFFCURVE",
"287 163 CURVE SMOOTH"
);
},
{
closed = 1;
nodes = (
"498 522 OFFCURVE",
"588 581 OFFCURVE",
"616 710 CURVE",
"475 710 LINE",
"466 670 OFFCURVE",
"446 639 OFFCURVE",
"394 639 CURVE SMOOTH",
"358 639 OFFCURVE",
"342 655 OFFCURVE",
"342 684 CURVE SMOOTH",
"342 691 OFFCURVE",
"344 700 OFFCURVE",
"346 710 CURVE",
"219 710 LINE",
"215 692 OFFCURVE",
"213 675 OFFCURVE",
"213 659 CURVE SMOOTH",
"213 566 OFFCURVE",
"283 522 OFFCURVE",
"377 522 CURVE SMOOTH"
);
},
{
closed = 1;
nodes = (
"565 735 OFFCURVE",
"607 751 OFFCURVE",
"622 768 CURVE",
"648 893 LINE",
"629 872 OFFCURVE",
"591 854 OFFCURVE",
"547 854 CURVE SMOOTH",
"482 854 OFFCURVE",
"434 896 OFFCURVE",
"364 896 CURVE SMOOTH",
"324 896 OFFCURVE",
"283 880 OFFCURVE",
"260 863 CURVE",
"234 738 LINE",
"261 761 OFFCURVE",
"298 777 OFFCURVE",
"342 777 CURVE SMOOTH",
"401 777 OFFCURVE",
"457 735 OFFCURVE",
"525 735 CURVE SMOOTH"
);
}
);
width = 628;
}
);
leftKerningGroup = a;
note = abrevetilde;
unicode = 1EB5;
},
{
glyphname = acaron;
lastChange = "2015-11-26 11:02:54 +0000";
layers = (
{
layerId = "098F4D9A-293F-4750-B0F4-D0E702B92EEF";
name = "Bold Italic";
paths = (
{
closed = 1;
nodes = (
"226 -10 OFFCURVE",
"282 6 OFFCURVE",
"322 31 CURVE",
"327 0 LINE",
"537 0 LINE",
"637 474 LINE",
"399 474 LINE",
"394 449 LINE",
"374 469 OFFCURVE",
"338 484 OFFCURVE",
"289 484 CURVE SMOOTH",
"137 484 OFFCURVE",
"40 383 OFFCURVE",
"4 216 CURVE SMOOTH",
"-1 190 OFFCURVE",
"-4 167 OFFCURVE",
"-4 146 CURVE SMOOTH",
"-4 39 OFFCURVE",
"62 -10 OFFCURVE",
"168 -10 CURVE SMOOTH"
);
},
{
closed = 1;
nodes = (
"265 163 OFFCURVE",
"250 169 OFFCURVE",
"250 197 CURVE SMOOTH",
"250 204 OFFCURVE",
"251 213 OFFCURVE",
"253 224 CURVE SMOOTH",
"265 281 OFFCURVE",
"287 311 OFFCURVE",
"319 311 CURVE SMOOTH",
"337 311 OFFCURVE",
"347 307 OFFCURVE",
"357 296 CURVE",
"332 178 LINE",
"320 169 OFFCURVE",
"305 163 OFFCURVE",
"287 163 CURVE SMOOTH"
);
},
{
closed = 1;
nodes = (
"426 522 LINE",
"647 738 LINE",
"472 738 LINE",
"373 631 LINE",
"322 738 LINE",
"157 738 LINE",
"286 522 LINE"
);
}
);
width = 628;
}
);
leftKerningGroup = a;
note = acaron;
unicode = 01CE;
},
{
glyphname = acircumflex;
lastChange = "2015-11-26 11:03:15 +0000";
layers = (
{
layerId = "098F4D9A-293F-4750-B0F4-D0E702B92EEF";
name = "Bold Italic";
paths = (
{
closed = 1;
nodes = (
"226 -10 OFFCURVE",
"282 6 OFFCURVE",
"322 31 CURVE",
"327 0 LINE",
"537 0 LINE",
"637 474 LINE",
"399 474 LINE",
"394 449 LINE",
"374 469 OFFCURVE",
"338 484 OFFCURVE",
"289 484 CURVE SMOOTH",
"137 484 OFFCURVE",
"40 383 OFFCURVE",
"4 216 CURVE SMOOTH",
"-1 190 OFFCURVE",
"-4 167 OFFCURVE",
"-4 146 CURVE SMOOTH",
"-4 39 OFFCURVE",
"62 -10 OFFCURVE",
"168 -10 CURVE SMOOTH"
);
},
{
closed = 1;
nodes = (
"265 163 OFFCURVE",
"250 169 OFFCURVE",
"250 197 CURVE SMOOTH",
"250 204 OFFCURVE",
"251 213 OFFCURVE",
"253 224 CURVE SMOOTH",
"265 281 OFFCURVE",
"287 311 OFFCURVE",
"319 311 CURVE SMOOTH",
"337 311 OFFCURVE",
"347 307 OFFCURVE",
"357 296 CURVE",
"332 178 LINE",
"320 169 OFFCURVE",
"305 163 OFFCURVE",
"287 163 CURVE SMOOTH"
);
},
{
closed = 1;
nodes = (
"293 522 LINE",
"388 629 LINE",
"442 522 LINE",
"603 522 LINE",
"474 738 LINE",
"333 738 LINE",
"113 522 LINE"
);
}
);
width = 628;
}
);
leftKerningGroup = a;
note = acircumflex;
unicode = 00E2;
},
{
glyphname = acircumflexacute;
lastChange = "2015-11-26 11:02:54 +0000";
layers = (
{
layerId = "098F4D9A-293F-4750-B0F4-D0E702B92EEF";
name = "Bold Italic";
paths = (
{
closed = 1;
nodes = (
"226 -10 OFFCURVE",
"282 6 OFFCURVE",
"322 31 CURVE",
"327 0 LINE",
"537 0 LINE",
"637 474 LINE",
"399 474 LINE",
"394 449 LINE",
"374 469 OFFCURVE",
"338 484 OFFCURVE",
"289 484 CURVE SMOOTH",
"137 484 OFFCURVE",
"40 383 OFFCURVE",
"4 216 CURVE SMOOTH",
"-1 190 OFFCURVE",
"-4 167 OFFCURVE",
"-4 146 CURVE SMOOTH",
"-4 39 OFFCURVE",
"62 -10 OFFCURVE",
"168 -10 CURVE SMOOTH"
);
},
{
closed = 1;
nodes = (
"265 163 OFFCURVE",
"250 169 OFFCURVE",
"250 197 CURVE SMOOTH",
"250 204 OFFCURVE",
"251 213 OFFCURVE",
"253 224 CURVE SMOOTH",
"265 281 OFFCURVE",
"287 311 OFFCURVE",
"319 311 CURVE SMOOTH",
"337 311 OFFCURVE",
"347 307 OFFCURVE",
"357 296 CURVE",
"332 178 LINE",
"320 169 OFFCURVE",
"305 163 OFFCURVE",
"287 163 CURVE SMOOTH"
);
},
{
closed = 1;
nodes = (
"318 522 LINE",
"387 598 LINE",
"427 522 LINE",
"608 522 LINE",
"487 690 LINE",
"312 690 LINE",
"118 522 LINE"
);
},
{
closed = 1;
nodes = (
"702 654 LINE",
"822 826 LINE",
"646 826 LINE",
"535 654 LINE"
);
}
);
width = 628;
}
);
leftKerningGroup = a;
note = acircumflexacute;
unicode = 1EA5;
},
{
glyphname = acircumflexdotbelow;
lastChange = "2015-11-26 11:03:21 +0000";
layers = (
{
layerId = "098F4D9A-293F-4750-B0F4-D0E702B92EEF";
name = "Bold Italic";
paths = (
{
closed = 1;
nodes = (
"226 -10 OFFCURVE",
"282 6 OFFCURVE",
"322 31 CURVE",
"327 0 LINE",
"537 0 LINE",
"637 474 LINE",
"399 474 LINE",
"394 449 LINE",
"374 469 OFFCURVE",
"338 484 OFFCURVE",
"289 484 CURVE SMOOTH",
"137 484 OFFCURVE",
"40 383 OFFCURVE",
"4 216 CURVE SMOOTH",
"-1 190 OFFCURVE",
"-4 167 OFFCURVE",
"-4 146 CURVE SMOOTH",
"-4 39 OFFCURVE",
"62 -10 OFFCURVE",
"168 -10 CURVE SMOOTH"
);
},
{
closed = 1;
nodes = (
"265 163 OFFCURVE",
"250 169 OFFCURVE",
"250 197 CURVE SMOOTH",
"250 204 OFFCURVE",
"251 213 OFFCURVE",
"253 224 CURVE SMOOTH",
"265 281 OFFCURVE",
"287 311 OFFCURVE",
"319 311 CURVE SMOOTH",
"337 311 OFFCURVE",
"347 307 OFFCURVE",
"357 296 CURVE",
"332 178 LINE",
"320 169 OFFCURVE",
"305 163 OFFCURVE",
"287 163 CURVE SMOOTH"
);
},
{
closed = 1;
nodes = (
"296 522 LINE",
"391 629 LINE",
"445 522 LINE",
"606 522 LINE",
"477 738 LINE",
"336 738 LINE",
"116 522 LINE"
);
},
{
closed = 1;
nodes = (
"283 -213 LINE",
"313 -72 LINE",
"157 -72 LINE",
"127 -213 LINE"
);
}
);
width = 628;
}
);
leftKerningGroup = a;
note = acircumflexdotbelow;
unicode = 1EAD;
},
{
glyphname = acircumflexgrave;
lastChange = "2015-11-26 11:02:54 +0000";
layers = (
{
layerId = "098F4D9A-293F-4750-B0F4-D0E702B92EEF";
name = "Bold Italic";
paths = (
{
closed = 1;
nodes = (
"226 -10 OFFCURVE",
"282 6 OFFCURVE",
"322 31 CURVE",
"327 0 LINE",
"537 0 LINE",
"637 474 LINE",
"399 474 LINE",
"394 449 LINE",
"374 469 OFFCURVE",
"338 484 OFFCURVE",
"289 484 CURVE SMOOTH",
"137 484 OFFCURVE",
"40 383 OFFCURVE",
"4 216 CURVE SMOOTH",
"-1 190 OFFCURVE",
"-4 167 OFFCURVE",
"-4 146 CURVE SMOOTH",
"-4 39 OFFCURVE",
"62 -10 OFFCURVE",
"168 -10 CURVE SMOOTH"
);
},
{
closed = 1;
nodes = (
"265 163 OFFCURVE",
"250 169 OFFCURVE",
"250 197 CURVE SMOOTH",
"250 204 OFFCURVE",
"251 213 OFFCURVE",
"253 224 CURVE SMOOTH",
"265 281 OFFCURVE",
"287 311 OFFCURVE",
"319 311 CURVE SMOOTH",
"337 311 OFFCURVE",
"347 307 OFFCURVE",
"357 296 CURVE",
"332 178 LINE",
"320 169 OFFCURVE",
"305 163 OFFCURVE",
"287 163 CURVE SMOOTH"
);
},
{
closed = 1;
nodes = (
"244 654 LINE",
"206 826 LINE",
"30 826 LINE",
"76 654 LINE"
);
},
{
closed = 1;
nodes = (
"310 522 LINE",
"382 598 LINE",
"419 522 LINE",
"604 522 LINE",
"483 690 LINE",
"308 690 LINE",
"114 522 LINE"
);
}
);
width = 628;
}
);
leftKerningGroup = a;
note = acircumflexgrave;
unicode = 1EA7;
},
{
glyphname = acircumflexhookabove;
lastChange = "2015-11-26 11:02:54 +0000";
layers = (
{
layerId = "098F4D9A-293F-4750-B0F4-D0E702B92EEF";
name = "Bold Italic";
paths = (
{
closed = 1;
nodes = (
"226 -10 OFFCURVE",
"282 6 OFFCURVE",
"322 31 CURVE",
"327 0 LINE",
"537 0 LINE",
"637 474 LINE",
"399 474 LINE",
"394 449 LINE",
"374 469 OFFCURVE",
"338 484 OFFCURVE",
"289 484 CURVE SMOOTH",
"137 484 OFFCURVE",
"40 383 OFFCURVE",
"4 216 CURVE SMOOTH",
"-1 190 OFFCURVE",
"-4 167 OFFCURVE",
"-4 146 CURVE SMOOTH",
"-4 39 OFFCURVE",
"62 -10 OFFCURVE",
"168 -10 CURVE SMOOTH"
);
},
{
closed = 1;
nodes = (
"265 163 OFFCURVE",
"250 169 OFFCURVE",
"250 197 CURVE SMOOTH",
"250 204 OFFCURVE",
"251 213 OFFCURVE",
"253 224 CURVE SMOOTH",
"265 281 OFFCURVE",
"287 311 OFFCURVE",
"319 311 CURVE SMOOTH",
"337 311 OFFCURVE",
"347 307 OFFCURVE",
"357 296 CURVE",
"332 178 LINE",
"320 169 OFFCURVE",
"305 163 OFFCURVE",
"287 163 CURVE SMOOTH"
);
},
{
closed = 1;
nodes = (
"310 522 LINE",
"379 598 LINE",
"419 522 LINE",
"600 522 LINE",
"479 690 LINE",
"304 690 LINE",
"110 522 LINE"
);
},
{
closed = 1;
nodes = (
"689 631 LINE",
"696 662 LINE",
"746 671 OFFCURVE",
"775 705 OFFCURVE",
"785 751 CURVE SMOOTH",
"786 756 OFFCURVE",
"787 762 OFFCURVE",
"787 767 CURVE SMOOTH",
"787 810 OFFCURVE",
"749 843 OFFCURVE",
"675 843 CURVE SMOOTH",
"625 843 OFFCURVE",
"585 838 OFFCURVE",
"558 831 CURVE",
"538 739 LINE",
"552 744 OFFCURVE",
"571 749 OFFCURVE",
"587 749 CURVE SMOOTH",
"607 749 OFFCURVE",
"618 747 OFFCURVE",
"618 737 CURVE SMOOTH",
"618 724 OFFCURVE",
"606 713 OFFCURVE",
"550 711 CURVE",
"533 631 LINE"
);
}
);
width = 628;
}
);
leftKerningGroup = a;
note = acircumflexhookabove;
unicode = 1EA9;
},
